<svg width="35" height="35" viewBox="0 0 35 35" fill="none" xmlns="http://www.w3.org/2000/svg">
<g clip-path="url(#clip0_412_499)">
<path d="M23.536 28.4417C17.0756 30.45 9.752 27.3167 6.66837 21.0958C6.32708 19.9583 3.66102 14.6208 6.10223 15.55C9.12564 19.4292 11.7917 24.4542 17.4972 23.5125C15.7426 22.8083 12.2615 21.6833 12.9882 19.2C13.2211 18.5333 14.1004 18.9458 14.5381 19.1792C18.5211 20 21.8376 21.9 25.4994 23.2625C34.0677 19.55 32.7548 5.57084 26.2382 0.841675C34.4733 1.99167 38.7936 24.3167 23.536 28.4458V28.4417Z" fill="#6D4C41"/>
<path d="M33.7265 22.6083C30.9721 33.1083 17.9148 38.1958 8.92087 32.85C-4.17654 25.975 -2.4942 4.11667 11.619 0C-12.5923 16.7042 17.8987 46.8792 33.7265 22.6083Z" fill="#6D4C41"/>
<path d="M26.9208 3.82501C28.5108 7.37501 28.2257 12.3708 25.3508 15.1583C20.7415 18.7 16.4292 19.6292 21.42 12.8125C21.7051 12.1375 25.1501 9.47918 23.6524 9.78751C19.0591 11.8042 17.5173 21.8167 17.3527 14.3667C17.7823 8.60835 25.2384 8.50001 26.9208 3.82085V3.82501Z" fill="#84CF3D"/>
<path d="M16.1361 17.0208C15.2648 14.0625 12.2294 11.0375 11.1212 11.25C13.3295 12.7958 14.7549 14.875 15.5097 17.5958C13.0766 17.1625 10.5992 16.05 9.38261 13.7417C8.28246 11.7667 8.53542 9.09166 9.17383 7.00833C11.1292 10.4625 18.75 11.6792 16.1321 17.025L16.1361 17.0208Z" fill="#84CF3D"/>
</g>
<defs>
<clipPath id="clip0_412_499">
<rect width="35" height="35" fill="white"/>
</clipPath>
</defs>
</svg>
