<svg width="390" height="308" viewBox="0 0 390 308" fill="none" xmlns="http://www.w3.org/2000/svg">
<g clip-path="url(#clip0_141_560)">
<path d="M110.563 184.966C92.2423 190.482 71.479 181.88 62.7323 164.78C61.7736 161.655 54.209 146.998 61.117 149.546C69.6929 160.197 77.2444 174 93.4243 171.413C88.46 169.482 78.5839 166.383 80.6327 159.567C81.2893 157.728 83.7846 158.857 85.0191 159.514C96.3136 161.773 105.717 166.987 116.105 170.73C140.401 160.525 136.671 122.137 118.206 109.149C141.557 112.314 153.81 173.632 110.55 184.966H110.563Z" fill="#6D4C41"/>
<path d="M139.469 168.944C131.655 197.784 94.6325 211.757 69.115 197.075C31.9747 178.189 36.7552 118.145 76.7716 106.837C8.11197 152.711 94.58 235.607 139.469 168.944Z" fill="#6D4C41"/>
<path d="M120.176 117.344C124.694 127.102 123.88 140.813 115.724 148.482C102.644 158.201 90.43 160.762 104.587 142.047C105.402 140.195 115.173 132.893 110.918 133.734C97.8895 139.263 93.5294 166.777 93.0566 146.315C94.2648 130.503 115.422 130.201 120.189 117.357L120.176 117.344Z" fill="#84CF3D"/>
<path d="M173.3 144.358C171.408 143.925 167.258 145.646 167.81 142.691C168.007 138.344 173.365 140.09 176.268 139.854C178.093 139.946 178.71 140.629 178.645 142.48C180.444 153.105 168.086 158.135 159.891 153.171C154.861 150.071 155.255 143.216 155.583 138.042C155.964 127.627 170.607 125.959 176.898 132.329C181.56 137.858 174.797 138.094 171.119 136.426C169.241 133.366 163.082 133.484 162.938 137.608C163.502 141.18 160.784 148.587 165.932 149.178C169.609 149.927 172.84 148.364 173.273 144.358H173.3Z" fill="#84CF3D"/>
<path d="M187.706 150.255C188.573 154.615 185.697 154.734 182.243 154.773C177.962 154.931 187.509 138.239 187.234 134.693C188.429 132.972 188.678 129.256 191.082 129.19C193.025 129.492 195.704 128.441 197.228 129.846C198.042 132.105 208.877 156.349 205.344 154.642C202.875 154.484 199.566 155.653 199.106 152.343C198.528 145.908 191.804 151.175 187.72 150.255H187.706ZM193.643 135.428C192.566 139.526 187.037 146.407 194.995 144.214C197.596 144.28 193.84 137.28 193.643 135.428Z" fill="#84CF3D"/>
<path d="M236.351 148.995C233.239 150.268 226.002 148.404 226.147 152.212C226.029 153.893 225.661 154.405 223.98 154.668C222.562 154.668 218.359 155.627 219.331 153.079C221.734 146.066 224.82 139.21 226.646 132.053C227.749 128.021 232.096 128.993 235.274 129.453C238.755 134.154 239.398 141.325 242.143 146.762C242.327 148.955 246.293 153.46 243.719 154.615C238.781 155.364 237.454 153.46 236.338 148.995H236.351ZM228.747 145.081C230.546 144.28 234.342 145.107 234.447 142.717C232.109 131.567 230.336 138.028 228.747 145.081Z" fill="#84CF3D"/>
<path d="M89.5894 153.604C87.1204 145.475 78.5183 137.162 75.3663 137.753C81.6308 141.995 85.6627 147.707 87.8165 155.18C80.9216 153.985 73.8954 150.938 70.4415 144.595C67.3289 139.171 68.0381 131.83 69.8505 126.104C75.3926 135.599 97.0096 138.935 89.5763 153.617L89.5894 153.604Z" fill="#84CF3D"/>
<path d="M209.245 142.966C209.928 138.173 206.5 127.837 214.577 129.321C216.021 129.347 216.534 129.952 216.402 131.396C215.969 138.055 216.363 144.753 216.258 151.424C217.098 155.495 213.185 154.707 210.44 154.642C207.708 153.368 209.888 145.908 209.245 142.98V142.966Z" fill="#84CF3D"/>
<path d="M158.735 175.339C158.512 177.979 160.547 183.574 156.069 182.287C154.165 179.082 155.767 173.855 155.228 170.007C157.711 163.874 161.033 173.291 162.924 175.287C163.542 172.831 162.425 167.433 166.575 168.694C167.232 169.915 167.574 181.945 166.405 182.326C162.071 183.416 161.611 176.679 158.735 175.353V175.339Z" fill="#84CF3D"/>
<path d="M223.481 182.064C220.631 183.364 218.963 181.276 218.136 178.964C217.729 177.401 216.468 177.73 215.155 177.454C215.102 178.294 215.207 179.043 215.312 179.844C215.352 182.536 215.05 182.773 212.318 182.287C210.125 179.581 212.042 173.947 211.464 170.296C211.399 166.186 221.406 167.972 222.667 170.769C224.676 177.428 218.346 173.842 223.494 182.05L223.481 182.064ZM214.918 171.045C215.654 173.593 214.288 174.853 217.637 174.459C219.475 174.748 219.961 171.649 218.162 171.321C217.111 171.163 216.034 171.137 214.918 171.045Z" fill="#84CF3D"/>
<path d="M342.939 175.97C343.885 173.658 341.639 169.219 344.738 168.694C346.603 168.523 346.708 168.602 346.695 170.454C346.827 181.827 347.365 188.407 338.461 175.09C337.738 177.152 339.787 181.788 337.226 182.379C334.587 182.313 335.072 182.484 335.059 180.225C334.534 169.535 335.269 162.876 342.926 175.983L342.939 175.97Z" fill="#84CF3D"/>
<path d="M319.155 182.313C312.103 184.204 317.986 177.651 314.427 176.797C310.461 176.141 310.304 177.927 310.671 181.459C310.698 182.287 310.409 182.655 309.555 182.576C304.459 183.154 308.123 174.131 307.178 170.94C307.178 169.022 308.386 168.116 310.199 168.72C311.643 169.889 309.319 173.882 311.591 174.092C312.812 173.698 315.045 174.302 315.478 172.805C315.439 169.837 315.268 168.392 318.801 168.812C319.983 172.884 319.116 177.966 319.142 182.326L319.155 182.313Z" fill="#84CF3D"/>
<path d="M263.996 172.975C265.691 171.491 266.426 168.09 268.921 168.051C270.077 167.998 272.086 168.051 271.062 169.64C264.154 176.338 268.199 175.536 272.073 182.405C269.118 182.878 267.148 181.932 265.756 179.45C260.792 173.172 266.833 184.336 260.963 182.313C260.253 182.274 260.214 181.696 260.214 181.144C261.055 177.756 258.034 168.668 262.644 168.261C264.903 168.589 263.025 171.794 263.996 172.962V172.975Z" fill="#84CF3D"/>
<path d="M253.319 172.555C252.045 172.437 250.43 173.041 249.524 171.859C248.67 170.782 245.912 170.506 245.833 172.306C246.831 175.234 252.925 173.028 253.661 176.784C254.908 182.983 245.912 184.047 242.432 180.501C240.646 177.546 243.535 177.546 245.663 178.662C246.897 179.476 248.683 180.041 249.786 178.662C250.469 177.244 247.646 177.165 246.805 176.587C233.593 172.673 251.507 161.917 253.306 172.555H253.319Z" fill="#84CF3D"/>
<path d="M182.637 182.536C175.178 183.246 182.374 177.401 172.853 179.857C171.592 180.75 172.971 182.615 170.489 182.549C166.326 182.746 171.737 175.037 171.894 172.253C172.643 170.795 172.577 168.103 174.692 168.103C177.463 168.024 177.502 167.998 178.526 170.572C179.669 174.617 181.678 178.518 182.637 182.536ZM177.292 176.456C175.48 170.769 175.02 172.319 173.772 177.349C175.072 177.02 176.057 176.771 177.292 176.456Z" fill="#84CF3D"/>
<path d="M235.668 168.287C237.993 174.617 227.132 167.919 229.154 173.461C230.363 174.867 234.447 172.555 234.605 174.867C235.34 178.084 231.006 176.311 228.957 176.732C228.261 180.763 232.871 179.148 235.209 179.398C235.997 179.371 236.154 179.844 236.141 180.448C236.719 182.589 234.329 182.563 232.792 182.536C230.73 181.972 226.383 183.508 225.53 181.367C225.543 177.756 225.53 174.144 225.569 170.546C225.911 166.212 232.661 168.799 235.642 168.287H235.668Z" fill="#84CF3D"/>
<path d="M332.315 168.195C332.787 170.992 332.63 171.189 329.99 171.176C328.808 171.518 325.301 170.349 325.472 171.885C325.639 173.207 326.383 173.868 327.705 173.868C329.767 173.816 331.697 173.383 331.224 176.154C330.62 177.638 327.744 176.456 326.339 176.771C324.487 176.705 325.577 179.962 327.298 179.411C328.808 179.91 332.354 178.321 332.538 180.501C332.525 181.381 332.761 182.536 331.474 182.405C318.065 183.298 322.793 181.079 322.228 170.218C323.082 166.278 329.294 168.904 332.301 168.195H332.315Z" fill="#84CF3D"/>
<path d="M292.351 175.339C292.85 160.197 311.564 173.212 302.411 173.685C300.493 173.803 301.124 170.966 299.298 171.137C298.458 171.137 297.486 170.94 297.026 171.885C294.675 174.88 297.368 183.049 301.005 178.097C301.636 177.086 303.015 177.493 304 177.401C308.399 181.381 291.773 187.514 292.338 175.339H292.351Z" fill="#84CF3D"/>
<path d="M205.265 173.593C205.213 170.9 204.622 168.051 208.391 168.76C209.573 170.927 209.534 179.713 207.025 181.302C203.965 183.81 197.333 182.655 197.175 178.058C197.451 175.182 196.322 171.268 197.858 168.839C204.346 167.42 197.031 178.964 202.796 179.411C206.355 179.673 204.963 175.76 205.252 173.593H205.265Z" fill="#84CF3D"/>
<path d="M287.045 171.531C286.441 173.816 288.542 182.72 285.64 182.379C284.029 182.379 283.228 181.56 283.236 179.923C282.645 177.782 284.628 172.214 282.159 171.715C281.358 171.807 279.848 171.833 279.415 171.15C279.034 165.897 286.743 168.97 289.947 168.169C290.762 168.169 290.998 168.51 290.972 169.219C291.353 172.857 289.803 171.57 287.058 171.518L287.045 171.531Z" fill="#84CF3D"/>
<path d="M191.134 171.544C190.241 174.893 193.629 183.259 188.219 182.313C187.601 182.261 187.47 181.84 187.47 181.262C186.853 178.78 189.059 171.99 186.078 171.491C184.607 171.61 182.361 171.005 183.819 169.246C186.419 167.066 190.491 168.55 193.656 168.156C197.333 168.891 194.194 173.172 191.134 171.544Z" fill="#84CF3D"/>
<path d="M277.34 175.668C276.788 177.638 278.666 182.129 276.105 182.576C273.071 182.51 273.4 182.865 273.413 179.897C273.413 176.955 273.439 174.013 273.478 171.071C273.505 169.154 275.028 168.09 276.841 168.733C277.983 170.612 277.064 173.488 277.34 175.668Z" fill="#84CF3D"/>
<path d="M240.62 170.112C239.871 177.152 236.916 172.332 237.665 168.208C237.98 168.064 238.492 167.801 238.65 167.932C240.922 168.051 240.357 167.998 240.62 170.112Z" fill="#84CF3D"/>
</g>
<defs>
<clipPath id="clip0_141_560">
<rect width="480" height="307.602" fill="white" transform="translate(-44)"/>
</clipPath>
</defs>
</svg>
