<svg width="130" height="70" viewBox="0 0 130 70" fill="none" xmlns="http://www.w3.org/2000/svg">
<path d="M12.0476 0.25H117.952C124.491 0.25 129.75 5.45487 129.75 11.9152V53.7714C129.75 60.2317 124.491 65.4366 117.952 65.4366H12.0476C5.50871 65.4366 0.25 60.2317 0.25 53.7714V11.9152C0.25 5.45487 5.50871 0.25 12.0476 0.25Z" fill="#EFECCA" stroke="#EFECCA" stroke-width="0.5"/>
<path fill-rule="evenodd" clip-rule="evenodd" d="M19.4615 23.6777H43.753V62.4787H19.4615V23.6777Z" fill="#038141"/>
<path fill-rule="evenodd" clip-rule="evenodd" d="M90.2028 23.6777H114.494V62.4787H90.2028V23.6777Z" fill="#E63E11"/>
<path fill-rule="evenodd" clip-rule="evenodd" d="M14.519 23.6777H20.5845C25.633 23.6777 29.6974 27.6975 29.6974 32.6906V53.4659C29.6974 58.459 25.633 62.4787 20.5845 62.4787H14.519C9.47038 62.4787 5.40601 58.459 5.40601 53.4659V32.6906C5.40601 27.6975 9.47038 23.6777 14.519 23.6777Z" fill="#038141"/>
<path fill-rule="evenodd" clip-rule="evenodd" d="M78.3096 23.6777H102.601V62.4787H78.3096V23.6777Z" fill="#EE8100"/>
<path d="M82.7023 52.2166V34.6265H89.3406C90.8102 34.6265 92.0961 34.8577 93.1984 35.3202C94.3006 35.7826 95.2191 36.4103 95.9539 37.2031C96.7054 37.9959 97.2648 38.929 97.6322 40.0026C98.0164 41.0597 98.2084 42.1911 98.2084 43.3968C98.2084 44.7346 97.9996 45.9486 97.5821 47.0387C97.1646 48.1123 96.5634 49.0372 95.7785 49.8135C95.0103 50.5732 94.0751 51.1678 92.9729 51.5973C91.8874 52.0102 90.6766 52.2166 89.3406 52.2166H82.7023ZM94.025 43.3968C94.025 42.6205 93.9165 41.9185 93.6994 41.2909C93.499 40.6468 93.1984 40.0935 92.7976 39.631C92.3967 39.1685 91.9041 38.8134 91.3196 38.5657C90.7351 38.3179 90.0754 38.194 89.3406 38.194H86.8106V48.649H89.3406C90.0921 48.649 90.7601 48.5169 91.3446 48.2527C91.9291 47.9884 92.4134 47.625 92.7976 47.1626C93.1984 46.6836 93.499 46.1303 93.6994 45.5026C93.9165 44.8585 94.025 44.1565 94.025 43.3968Z" fill="white" fill-opacity="0.446064"/>
<path fill-rule="evenodd" clip-rule="evenodd" d="M52.7022 23.6777H78.3513V62.4787H52.7022V23.6777Z" fill="#FECB02"/>
<path fill-rule="evenodd" clip-rule="evenodd" d="M53.9472 23.6777H29.6558V62.4787H53.9472V23.6777Z" fill="#85BB2F"/>
<path d="M55.5222 42.5132C55.5222 41.4562 55.7226 40.4074 56.1234 39.3668C56.5242 38.3098 57.1087 37.3683 57.8769 36.5425C58.6451 35.7167 59.5803 35.0477 60.6825 34.5357C61.7848 34.0237 63.0373 33.7677 64.4401 33.7677C66.1101 33.7677 67.5546 34.1228 68.7737 34.833C70.0096 35.5432 70.9281 36.4682 71.5293 37.6078L68.3729 39.788C68.1725 39.3255 67.9137 38.9457 67.5964 38.6484C67.2958 38.3345 66.9618 38.0868 66.5944 37.9051C66.227 37.7069 65.8512 37.5748 65.4671 37.5087C65.083 37.4261 64.7073 37.3848 64.3399 37.3848C63.555 37.3848 62.8703 37.5417 62.2858 37.8556C61.7013 38.1694 61.2169 38.574 60.8328 39.0695C60.4487 39.565 60.1648 40.1266 59.9811 40.7542C59.7974 41.3818 59.7056 42.0177 59.7056 42.6619C59.7056 43.3556 59.8141 44.0245 60.0312 44.6687C60.2483 45.3128 60.5573 45.8826 60.9581 46.3781C61.3756 46.8736 61.8683 47.27 62.4361 47.5673C63.0206 47.8481 63.6719 47.9885 64.39 47.9885C64.7574 47.9885 65.1331 47.9472 65.5172 47.8646C65.918 47.7655 66.2938 47.6251 66.6445 47.4434C67.0119 47.2452 67.3459 46.9975 67.6465 46.7002C67.9471 46.3864 68.1892 46.0065 68.3729 45.5605L71.7297 47.5178C71.4625 48.1619 71.0617 48.74 70.5273 49.252C70.0096 49.764 69.4084 50.1934 68.7237 50.5403C68.0389 50.8871 67.3125 51.1514 66.5443 51.3331C65.7761 51.5148 65.0246 51.6056 64.2898 51.6056C63.0039 51.6056 61.8182 51.3496 60.7326 50.8376C59.6638 50.3091 58.737 49.6154 57.9521 48.7565C57.1839 47.8976 56.5827 46.9232 56.1485 45.8331C55.731 44.743 55.5222 43.6364 55.5222 42.5132Z" fill="white" fill-opacity="0.446064"/>
<path d="M50.4468 47.0965C50.4468 47.8563 50.2881 48.5169 49.9708 49.0785C49.6535 49.6401 49.2193 50.1108 48.6682 50.4907C48.1171 50.854 47.4741 51.1348 46.7393 51.333C46.0045 51.5147 45.228 51.6056 44.4097 51.6056H35.7423V34.0154H45.6371C46.255 34.0154 46.8145 34.1475 47.3155 34.4118C47.8165 34.676 48.2423 35.0229 48.593 35.4523C48.9437 35.8652 49.2109 36.3442 49.3947 36.8893C49.5951 37.4178 49.6953 37.9628 49.6953 38.5244C49.6953 39.3668 49.4782 40.1596 49.0439 40.9028C48.6264 41.646 47.9918 42.2076 47.1401 42.5875C48.1588 42.8848 48.9604 43.4133 49.545 44.1731C50.1462 44.9328 50.4468 45.9073 50.4468 47.0965ZM46.2634 46.2789C46.2634 45.7339 46.1047 45.2714 45.7874 44.8916C45.4701 44.5117 45.0693 44.3217 44.585 44.3217H39.8505V48.1618H44.4097C44.9441 48.1618 45.3866 47.9884 45.7373 47.6416C46.088 47.2947 46.2634 46.8405 46.2634 46.2789ZM39.8505 37.4839V41.1258H43.8836C44.3345 41.1258 44.7353 40.9771 45.086 40.6798C45.4367 40.3825 45.6121 39.9201 45.6121 39.2924C45.6121 38.7144 45.4534 38.2684 45.1361 37.9546C44.8355 37.6408 44.4681 37.4839 44.0339 37.4839H39.8505Z" fill="white" fill-opacity="0.446064"/>
<path d="M14.363 34.0154H18.0704L24.5584 51.6056H20.35L18.9722 47.6663H13.4361L12.0834 51.6056H7.875L14.363 34.0154ZM18.2959 44.8668L16.2167 38.6483L14.0874 44.8668H18.2959Z" fill="white" fill-opacity="0.446064"/>
<path fill-rule="evenodd" clip-rule="evenodd" d="M111.672 23.6777H117.738C122.786 23.6777 126.851 27.6975 126.851 32.6906V53.4659C126.851 58.459 122.786 62.4787 117.738 62.4787H111.672C106.624 62.4787 102.559 58.459 102.559 53.4659V32.6906C102.559 27.6975 106.624 23.6777 111.672 23.6777Z" fill="#E63E11"/>
<path fill-rule="evenodd" clip-rule="evenodd" d="M89.1396 18.6367H91.771C99.0444 18.6367 104.9 24.4278 104.9 31.6213V54.3825C104.9 61.5759 99.0444 67.367 91.771 67.367H89.1396C81.8662 67.367 76.0107 61.5759 76.0107 54.3825V31.6213C76.0107 24.4278 81.8662 18.6367 89.1396 18.6367Z" fill="#0039FF" fill-opacity="0.629738" stroke="#EFECCA" stroke-width="3" stroke-linecap="round" stroke-linejoin="round"/>
<path d="M122.632 48.038V51.6056H110.132V34.0154H122.407V37.583H114.24V41.0019H121.254V44.297H114.24V48.038H122.632Z" fill="white" fill-opacity="0.446064"/>
<path fill-rule="evenodd" clip-rule="evenodd" d="M89.1396 18.6367H91.771C99.0444 18.6367 104.9 24.4278 104.9 31.6213V54.3825C104.9 61.5759 99.0444 67.367 91.771 67.367H89.1396C81.8662 67.367 76.0107 61.5759 76.0107 54.3825V31.6213C76.0107 24.4278 81.8662 18.6367 89.1396 18.6367Z" fill="#EE8100"/>
<path d="M81.0791 55.0725V31.8813H89.1073C90.8845 31.8813 92.4397 32.1862 93.7727 32.7959C95.1057 33.4056 96.2165 34.2331 97.1051 35.2784C98.014 36.3236 98.6905 37.5539 99.1349 38.9694C99.5994 40.363 99.8317 41.8546 99.8317 43.4443C99.8317 45.2081 99.5792 46.8086 99.0743 48.2458C98.5694 49.6612 97.8423 50.8807 96.8931 51.9041C95.964 52.9058 94.833 53.6898 93.5 54.2559C92.1873 54.8003 90.723 55.0725 89.1073 55.0725H81.0791ZM94.7724 43.4443C94.7724 42.4208 94.6411 41.4953 94.3786 40.6679C94.1362 39.8186 93.7727 39.0891 93.288 38.4794C92.8032 37.8697 92.2074 37.4015 91.5006 37.0749C90.7937 36.7482 89.9959 36.5849 89.1073 36.5849H86.0475V50.3689H89.1073C90.0161 50.3689 90.824 50.1947 91.5309 49.8463C92.2377 49.4979 92.8234 49.0189 93.288 48.4091C93.7727 47.7776 94.1362 47.0482 94.3786 46.2207C94.6411 45.3714 94.7724 44.4459 94.7724 43.4443Z" fill="white"/>
<path d="M10.4368 10.7967V15.8809H8.36023V6.98987H9.98093L14.172 12.2118V6.98987H16.2485V15.8809H14.5771L10.4368 10.7967Z" fill="#7D7D7D"/>
<path d="M21.842 14.1277C22.1965 14.1277 22.4962 14.0568 22.741 13.9149C22.9858 13.7646 23.1842 13.5684 23.3361 13.3263C23.488 13.0842 23.5936 12.8087 23.6526 12.4998C23.7202 12.1826 23.7539 11.8611 23.7539 11.5356V6.98987H25.8305V11.5356C25.8305 12.1533 25.7503 12.7294 25.5899 13.2637C25.4379 13.798 25.1974 14.2655 24.8682 14.6662C24.5474 15.0669 24.1338 15.3842 23.6273 15.6179C23.1293 15.8433 22.5342 15.956 21.842 15.956C21.1245 15.956 20.5125 15.835 20.0061 15.5929C19.4996 15.3508 19.086 15.0294 18.7652 14.6286C18.4529 14.2196 18.2208 13.7479 18.0688 13.2136C17.9253 12.6793 17.8536 12.12 17.8536 11.5356V6.98987H19.9301V11.5356C19.9301 11.8778 19.9639 12.2034 20.0314 12.5123C20.0989 12.8212 20.2087 13.0967 20.3606 13.3388C20.5125 13.5809 20.7067 13.7729 20.943 13.9149C21.1878 14.0568 21.4875 14.1277 21.842 14.1277Z" fill="#7D7D7D"/>
<path d="M34.277 8.79312H31.5421V15.8809H29.4655V8.79312H26.718V6.98987H34.277V8.79312Z" fill="#7D7D7D"/>
<path d="M35.2911 15.8809V6.98987H39.3429C39.7649 6.98987 40.1532 7.07753 40.5078 7.25284C40.8707 7.42816 41.1831 7.65774 41.4447 7.94159C41.7064 8.22543 41.909 8.54684 42.0525 8.90582C42.2044 9.2648 42.2804 9.62796 42.2804 9.99529C42.2804 10.2708 42.2466 10.5379 42.1791 10.7967C42.1116 11.0472 42.0145 11.2851 41.8879 11.5105C41.7613 11.7359 41.6051 11.9405 41.4194 12.1241C41.2421 12.2994 41.0396 12.4497 40.8116 12.5749L42.7869 15.8809H40.4445L38.7225 13.0132H37.3677V15.8809H35.2911ZM37.3677 11.2225H39.2669C39.5117 11.2225 39.7227 11.1098 39.9 10.8844C40.0773 10.6506 40.1659 10.3543 40.1659 9.99529C40.1659 9.62796 40.0646 9.33577 39.862 9.11871C39.6594 8.90165 39.44 8.79312 39.2036 8.79312H37.3677V11.2225Z" fill="#7D7D7D"/>
<path d="M43.7735 15.8809V6.98987H45.85V15.8809H43.7735Z" fill="#7D7D7D"/>
<path d="M47.4046 13.3388V11.5355H51.3044V13.3388H47.4046Z" fill="#7D7D7D"/>
<path d="M58.2432 9.5945C58.2179 9.56112 58.1292 9.49851 57.9773 9.40666C57.8254 9.31483 57.6355 9.21882 57.4075 9.11864C57.1796 9.01846 56.9306 8.93081 56.6605 8.85567C56.3904 8.78054 56.1203 8.74297 55.8502 8.74297C55.1073 8.74297 54.7359 8.98925 54.7359 9.4818C54.7359 9.63207 54.7739 9.7573 54.8499 9.85748C54.9343 9.95766 55.0525 10.0495 55.2044 10.133C55.3648 10.2081 55.5632 10.2791 55.7995 10.3459C56.0359 10.4126 56.3102 10.4878 56.6225 10.5713C57.053 10.6881 57.4413 10.8175 57.7874 10.9595C58.1335 11.093 58.4247 11.2642 58.6611 11.4729C58.9059 11.6733 59.0916 11.9195 59.2182 12.2117C59.3532 12.5039 59.4208 12.8545 59.4208 13.2636C59.4208 13.7645 59.3237 14.1903 59.1295 14.5409C58.9438 14.8832 58.6948 15.1629 58.3825 15.3799C58.0702 15.5886 57.7114 15.7431 57.3063 15.8433C56.9011 15.9351 56.4832 15.981 56.0527 15.981C55.7235 15.981 55.3859 15.956 55.0398 15.9059C54.6937 15.8558 54.3561 15.7848 54.0269 15.693C53.6977 15.5928 53.3769 15.4759 53.0646 15.3424C52.7607 15.2088 52.4779 15.0543 52.2162 14.879L53.1279 13.0883C53.1616 13.13 53.2714 13.2093 53.4571 13.3262C53.6428 13.4431 53.8707 13.56 54.1408 13.6769C54.4194 13.7937 54.7275 13.8981 55.0651 13.9899C55.4028 14.0818 55.7446 14.1277 56.0907 14.1277C56.8251 14.1277 57.1923 13.9064 57.1923 13.464C57.1923 13.297 57.1374 13.1593 57.0277 13.0507C56.918 12.9422 56.766 12.8462 56.5719 12.7627C56.3777 12.6709 56.1456 12.5874 55.8755 12.5123C55.6138 12.4371 55.3268 12.3536 55.0145 12.2618C54.6009 12.1366 54.2421 12.003 53.9382 11.8611C53.6344 11.7108 53.3811 11.5397 53.1785 11.3477C52.9844 11.1557 52.8367 10.9344 52.7354 10.684C52.6425 10.4335 52.5961 10.1413 52.5961 9.80739C52.5961 9.33988 52.6847 8.92663 52.862 8.56765C53.0393 8.20867 53.2798 7.90813 53.5837 7.66602C53.8876 7.41557 54.2379 7.22773 54.6346 7.10251C55.0398 6.97728 55.4661 6.91467 55.9135 6.91467C56.2258 6.91467 56.5339 6.94389 56.8378 7.00233C57.1417 7.06077 57.4329 7.1359 57.7114 7.22773C57.99 7.31957 58.2474 7.42392 58.4838 7.5408C58.7286 7.65768 58.9523 7.77456 59.1549 7.89143L58.2432 9.5945Z" fill="#7D7D7D"/>
<path d="M60.1201 11.3603C60.1201 10.826 60.2214 10.2959 60.424 9.76992C60.6266 9.23563 60.922 8.75977 61.3103 8.34235C61.6986 7.92493 62.1713 7.58682 62.7284 7.32802C63.2855 7.06922 63.9186 6.93982 64.6277 6.93982C65.4718 6.93982 66.202 7.11931 66.8182 7.4783C67.4428 7.83728 67.9071 8.30479 68.211 8.88082L66.6156 9.98281C66.5143 9.74905 66.3835 9.55704 66.2231 9.40677C66.0711 9.24815 65.9023 9.12292 65.7166 9.03109C65.5309 8.93091 65.341 8.86413 65.1468 8.83073C64.9527 8.789 64.7628 8.76813 64.577 8.76813C64.1803 8.76813 63.8342 8.84744 63.5388 9.00606C63.2433 9.16468 62.9986 9.36922 62.8044 9.61967C62.6103 9.87012 62.4668 10.154 62.3739 10.4712C62.2811 10.7884 62.2346 11.1099 62.2346 11.4354C62.2346 11.7861 62.2895 12.1242 62.3992 12.4498C62.509 12.7754 62.6651 13.0634 62.8677 13.3138C63.0787 13.5643 63.3278 13.7646 63.6148 13.9149C63.9102 14.0568 64.2394 14.1278 64.6024 14.1278C64.7881 14.1278 64.978 14.1069 65.1721 14.0652C65.3747 14.0151 65.5647 13.9441 65.7419 13.8523C65.9276 13.7521 66.0964 13.6269 66.2484 13.4766C66.4003 13.318 66.5227 13.126 66.6156 12.9006L68.3123 13.8899C68.1772 14.2155 67.9746 14.5077 67.7045 14.7665C67.4428 15.0253 67.1389 15.2423 66.7928 15.4176C66.4468 15.593 66.0796 15.7265 65.6913 15.8184C65.303 15.9102 64.9231 15.9561 64.5517 15.9561C63.9018 15.9561 63.3024 15.8267 62.7538 15.5679C62.2135 15.3008 61.745 14.9501 61.3483 14.516C60.96 14.0819 60.6561 13.5893 60.4367 13.0383C60.2256 12.4874 60.1201 11.928 60.1201 11.3603Z" fill="#7D7D7D"/>
<path d="M73.1831 15.9561C72.5162 15.9561 71.9084 15.8267 71.3598 15.5679C70.8111 15.3091 70.3426 14.971 69.9543 14.5536C69.566 14.1278 69.2621 13.6436 69.0427 13.1009C68.8316 12.5583 68.7261 11.9989 68.7261 11.4229C68.7261 10.8385 68.8359 10.275 69.0553 9.73236C69.2833 9.18971 69.5956 8.71385 69.9923 8.30478C70.3975 7.88736 70.8744 7.5576 71.4231 7.3155C71.9718 7.06505 72.5711 6.93982 73.221 6.93982C73.8879 6.93982 74.4957 7.06922 75.0443 7.32802C75.593 7.58682 76.0615 7.92911 76.4498 8.35487C76.8381 8.78064 77.1377 9.26485 77.3488 9.8075C77.5598 10.3501 77.6653 10.9011 77.6653 11.4605C77.6653 12.0449 77.5514 12.6084 77.3234 13.151C77.104 13.6937 76.7959 14.1737 76.3991 14.5911C76.0024 15.0002 75.5297 15.33 74.981 15.5804C74.4323 15.8309 73.833 15.9561 73.1831 15.9561ZM70.8406 11.448C70.8406 11.7902 70.8913 12.1242 70.9926 12.4498C71.0939 12.767 71.2416 13.0508 71.4357 13.3013C71.6383 13.5517 71.8873 13.7521 72.1828 13.9024C72.4782 14.0526 72.8159 14.1278 73.1957 14.1278C73.5925 14.1278 73.9385 14.0485 74.234 13.8899C74.5294 13.7312 74.7742 13.5267 74.9684 13.2763C75.1625 13.0174 75.306 12.7294 75.3989 12.4122C75.5002 12.0866 75.5508 11.7568 75.5508 11.4229C75.5508 11.0806 75.5002 10.7509 75.3989 10.4336C75.2976 10.108 75.1456 9.82419 74.943 9.58209C74.7405 9.33163 74.4914 9.13545 74.196 8.99352C73.909 8.84325 73.5756 8.76812 73.1957 8.76812C72.799 8.76812 72.4529 8.84743 72.1575 9.00604C71.8705 9.15632 71.6257 9.35668 71.4231 9.60713C71.2289 9.85758 71.0812 10.1456 70.9799 10.4712C70.8871 10.7884 70.8406 11.114 70.8406 11.448Z" fill="#7D7D7D"/>
<path d="M78.8652 15.8809V6.98987H82.917C83.339 6.98987 83.7273 7.07753 84.0819 7.25284C84.4448 7.42816 84.7572 7.65774 85.0188 7.94159C85.2805 8.22543 85.4831 8.54684 85.6266 8.90582C85.7785 9.2648 85.8545 9.62796 85.8545 9.99529C85.8545 10.2708 85.8207 10.5379 85.7532 10.7967C85.6857 11.0472 85.5886 11.2851 85.462 11.5105C85.3354 11.7359 85.1792 11.9405 84.9935 12.1241C84.8162 12.2994 84.6137 12.4497 84.3857 12.5749L86.361 15.8809H84.0186L82.2966 13.0132H80.9418V15.8809H78.8652ZM80.9418 11.2225H82.841C83.0858 11.2225 83.2968 11.1098 83.4741 10.8844C83.6514 10.6506 83.74 10.3543 83.74 9.99529C83.74 9.62796 83.6387 9.33577 83.4361 9.11871C83.2335 8.90165 83.0141 8.79312 82.7777 8.79312H80.9418V11.2225Z" fill="#7D7D7D"/>
<path d="M93.6658 14.0776V15.8809H87.3476V6.98987H93.5518V8.79312H89.4241V10.5212H92.9694V12.1867H89.4241V14.0776H93.6658Z" fill="#7D7D7D"/>
</svg>
