<svg width="130" height="71" viewBox="0 0 130 71" fill="none" xmlns="http://www.w3.org/2000/svg">
<path fill-rule="evenodd" clip-rule="evenodd" d="M12.0476 0H117.952C124.627 0 130 5.37325 130 12.0476V54.3688C130 61.0432 124.627 66.4165 117.952 66.4165H12.0476C5.37324 66.4165 0 61.0432 0 54.3688V12.0476C0 5.37325 5.37324 0 12.0476 0Z" fill="#EFECCA"/>
<path fill-rule="evenodd" clip-rule="evenodd" d="M90.2028 23.9408H114.494V63.1728H90.2028V23.9408Z" fill="#E63E11"/>
<path fill-rule="evenodd" clip-rule="evenodd" d="M19.4615 23.9408H43.753V63.1728H19.4615V23.9408Z" fill="#038141"/>
<path fill-rule="evenodd" clip-rule="evenodd" d="M14.519 23.9408H20.5845C25.633 23.9408 29.6974 28.0052 29.6974 33.0538V54.0599C29.6974 59.1085 25.633 63.1728 20.5845 63.1728H14.519C9.47038 63.1728 5.40601 59.1085 5.40601 54.0599V33.0538C5.40601 28.0052 9.47038 23.9408 14.519 23.9408Z" fill="#038141"/>
<path d="M14.363 34.3934H18.0704L24.5584 52.179H20.35L18.9722 48.1961H13.4361L12.0834 52.179H7.875L14.363 34.3934ZM18.2959 45.3654L16.2167 39.0778L14.0874 45.3654H18.2959Z" fill="white" fill-opacity="0.446064"/>
<path fill-rule="evenodd" clip-rule="evenodd" d="M111.672 23.9408H117.738C122.786 23.9408 126.851 28.0052 126.851 33.0538V54.0599C126.851 59.1085 122.786 63.1728 117.738 63.1728H111.672C106.624 63.1728 102.559 59.1085 102.559 54.0599V33.0538C102.559 28.0052 106.624 23.9408 111.672 23.9408Z" fill="#E63E11"/>
<path d="M119.645 48.5718V52.179H107.145V34.3934H119.42V38.0007H111.253V41.4576H118.267V44.7893H111.253V48.5718H119.645Z" fill="white" fill-opacity="0.446064"/>
<path d="M10.4368 10.9167V16.0573H8.36023V7.0675H9.98093L14.172 12.3474V7.0675H16.2485V16.0573H14.5771L10.4368 10.9167Z" fill="#7D7D7D"/>
<path d="M21.842 14.2847C22.1965 14.2847 22.4962 14.2129 22.741 14.0694C22.9858 13.9175 23.1842 13.7191 23.3361 13.4743C23.488 13.2295 23.5936 12.951 23.6526 12.6387C23.7202 12.3179 23.7539 11.9929 23.7539 11.6637V7.0675H25.8305V11.6637C25.8305 12.2884 25.7503 12.8708 25.5899 13.411C25.4379 13.9513 25.1974 14.424 24.8682 14.8291C24.5474 15.2343 24.1338 15.5551 23.6273 15.7914C23.1293 16.0193 22.5342 16.1333 21.842 16.1333C21.1245 16.1333 20.5125 16.0109 20.0061 15.7661C19.4996 15.5213 19.086 15.1963 18.7652 14.7912C18.4529 14.3775 18.2208 13.9006 18.0688 13.3604C17.9253 12.8201 17.8536 12.2546 17.8536 11.6637V7.0675H19.9301V11.6637C19.9301 12.0098 19.9639 12.339 20.0314 12.6513C20.0989 12.9636 20.2087 13.2422 20.3606 13.487C20.5125 13.7318 20.7067 13.9259 20.943 14.0694C21.1878 14.2129 21.4875 14.2847 21.842 14.2847Z" fill="#7D7D7D"/>
<path d="M34.277 8.89079H31.5421V16.0573H29.4655V8.89079H26.718V7.0675H34.277V8.89079Z" fill="#7D7D7D"/>
<path d="M35.2911 16.0573V7.0675H39.3429C39.7649 7.0675 40.1532 7.15614 40.5078 7.3334C40.8707 7.51066 41.1831 7.7428 41.4447 8.0298C41.7064 8.31679 41.909 8.64178 42.0525 9.00475C42.2044 9.36772 42.2804 9.73491 42.2804 10.1063C42.2804 10.3849 42.2466 10.655 42.1791 10.9167C42.1116 11.1699 42.0145 11.4105 41.8879 11.6384C41.7613 11.8663 41.6051 12.0731 41.4194 12.2588C41.2421 12.4361 41.0396 12.588 40.8116 12.7146L42.7869 16.0573H40.4445L38.7225 13.1578H37.3677V16.0573H35.2911ZM37.3677 11.3472H39.2669C39.5117 11.3472 39.7227 11.2332 39.9 11.0053C40.0773 10.7689 40.1659 10.4693 40.1659 10.1063C40.1659 9.73491 40.0646 9.43947 39.862 9.22C39.6594 9.00053 39.44 8.89079 39.2036 8.89079H37.3677V11.3472Z" fill="#7D7D7D"/>
<path d="M43.7735 16.0573V7.0675H45.85V16.0573H43.7735Z" fill="#7D7D7D"/>
<path d="M47.4046 13.487V11.6637H51.3044V13.487H47.4046Z" fill="#7D7D7D"/>
<path d="M58.2432 9.70118C58.2179 9.66742 58.1292 9.60411 57.9773 9.51126C57.8254 9.41841 57.6355 9.32133 57.4076 9.22004C57.1796 9.11875 56.9306 9.03011 56.6605 8.95414C56.3904 8.87817 56.1203 8.84019 55.8502 8.84019C55.1073 8.84019 54.7359 9.0892 54.7359 9.58723C54.7359 9.73917 54.7739 9.86579 54.8499 9.96708C54.9343 10.0684 55.0525 10.1612 55.2044 10.2456C55.3648 10.3216 55.5632 10.3934 55.7995 10.4609C56.0359 10.5284 56.3102 10.6044 56.6225 10.6888C57.053 10.807 57.4413 10.9378 57.7874 11.0813C58.1335 11.2164 58.4247 11.3894 58.6611 11.6004C58.9059 11.803 59.0916 12.052 59.2182 12.3475C59.3532 12.6429 59.4208 12.9975 59.4208 13.4111C59.4208 13.9175 59.3237 14.348 59.1295 14.7026C58.9438 15.0486 58.6948 15.3314 58.3825 15.5509C58.0702 15.7619 57.7114 15.9181 57.3063 16.0194C56.9011 16.1122 56.4832 16.1587 56.0527 16.1587C55.7235 16.1587 55.3859 16.1333 55.0398 16.0827C54.6937 16.032 54.3561 15.9603 54.0269 15.8674C53.6977 15.7661 53.3769 15.648 53.0646 15.5129C52.7607 15.3779 52.4779 15.2217 52.2162 15.0444L53.1279 13.2338C53.1616 13.276 53.2714 13.3562 53.4571 13.4744C53.6428 13.5926 53.8707 13.7107 54.1408 13.8289C54.4194 13.9471 54.7275 14.0526 55.0651 14.1454C55.4028 14.2383 55.7446 14.2847 56.0907 14.2847C56.8251 14.2847 57.1923 14.061 57.1923 13.6137C57.1923 13.4448 57.1374 13.3056 57.0277 13.1958C56.918 13.0861 56.766 12.989 56.5719 12.9046C56.3777 12.8117 56.1456 12.7273 55.8755 12.6514C55.6138 12.5754 55.3268 12.491 55.0145 12.3981C54.6009 12.2715 54.2421 12.1365 53.9382 11.993C53.6344 11.841 53.3811 11.668 53.1785 11.4738C52.9844 11.2797 52.8367 11.056 52.7354 10.8028C52.6425 10.5495 52.5961 10.2541 52.5961 9.91643C52.5961 9.44373 52.6847 9.02589 52.862 8.66292C53.0393 8.29995 53.2798 7.99607 53.5837 7.75128C53.8876 7.49805 54.2379 7.30812 54.6346 7.1815C55.0398 7.05489 55.4661 6.99158 55.9135 6.99158C56.2258 6.99158 56.5339 7.02112 56.8378 7.08021C57.1417 7.1393 57.4329 7.21527 57.7114 7.30812C57.99 7.40097 58.2474 7.50649 58.4838 7.62466C58.7286 7.74284 58.9523 7.86102 59.1549 7.97919L58.2432 9.70118Z" fill="#7D7D7D"/>
<path d="M60.1201 11.4864C60.1201 10.9462 60.2214 10.4102 60.424 9.87839C60.6266 9.33816 60.922 8.85702 61.3103 8.43496C61.6986 8.0129 62.1713 7.67103 62.7284 7.40936C63.2855 7.14768 63.9186 7.01685 64.6277 7.01685C65.4718 7.01685 66.202 7.19833 66.8182 7.5613C67.4428 7.92427 67.9071 8.39697 68.211 8.97941L66.6156 10.0936C66.5143 9.85729 66.3834 9.66314 66.2231 9.5112C66.0711 9.35082 65.9023 9.22421 65.7166 9.13135C65.5309 9.03006 65.341 8.96253 65.1468 8.92877C64.9527 8.88656 64.7627 8.86546 64.577 8.86546C64.1803 8.86546 63.8342 8.94565 63.5388 9.10603C63.2433 9.26641 62.9986 9.47322 62.8044 9.72645C62.6103 9.97969 62.4668 10.2667 62.3739 10.5874C62.2811 10.9082 62.2346 11.2332 62.2346 11.5624C62.2346 11.9169 62.2895 12.2588 62.3992 12.588C62.509 12.9172 62.6651 13.2084 62.8677 13.4617C63.0787 13.7149 63.3278 13.9175 63.6148 14.0694C63.9102 14.2129 64.2394 14.2847 64.6024 14.2847C64.7881 14.2847 64.978 14.2636 65.1721 14.2214C65.3747 14.1707 65.5647 14.099 65.7419 14.0061C65.9276 13.9048 66.0964 13.7782 66.2484 13.6263C66.4003 13.4659 66.5227 13.2717 66.6156 13.0438L68.3122 14.0441C68.1772 14.3733 67.9746 14.6687 67.7045 14.9304C67.4428 15.1921 67.1389 15.4116 66.7928 15.5888C66.4468 15.7661 66.0796 15.9011 65.6913 15.994C65.303 16.0869 64.9231 16.1333 64.5517 16.1333C63.9018 16.1333 63.3024 16.0024 62.7538 15.7408C62.2135 15.4706 61.745 15.1161 61.3483 14.6772C60.96 14.2382 60.6561 13.7402 60.4367 13.1831C60.2256 12.626 60.1201 12.0604 60.1201 11.4864Z" fill="#7D7D7D"/>
<path d="M73.1831 16.1333C72.5162 16.1333 71.9084 16.0024 71.3598 15.7408C70.8111 15.4791 70.3426 15.1372 69.9543 14.7152C69.566 14.2847 69.2621 13.7951 69.0427 13.2464C68.8317 12.6977 68.7261 12.1322 68.7261 11.5497C68.7261 10.9589 68.8359 10.3891 69.0553 9.84041C69.2833 9.29173 69.5956 8.81059 69.9923 8.39697C70.3975 7.97492 70.8744 7.64149 71.4231 7.3967C71.9718 7.14346 72.5711 7.01685 73.2211 7.01685C73.8879 7.01685 74.4957 7.14768 75.0443 7.40936C75.593 7.67103 76.0615 8.01712 76.4498 8.44762C76.8381 8.87812 77.1377 9.36771 77.3488 9.91638C77.5598 10.4651 77.6653 11.0222 77.6653 11.5877C77.6653 12.1786 77.5514 12.7484 77.3234 13.2971C77.104 13.8457 76.7959 14.3311 76.3991 14.7532C76.0024 15.1668 75.5297 15.5002 74.981 15.7534C74.4323 16.0067 73.833 16.1333 73.1831 16.1333ZM70.8406 11.5751C70.8406 11.9212 70.8913 12.2588 70.9926 12.588C71.0939 12.9088 71.2416 13.1958 71.4357 13.449C71.6383 13.7022 71.8873 13.9048 72.1828 14.0568C72.4782 14.2087 72.8159 14.2847 73.1957 14.2847C73.5925 14.2847 73.9385 14.2045 74.234 14.0441C74.5294 13.8837 74.7742 13.6769 74.9684 13.4237C75.1625 13.162 75.306 12.8708 75.3989 12.55C75.5002 12.2208 75.5508 11.8874 75.5508 11.5497C75.5508 11.2037 75.5002 10.8702 75.3989 10.5495C75.2976 10.2203 75.1456 9.93326 74.943 9.68847C74.7405 9.43523 74.4914 9.23687 74.196 9.09337C73.909 8.94143 73.5756 8.86546 73.1957 8.86546C72.799 8.86546 72.4529 8.94565 72.1575 9.10603C71.8705 9.25797 71.6257 9.46056 71.4231 9.71379C71.2289 9.96703 71.0812 10.2582 70.9799 10.5875C70.8871 10.9082 70.8406 11.2374 70.8406 11.5751Z" fill="#7D7D7D"/>
<path d="M78.8652 16.0573V7.0675H82.917C83.339 7.0675 83.7273 7.15614 84.0819 7.3334C84.4448 7.51066 84.7572 7.7428 85.0188 8.0298C85.2805 8.31679 85.4831 8.64178 85.6266 9.00475C85.7785 9.36772 85.8545 9.73491 85.8545 10.1063C85.8545 10.3849 85.8207 10.655 85.7532 10.9167C85.6857 11.1699 85.5886 11.4105 85.462 11.6384C85.3354 11.8663 85.1792 12.0731 84.9935 12.2588C84.8162 12.4361 84.6137 12.588 84.3857 12.7146L86.361 16.0573H84.0186L82.2966 13.1578H80.9417V16.0573H78.8652ZM80.9417 11.3472H82.841C83.0858 11.3472 83.2968 11.2332 83.4741 11.0053C83.6514 10.7689 83.74 10.4693 83.74 10.1063C83.74 9.73491 83.6387 9.43947 83.4361 9.22C83.2335 9.00053 83.0141 8.89079 82.7777 8.89079H80.9417V11.3472Z" fill="#7D7D7D"/>
<path d="M93.6658 14.234V16.0573H87.3476V7.0675H93.5518V8.89079H89.4241V10.6381H92.9694V12.3221H89.4241V14.234H93.6658Z" fill="#7D7D7D"/>
<path fill-rule="evenodd" clip-rule="evenodd" d="M30.5178 23.9408H54.8092V63.1728H30.5178V23.9408Z" fill="#EE8100"/>
<path fill-rule="evenodd" clip-rule="evenodd" d="M78.3096 23.9408H102.601V63.1728H78.3096V23.9408Z" fill="#EE8100"/>
<path d="M82.7023 52.179V34.3934H89.3406C90.8102 34.3934 92.0961 34.6272 93.1984 35.0948C94.3006 35.5624 95.2191 36.197 95.9539 36.9986C96.7054 37.8003 97.2648 38.7438 97.6322 39.8293C98.0164 40.8981 98.2084 42.0421 98.2084 43.2612C98.2084 44.6139 97.9996 45.8414 97.5821 46.9436C97.1646 48.0291 96.5634 48.9643 95.7785 49.7492C95.0103 50.5174 94.0751 51.1186 92.9729 51.5528C91.8874 51.9703 90.6766 52.179 89.3406 52.179H82.7023ZM94.025 43.2612C94.025 42.4763 93.9165 41.7665 93.6994 41.1319C93.499 40.4806 93.1984 39.9212 92.7976 39.4536C92.3968 38.986 91.9041 38.6269 91.3196 38.3764C90.7351 38.1259 90.0754 38.0007 89.3406 38.0007H86.8106V48.5718H89.3406C90.0921 48.5718 90.7601 48.4382 91.3446 48.171C91.9291 47.9038 92.4134 47.5364 92.7976 47.0688C93.1984 46.5845 93.499 46.0251 93.6994 45.3905C93.9165 44.7392 94.025 44.0294 94.025 43.2612Z" fill="white" fill-opacity="0.446064"/>
<path fill-rule="evenodd" clip-rule="evenodd" d="M52.7022 23.9408H78.3513V63.1728H52.7022V23.9408Z" fill="#FECB02"/>
<path fill-rule="evenodd" clip-rule="evenodd" d="M53.9472 23.9408H29.6558V63.1728H53.9472V23.9408Z" fill="#85BB2F"/>
<path d="M57.423 42.9856C57.423 41.9168 57.6234 40.8564 58.0242 39.8043C58.425 38.7355 59.0096 37.7836 59.7778 36.9486C60.546 36.1136 61.4812 35.4372 62.5834 34.9195C63.6856 34.4018 64.9381 34.1429 66.3409 34.1429C68.0109 34.1429 69.4555 34.502 70.6746 35.2201C71.9104 35.9382 72.8289 36.8734 73.4301 38.0257L70.2738 40.2301C70.0734 39.7625 69.8145 39.3784 69.4972 39.0778C69.1966 38.7605 68.8626 38.51 68.4952 38.3263C68.1278 38.1259 67.7521 37.9923 67.368 37.9255C66.9838 37.842 66.6081 37.8003 66.2407 37.8003C65.4558 37.8003 64.7711 37.9589 64.1866 38.2762C63.6021 38.5935 63.1178 39.0027 62.7337 39.5037C62.3496 40.0047 62.0657 40.5725 61.882 41.2071C61.6983 41.8417 61.6064 42.4846 61.6064 43.1359C61.6064 43.8373 61.715 44.5137 61.9321 45.165C62.1492 45.8163 62.4581 46.3925 62.8589 46.8935C63.2764 47.3945 63.7691 47.7953 64.3369 48.0959C64.9214 48.3798 65.5727 48.5217 66.2908 48.5217C66.6582 48.5217 67.0339 48.48 67.418 48.3965C67.8189 48.2963 68.1946 48.1543 68.5453 47.9706C68.9127 47.7702 69.2467 47.5197 69.5473 47.2191C69.8479 46.9018 70.0901 46.5177 70.2738 46.0668L73.6305 48.0458C73.3633 48.6971 72.9625 49.2816 72.4281 49.7993C71.9104 50.317 71.3092 50.7512 70.6245 51.1019C69.9398 51.4526 69.2133 51.7198 68.4451 51.9035C67.6769 52.0872 66.9254 52.1791 66.1906 52.1791C64.9047 52.1791 63.719 51.9202 62.6335 51.4025C61.5647 50.8681 60.6378 50.1667 59.8529 49.2983C59.0847 48.4299 58.4835 47.4446 58.0493 46.3424C57.6318 45.2402 57.423 44.1213 57.423 42.9856Z" fill="white" fill-opacity="0.446064"/>
<path d="M50.4468 47.6199C50.4468 48.3881 50.2881 49.0561 49.9708 49.6239C49.6535 50.1917 49.2193 50.6677 48.6682 51.0518C48.1171 51.4192 47.4741 51.7031 46.7393 51.9035C46.0045 52.0872 45.228 52.179 44.4097 52.179H35.7423V34.3934H45.6371C46.255 34.3934 46.8145 34.527 47.3155 34.7942C47.8165 35.0614 48.2423 35.4121 48.593 35.8463C48.9437 36.2639 49.2109 36.7481 49.3947 37.2992C49.5951 37.8337 49.6953 38.3848 49.6953 38.9526C49.6953 39.8043 49.4782 40.6059 49.0439 41.3574C48.6264 42.1089 47.9918 42.6767 47.1401 43.0608C48.1588 43.3614 48.9604 43.8958 49.545 44.664C50.1462 45.4322 50.4468 46.4175 50.4468 47.6199ZM46.2634 46.7933C46.2634 46.2422 46.1047 45.7746 45.7874 45.3905C45.4701 45.0064 45.0693 44.8143 44.585 44.8143H39.8505V48.6971H44.4097C44.9441 48.6971 45.3866 48.5217 45.7373 48.171C46.088 47.8203 46.2634 47.3611 46.2634 46.7933ZM39.8505 37.9005V41.5828H43.8836C44.3345 41.5828 44.7353 41.4325 45.086 41.1319C45.4367 40.8313 45.6121 40.3637 45.6121 39.7291C45.6121 39.1446 45.4534 38.6937 45.1361 38.3764C44.8355 38.0591 44.4681 37.9005 44.0339 37.9005H39.8505Z" fill="white" fill-opacity="0.446064"/>
<path fill-rule="evenodd" clip-rule="evenodd" d="M15.1708 18.8438H17.8022C25.0756 18.8438 30.9311 24.6992 30.9311 31.9726V54.9867C30.9311 62.26 25.0756 68.1155 17.8022 68.1155H15.1708C7.89739 68.1155 2.04193 62.26 2.04193 54.9867V31.9726C2.04193 24.6992 7.89739 18.8438 15.1708 18.8438Z" fill="#0039FF" fill-opacity="0.629738" stroke="#EFECCA" stroke-width="3" stroke-linecap="round" stroke-linejoin="round"/>
<path fill-rule="evenodd" clip-rule="evenodd" d="M15.1708 18.8438H17.8022C25.0756 18.8438 30.9311 24.6992 30.9311 31.9726V54.9867C30.9311 62.26 25.0756 68.1155 17.8022 68.1155H15.1708C7.89739 68.1155 2.04193 62.26 2.04193 54.9867V31.9726C2.04193 24.6992 7.89739 18.8438 15.1708 18.8438Z" fill="#038141"/>
<path d="M14.2446 32.2356H18.7283L26.5747 55.6844H21.4851L19.8189 50.4332H13.1237L11.4878 55.6844H6.39825L14.2446 32.2356ZM19.001 46.7012L16.4865 38.4116L13.9114 46.7012H19.001Z" fill="white"/>
</svg>
