<svg width="130" height="71" viewBox="0 0 130 71" fill="none" xmlns="http://www.w3.org/2000/svg">
<g clip-path="url(#clip0_143_2061)">
<path fill-rule="evenodd" clip-rule="evenodd" d="M12.0476 0H117.952C124.627 0 130 5.37325 130 12.0476V54.3688C130 61.0432 124.627 66.4165 117.952 66.4165H12.0476C5.37325 66.4165 0 61.0432 0 54.3688V12.0476C0 5.37325 5.37325 0 12.0476 0Z" fill="#EFECCA"/>
<path fill-rule="evenodd" clip-rule="evenodd" d="M19.4615 23.9408H43.753V63.1729H19.4615V23.9408Z" fill="#038141"/>
<path fill-rule="evenodd" clip-rule="evenodd" d="M90.2028 23.9408H114.494V63.1729H90.2028V23.9408Z" fill="#E63E11"/>
<path fill-rule="evenodd" clip-rule="evenodd" d="M14.519 23.9408H20.5845C25.633 23.9408 29.6974 28.0052 29.6974 33.0538V54.0599C29.6974 59.1085 25.633 63.1729 20.5845 63.1729H14.519C9.47038 63.1729 5.40601 59.1085 5.40601 54.0599V33.0538C5.40601 28.0052 9.47038 23.9408 14.519 23.9408Z" fill="#038141"/>
<path fill-rule="evenodd" clip-rule="evenodd" d="M78.3096 23.9408H102.601V63.1729H78.3096V23.9408Z" fill="#EE8100"/>
<path d="M82.7023 52.179V34.3934H89.3406C90.8102 34.3934 92.0961 34.6272 93.1983 35.0948C94.3006 35.5624 95.2191 36.197 95.9539 36.9986C96.7054 37.8003 97.2648 38.7438 97.6322 39.8293C98.0163 40.8981 98.2084 42.0421 98.2084 43.2612C98.2084 44.6139 97.9996 45.8414 97.5821 46.9436C97.1646 48.0291 96.5634 48.9643 95.7785 49.7492C95.0103 50.5174 94.0751 51.1186 92.9729 51.5528C91.8874 51.9703 90.6766 52.179 89.3406 52.179H82.7023ZM94.025 43.2612C94.025 42.4763 93.9165 41.7665 93.6994 41.1319C93.499 40.4806 93.1984 39.9212 92.7976 39.4536C92.3967 38.986 91.9041 38.6269 91.3196 38.3764C90.7351 38.1259 90.0754 38.0007 89.3406 38.0007H86.8106V48.5718H89.3406C90.0921 48.5718 90.7601 48.4382 91.3446 48.171C91.9291 47.9038 92.4134 47.5364 92.7976 47.0688C93.1984 46.5845 93.499 46.0251 93.6994 45.3905C93.9165 44.7392 94.025 44.0294 94.025 43.2612Z" fill="white" fill-opacity="0.446064"/>
<path fill-rule="evenodd" clip-rule="evenodd" d="M52.7022 23.9408H78.3513V63.1729H52.7022V23.9408Z" fill="#FECB02"/>
<path fill-rule="evenodd" clip-rule="evenodd" d="M53.9472 23.9408H29.6558V63.1729H53.9472V23.9408Z" fill="#85BB2F"/>
<path d="M59.7272 42.9856C59.7272 41.9168 59.9276 40.8564 60.3284 39.8043C60.7292 38.7355 61.3137 37.7836 62.0819 36.9486C62.8501 36.1136 63.7853 35.4372 64.8875 34.9195C65.9897 34.4018 67.2422 34.1429 68.645 34.1429C70.315 34.1429 71.7596 34.502 72.9787 35.2201C74.2145 35.9382 75.133 36.8734 75.7342 38.0257L72.5779 40.2301C72.3775 39.7625 72.1187 39.3784 71.8013 39.0778C71.5007 38.7605 71.1667 38.51 70.7993 38.3263C70.4319 38.1259 70.0562 37.9923 69.6721 37.9255C69.288 37.842 68.9122 37.8003 68.5448 37.8003C67.7599 37.8003 67.0752 37.9589 66.4907 38.2762C65.9062 38.5935 65.4219 39.0027 65.0378 39.5037C64.6537 40.0047 64.3698 40.5725 64.1861 41.2071C64.0024 41.8417 63.9106 42.4846 63.9106 43.1359C63.9106 43.8373 64.0191 44.5137 64.2362 45.165C64.4533 45.8163 64.7623 46.3925 65.1631 46.8935C65.5806 47.3945 66.0732 47.7953 66.641 48.0959C67.2255 48.3798 67.8768 48.5217 68.5949 48.5217C68.9623 48.5217 69.3381 48.48 69.7222 48.3965C70.123 48.2963 70.4987 48.1543 70.8494 47.9706C71.2168 47.7702 71.5508 47.5197 71.8514 47.2191C72.1521 46.9018 72.3942 46.5177 72.5779 46.0668L75.9346 48.0458C75.6674 48.6971 75.2666 49.2816 74.7322 49.7993C74.2145 50.317 73.6133 50.7512 72.9286 51.1019C72.2439 51.4526 71.5174 51.7198 70.7492 51.9035C69.981 52.0872 69.2295 52.1791 68.4947 52.1791C67.2088 52.1791 66.0231 51.9202 64.9376 51.4025C63.8688 50.8681 62.9419 50.1667 62.157 49.2983C61.3888 48.4299 60.7876 47.4446 60.3534 46.3424C59.9359 45.2402 59.7272 44.1213 59.7272 42.9856Z" fill="white" fill-opacity="0.446064"/>
<path d="M50.4468 48.2377C50.4468 49.0059 50.2881 49.6739 49.9708 50.2417C49.6535 50.8095 49.2193 51.2855 48.6682 51.6696C48.1171 52.037 47.4741 52.3209 46.7393 52.5213C46.0045 52.705 45.228 52.7968 44.4097 52.7968H35.7423V35.0112H45.6371C46.255 35.0112 46.8145 35.1448 47.3155 35.412C47.8165 35.6792 48.2423 36.0299 48.593 36.4641C48.9437 36.8816 49.2109 37.3659 49.3947 37.9171C49.5951 38.4515 49.6953 39.0026 49.6953 39.5704C49.6953 40.4221 49.4782 41.2237 49.0439 41.9752C48.6264 42.7267 47.9918 43.2945 47.1401 43.6786C48.1588 43.9792 48.9604 44.5136 49.545 45.2818C50.1462 46.05 50.4468 47.0353 50.4468 48.2377ZM46.2634 47.4111C46.2634 46.86 46.1047 46.3924 45.7874 46.0083C45.4701 45.6241 45.0693 45.4321 44.585 45.4321H39.8505V49.3149H44.4097C44.9441 49.3149 45.3866 49.1395 45.7373 48.7888C46.088 48.4381 46.2634 47.9789 46.2634 47.4111ZM39.8505 38.5183V42.2006H43.8836C44.3345 42.2006 44.7353 42.0503 45.086 41.7497C45.4367 41.4491 45.6121 40.9815 45.6121 40.3469C45.6121 39.7624 45.4534 39.3115 45.1361 38.9942C44.8355 38.6769 44.4681 38.5183 44.0339 38.5183H39.8505Z" fill="white" fill-opacity="0.446064"/>
<path fill-rule="evenodd" clip-rule="evenodd" d="M40.6222 18.8438H43.2536C50.527 18.8438 56.3825 24.6992 56.3825 31.9726V54.9867C56.3825 62.26 50.527 68.1155 43.2536 68.1155H40.6222C33.3488 68.1155 27.4933 62.26 27.4933 54.9867V31.9726C27.4933 24.6992 33.3488 18.8438 40.6222 18.8438Z" fill="#0039FF" fill-opacity="0.629738" stroke="#EFECCA" stroke-width="3" stroke-linecap="round" stroke-linejoin="round"/>
<path d="M14.363 34.3934H18.0704L24.5584 52.179H20.35L18.9722 48.1961H13.4361L12.0834 52.179H7.875L14.363 34.3934ZM18.2959 45.3654L16.2167 39.0778L14.0874 45.3654H18.2959Z" fill="white" fill-opacity="0.446064"/>
<path fill-rule="evenodd" clip-rule="evenodd" d="M111.672 23.9408H117.738C122.786 23.9408 126.851 28.0052 126.851 33.0538V54.0599C126.851 59.1085 122.786 63.1729 117.738 63.1729H111.672C106.624 63.1729 102.559 59.1085 102.559 54.0599V33.0538C102.559 28.0052 106.624 23.9408 111.672 23.9408Z" fill="#E63E11"/>
<path d="M119.645 48.5718V52.179H107.145V34.3934H119.42V38.0007H111.253V41.4576H118.267V44.7892H111.253V48.5718H119.645Z" fill="white" fill-opacity="0.446064"/>
<path fill-rule="evenodd" clip-rule="evenodd" d="M40.6222 18.8438H43.2536C50.527 18.8438 56.3825 24.6992 56.3825 31.9726V54.9867C56.3825 62.26 50.527 68.1155 43.2536 68.1155H40.6222C33.3488 68.1155 27.4933 62.26 27.4933 54.9867V31.9726C27.4933 24.6992 33.3488 18.8438 40.6222 18.8438Z" fill="#85BB2F"/>
<path d="M51.7106 49.6736C51.7106 50.6864 51.5187 51.5671 51.135 52.3157C50.7512 53.0643 50.2261 53.6918 49.5596 54.1982C48.8931 54.6826 48.1156 55.0569 47.2269 55.3211C46.3383 55.5633 45.3991 55.6844 44.4095 55.6844H33.9274V32.2356H45.8939C46.6412 32.2356 47.3178 32.4117 47.9237 32.764C48.5296 33.1163 49.0446 33.5787 49.4687 34.1511C49.8929 34.7016 50.216 35.3401 50.4382 36.0667C50.6805 36.7712 50.8017 37.4978 50.8017 38.2464C50.8017 39.3693 50.5392 40.4262 50.014 41.417C49.5091 42.4078 48.7417 43.1564 47.7116 43.6628C48.9436 44.0591 49.9131 44.7637 50.62 45.7765C51.347 46.7893 51.7106 48.0883 51.7106 49.6736ZM46.6513 48.5837C46.6513 47.8572 46.4594 47.2407 46.0757 46.7343C45.692 46.2278 45.2073 45.9746 44.6216 45.9746H38.8958V51.0938H44.4095C45.0558 51.0938 45.591 50.8626 46.0151 50.4002C46.4392 49.9378 46.6513 49.3323 46.6513 48.5837ZM38.8958 36.8593V41.7142H43.7733C44.3186 41.7142 44.8033 41.5161 45.2274 41.1197C45.6516 40.7234 45.8636 40.1069 45.8636 39.2703C45.8636 38.4996 45.6718 37.9052 45.288 37.4868C44.9245 37.0685 44.4802 36.8593 43.9551 36.8593H38.8958Z" fill="white"/>
<path d="M10.4368 10.9167V16.0573H8.36023V7.0675H9.98093L14.172 12.3474V7.0675H16.2485V16.0573H14.5771L10.4368 10.9167Z" fill="#7D7D7D"/>
<path d="M21.842 14.2847C22.1965 14.2847 22.4962 14.2129 22.741 14.0694C22.9858 13.9175 23.1842 13.7191 23.3361 13.4743C23.488 13.2295 23.5936 12.951 23.6526 12.6387C23.7202 12.3179 23.7539 11.9929 23.7539 11.6637V7.0675H25.8305V11.6637C25.8305 12.2884 25.7503 12.8708 25.5899 13.411C25.4379 13.9513 25.1974 14.424 24.8682 14.8291C24.5474 15.2343 24.1338 15.5551 23.6273 15.7914C23.1293 16.0193 22.5342 16.1333 21.842 16.1333C21.1245 16.1333 20.5125 16.0109 20.0061 15.7661C19.4996 15.5213 19.086 15.1963 18.7652 14.7912C18.4529 14.3775 18.2208 13.9006 18.0688 13.3604C17.9253 12.8201 17.8536 12.2546 17.8536 11.6637V7.0675H19.9301V11.6637C19.9301 12.0098 19.9639 12.339 20.0314 12.6513C20.0989 12.9636 20.2087 13.2422 20.3606 13.487C20.5125 13.7318 20.7067 13.9259 20.943 14.0694C21.1878 14.2129 21.4875 14.2847 21.842 14.2847Z" fill="#7D7D7D"/>
<path d="M34.277 8.8908H31.5421V16.0573H29.4655V8.8908H26.718V7.0675H34.277V8.8908Z" fill="#7D7D7D"/>
<path d="M35.2911 16.0573V7.0675H39.3429C39.7649 7.0675 40.1532 7.15614 40.5078 7.3334C40.8707 7.51067 41.1831 7.7428 41.4447 8.0298C41.7064 8.3168 41.909 8.64178 42.0525 9.00475C42.2044 9.36772 42.2804 9.73491 42.2804 10.1063C42.2804 10.3849 42.2466 10.655 42.1791 10.9167C42.1116 11.1699 42.0145 11.4105 41.8879 11.6384C41.7613 11.8663 41.6051 12.0731 41.4194 12.2588C41.2421 12.4361 41.0396 12.588 40.8116 12.7146L42.7869 16.0573H40.4445L38.7225 13.1578H37.3677V16.0573H35.2911ZM37.3677 11.3472H39.2669C39.5117 11.3472 39.7227 11.2332 39.9 11.0053C40.0773 10.7689 40.1659 10.4693 40.1659 10.1063C40.1659 9.73491 40.0646 9.43947 39.862 9.22C39.6594 9.00053 39.44 8.8908 39.2036 8.8908H37.3677V11.3472Z" fill="#7D7D7D"/>
<path d="M43.7735 16.0573V7.0675H45.85V16.0573H43.7735Z" fill="#7D7D7D"/>
<path d="M47.4046 13.487V11.6637H51.3044V13.487H47.4046Z" fill="#7D7D7D"/>
<path d="M58.2432 9.70119C58.2179 9.66744 58.1292 9.60413 57.9773 9.51126C57.8254 9.41841 57.6355 9.32133 57.4075 9.22004C57.1796 9.11875 56.9306 9.03011 56.6605 8.95414C56.3904 8.87817 56.1203 8.84019 55.8502 8.84019C55.1073 8.84019 54.7359 9.0892 54.7359 9.58723C54.7359 9.73917 54.7739 9.86579 54.8499 9.96709C54.9343 10.0684 55.0525 10.1612 55.2044 10.2456C55.3648 10.3216 55.5632 10.3934 55.7995 10.4609C56.0359 10.5284 56.3102 10.6044 56.6225 10.6888C57.053 10.807 57.4413 10.9378 57.7874 11.0813C58.1335 11.2164 58.4247 11.3894 58.6611 11.6004C58.9059 11.803 59.0916 12.052 59.2182 12.3475C59.3532 12.6429 59.4208 12.9975 59.4208 13.4111C59.4208 13.9175 59.3237 14.348 59.1295 14.7026C58.9438 15.0487 58.6948 15.3314 58.3825 15.5509C58.0702 15.7619 57.7114 15.9181 57.3063 16.0194C56.9011 16.1122 56.4832 16.1587 56.0527 16.1587C55.7235 16.1587 55.3859 16.1333 55.0398 16.0827C54.6937 16.032 54.3561 15.9603 54.0269 15.8674C53.6977 15.7661 53.3769 15.648 53.0646 15.5129C52.7607 15.3779 52.4779 15.2217 52.2162 15.0444L53.1279 13.2338C53.1616 13.276 53.2714 13.3562 53.4571 13.4744C53.6428 13.5926 53.8707 13.7107 54.1408 13.8289C54.4194 13.9471 54.7275 14.0526 55.0651 14.1455C55.4028 14.2383 55.7446 14.2847 56.0907 14.2847C56.8251 14.2847 57.1923 14.061 57.1923 13.6137C57.1923 13.4448 57.1374 13.3056 57.0277 13.1958C56.918 13.0861 56.766 12.989 56.5719 12.9046C56.3777 12.8118 56.1456 12.7273 55.8755 12.6514C55.6138 12.5754 55.3268 12.491 55.0145 12.3981C54.6009 12.2715 54.2421 12.1365 53.9382 11.993C53.6344 11.841 53.3811 11.668 53.1785 11.4738C52.9844 11.2797 52.8367 11.056 52.7354 10.8028C52.6425 10.5495 52.5961 10.2541 52.5961 9.91643C52.5961 9.44373 52.6847 9.02589 52.862 8.66293C53.0393 8.29996 53.2798 7.99608 53.5837 7.75128C53.8876 7.49805 54.2379 7.30812 54.6346 7.18151C55.0398 7.05489 55.4661 6.99158 55.9135 6.99158C56.2258 6.99158 56.5339 7.02112 56.8378 7.08021C57.1417 7.1393 57.4329 7.21527 57.7114 7.30812C57.99 7.40098 58.2474 7.50649 58.4838 7.62466C58.7286 7.74284 58.9523 7.86102 59.1549 7.9792L58.2432 9.70119Z" fill="#7D7D7D"/>
<path d="M60.1201 11.4864C60.1201 10.9462 60.2214 10.4102 60.424 9.87839C60.6266 9.33816 60.922 8.85702 61.3103 8.43496C61.6986 8.0129 62.1713 7.67103 62.7284 7.40936C63.2855 7.14768 63.9186 7.01685 64.6277 7.01685C65.4718 7.01685 66.202 7.19833 66.8182 7.5613C67.4428 7.92427 67.9071 8.39697 68.211 8.97941L66.6156 10.0936C66.5143 9.85729 66.3835 9.66315 66.2231 9.5112C66.0711 9.35082 65.9023 9.22421 65.7166 9.13135C65.5309 9.03006 65.341 8.96253 65.1468 8.92877C64.9527 8.88657 64.7628 8.86547 64.577 8.86547C64.1803 8.86547 63.8342 8.94566 63.5388 9.10604C63.2433 9.26642 62.9986 9.47323 62.8044 9.72646C62.6103 9.9797 62.4668 10.2667 62.3739 10.5875C62.2811 10.9082 62.2346 11.2332 62.2346 11.5624C62.2346 11.9169 62.2895 12.2588 62.3992 12.588C62.509 12.9172 62.6651 13.2084 62.8677 13.4617C63.0787 13.7149 63.3278 13.9175 63.6148 14.0694C63.9102 14.2129 64.2394 14.2847 64.6024 14.2847C64.7881 14.2847 64.978 14.2636 65.1721 14.2214C65.3747 14.1707 65.5647 14.099 65.7419 14.0061C65.9276 13.9048 66.0964 13.7782 66.2484 13.6263C66.4003 13.4659 66.5227 13.2718 66.6156 13.0438L68.3122 14.0441C68.1772 14.3733 67.9746 14.6688 67.7045 14.9304C67.4428 15.1921 67.1389 15.4116 66.7928 15.5889C66.4468 15.7661 66.0796 15.9012 65.6913 15.994C65.303 16.0869 64.9231 16.1333 64.5517 16.1333C63.9018 16.1333 63.3024 16.0025 62.7538 15.7408C62.2135 15.4707 61.745 15.1161 61.3483 14.6772C60.96 14.2383 60.6561 13.7402 60.4367 13.1831C60.2256 12.626 60.1201 12.0604 60.1201 11.4864Z" fill="#7D7D7D"/>
<path d="M73.1831 16.1333C72.5162 16.1333 71.9084 16.0024 71.3598 15.7408C70.8111 15.4791 70.3426 15.1372 69.9543 14.7152C69.566 14.2847 69.2621 13.7951 69.0427 13.2464C68.8316 12.6977 68.7261 12.1322 68.7261 11.5497C68.7261 10.9589 68.8359 10.3891 69.0553 9.84041C69.2833 9.29173 69.5956 8.81059 69.9923 8.39697C70.3975 7.97491 70.8744 7.64149 71.4231 7.3967C71.9718 7.14346 72.5711 7.01685 73.221 7.01685C73.8879 7.01685 74.4957 7.14768 75.0443 7.40936C75.593 7.67103 76.0615 8.01712 76.4498 8.44762C76.8381 8.87812 77.1377 9.36771 77.3488 9.91638C77.5598 10.4651 77.6653 11.0222 77.6653 11.5877C77.6653 12.1786 77.5514 12.7484 77.3234 13.2971C77.104 13.8457 76.7959 14.3311 76.3991 14.7532C76.0024 15.1668 75.5297 15.5002 74.981 15.7534C74.4323 16.0067 73.833 16.1333 73.1831 16.1333ZM70.8406 11.5751C70.8406 11.9212 70.8913 12.2588 70.9926 12.588C71.0939 12.9088 71.2416 13.1958 71.4357 13.449C71.6383 13.7022 71.8873 13.9048 72.1828 14.0568C72.4782 14.2087 72.8159 14.2847 73.1957 14.2847C73.5925 14.2847 73.9385 14.2045 74.234 14.0441C74.5294 13.8837 74.7742 13.6769 74.9684 13.4237C75.1625 13.162 75.306 12.8708 75.3989 12.55C75.5002 12.2208 75.5508 11.8874 75.5508 11.5497C75.5508 11.2037 75.5002 10.8702 75.3989 10.5495C75.2976 10.2203 75.1456 9.93326 74.943 9.68847C74.7405 9.43523 74.4914 9.23687 74.196 9.09337C73.909 8.94143 73.5756 8.86546 73.1957 8.86546C72.799 8.86546 72.4529 8.94565 72.1575 9.10603C71.8705 9.25797 71.6257 9.46056 71.4231 9.71379C71.2289 9.96702 71.0812 10.2582 70.9799 10.5874C70.8871 10.9082 70.8406 11.2374 70.8406 11.5751Z" fill="#7D7D7D"/>
<path d="M78.8652 16.0573V7.0675H82.917C83.339 7.0675 83.7273 7.15614 84.0819 7.3334C84.4448 7.51067 84.7572 7.7428 85.0188 8.0298C85.2805 8.3168 85.4831 8.64178 85.6266 9.00475C85.7785 9.36772 85.8545 9.73491 85.8545 10.1063C85.8545 10.3849 85.8207 10.655 85.7532 10.9167C85.6857 11.1699 85.5886 11.4105 85.462 11.6384C85.3354 11.8663 85.1792 12.0731 84.9935 12.2588C84.8162 12.4361 84.6137 12.588 84.3857 12.7146L86.361 16.0573H84.0186L82.2966 13.1578H80.9418V16.0573H78.8652ZM80.9418 11.3472H82.841C83.0858 11.3472 83.2968 11.2332 83.4741 11.0053C83.6514 10.7689 83.74 10.4693 83.74 10.1063C83.74 9.73491 83.6387 9.43947 83.4361 9.22C83.2335 9.00053 83.0141 8.8908 82.7777 8.8908H80.9418V11.3472Z" fill="#7D7D7D"/>
<path d="M93.6658 14.234V16.0573H87.3476V7.0675H93.5518V8.8908H89.4241V10.6381H92.9694V12.3221H89.4241V14.234H93.6658Z" fill="#7D7D7D"/>
</g>
<defs>
<clipPath id="clip0_143_2061">
<rect width="130" height="70.4167" fill="white"/>
</clipPath>
</defs>
</svg>
