<svg width="130" height="70" viewBox="0 0 130 70" fill="none" xmlns="http://www.w3.org/2000/svg">
<path fill-rule="evenodd" clip-rule="evenodd" d="M12.0476 0H117.952C124.627 0 130 5.37325 130 12.0476V54.3688C130 61.0432 124.627 66.4165 117.952 66.4165H12.0476C5.37325 66.4165 0 61.0432 0 54.3688V12.0476C0 5.37325 5.37325 0 12.0476 0Z" fill="#EFECCA"/>
<path fill-rule="evenodd" clip-rule="evenodd" d="M19.4615 23.9408H43.753V63.1729H19.4615V23.9408Z" fill="#038141"/>
<path fill-rule="evenodd" clip-rule="evenodd" d="M90.2028 23.9408H114.494V63.1729H90.2028V23.9408Z" fill="#E63E11"/>
<path fill-rule="evenodd" clip-rule="evenodd" d="M14.519 23.9408H20.5845C25.633 23.9408 29.6974 28.0052 29.6974 33.0538V54.0599C29.6974 59.1085 25.633 63.1729 20.5845 63.1729H14.519C9.47038 63.1729 5.40601 59.1085 5.40601 54.0599V33.0538C5.40601 28.0052 9.47038 23.9408 14.519 23.9408Z" fill="#038141"/>
<path fill-rule="evenodd" clip-rule="evenodd" d="M78.3096 23.9408H102.601V63.1729H78.3096V23.9408Z" fill="#EE8100"/>
<path d="M84.2384 52.1791V34.3934H90.8767C92.3463 34.3934 93.6322 34.6272 94.7344 35.0948C95.8366 35.5624 96.7551 36.197 97.4899 36.9986C98.2414 37.8003 98.8009 38.7438 99.1683 39.8293C99.5524 40.8981 99.7445 42.0421 99.7445 43.2612C99.7445 44.6139 99.5357 45.8414 99.1182 46.9436C98.7007 48.0291 98.0995 48.9643 97.3146 49.7492C96.5464 50.5174 95.6112 51.1186 94.509 51.5528C93.4235 51.9703 92.2127 52.1791 90.8767 52.1791H84.2384ZM95.5611 43.2612C95.5611 42.4763 95.4525 41.7665 95.2354 41.1319C95.035 40.4806 94.7344 39.9212 94.3336 39.4536C93.9328 38.986 93.4402 38.6269 92.8557 38.3764C92.2712 38.1259 91.6115 38.0007 90.8767 38.0007H88.3466V48.5718H90.8767C91.6282 48.5718 92.2962 48.4382 92.8807 48.171C93.4652 47.9038 93.9495 47.5364 94.3336 47.0688C94.7344 46.5845 95.035 46.0251 95.2354 45.3905C95.4525 44.7392 95.5611 44.0294 95.5611 43.2612Z" fill="white" fill-opacity="0.446064"/>
<path fill-rule="evenodd" clip-rule="evenodd" d="M52.7022 23.9408H78.3513V63.1729H52.7022V23.9408Z" fill="#FECB02"/>
<path fill-rule="evenodd" clip-rule="evenodd" d="M53.9472 23.9408H29.6558V63.1729H53.9472V23.9408Z" fill="#85BB2F"/>
<path d="M57.423 43.7537C57.423 42.6849 57.6234 41.6245 58.0242 40.5723C58.425 39.5035 59.0095 38.5516 59.7778 37.7166C60.546 36.8816 61.4812 36.2053 62.5834 35.6876C63.6856 35.1699 64.9381 34.911 66.3409 34.911C68.0109 34.911 69.4555 35.2701 70.6746 35.9882C71.9104 36.7063 72.8289 37.6415 73.4301 38.7938L70.2738 40.9982C70.0734 40.5306 69.8145 40.1465 69.4972 39.8459C69.1966 39.5286 68.8626 39.2781 68.4952 39.0944C68.1278 38.894 67.7521 38.7604 67.368 38.6936C66.9838 38.6101 66.6081 38.5683 66.2407 38.5683C65.4558 38.5683 64.7711 38.727 64.1866 39.0443C63.6021 39.3616 63.1178 39.7707 62.7337 40.2717C62.3496 40.7727 62.0657 41.3406 61.882 41.9752C61.6983 42.6098 61.6064 43.2527 61.6064 43.904C61.6064 44.6054 61.715 45.2818 61.9321 45.9331C62.1492 46.5844 62.4581 47.1605 62.8589 47.6615C63.2764 48.1625 63.7691 48.5634 64.3369 48.864C64.9214 49.1479 65.5727 49.2898 66.2908 49.2898C66.6582 49.2898 67.0339 49.2481 67.4181 49.1646C67.8189 49.0644 68.1946 48.9224 68.5453 48.7387C68.9127 48.5383 69.2467 48.2878 69.5473 47.9872C69.8479 47.6699 70.0901 47.2858 70.2738 46.8349L73.6305 48.8138C73.3633 49.4652 72.9625 50.0497 72.4281 50.5674C71.9104 51.0851 71.3092 51.5193 70.6245 51.87C69.9398 52.2207 69.2133 52.4879 68.4451 52.6716C67.6769 52.8553 66.9254 52.9471 66.1906 52.9471C64.9047 52.9471 63.719 52.6883 62.6335 52.1706C61.5647 51.6362 60.6378 50.9348 59.8529 50.0664C59.0847 49.198 58.4835 48.2126 58.0493 47.1104C57.6318 46.0082 57.423 44.8893 57.423 43.7537Z" fill="white" fill-opacity="0.446064"/>
<path d="M46.6065 47.6199C46.6065 48.3881 46.4479 49.0561 46.1306 49.6239C45.8133 50.1917 45.3791 50.6677 44.828 51.0518C44.2769 51.4192 43.6339 51.7031 42.8991 51.9035C42.1643 52.0872 41.3878 52.1791 40.5695 52.1791H31.9021V34.3934H41.7969C42.4148 34.3934 42.9743 34.527 43.4753 34.7942C43.9763 35.0614 44.4021 35.4121 44.7528 35.8463C45.1035 36.2639 45.3707 36.7482 45.5544 37.2993C45.7548 37.8337 45.855 38.3848 45.855 38.9526C45.855 39.8043 45.6379 40.6059 45.2037 41.3574C44.7862 42.1089 44.1516 42.6767 43.2999 43.0608C44.3186 43.3614 45.1202 43.8958 45.7047 44.664C46.3059 45.4322 46.6065 46.4175 46.6065 47.6199ZM42.4232 46.7933C42.4232 46.2422 42.2645 45.7746 41.9472 45.3905C41.6299 45.0064 41.2291 44.8143 40.7448 44.8143H36.0103V48.6971H40.5695C41.1039 48.6971 41.5464 48.5217 41.8971 48.171C42.2478 47.8203 42.4232 47.3611 42.4232 46.7933ZM36.0103 37.9005V41.5828H40.0434C40.4943 41.5828 40.8951 41.4325 41.2458 41.1319C41.5965 40.8313 41.7719 40.3637 41.7719 39.7291C41.7719 39.1446 41.6132 38.6937 41.2959 38.3764C40.9953 38.0591 40.6279 37.9005 40.1937 37.9005H36.0103Z" fill="white" fill-opacity="0.446064"/>
<path fill-rule="evenodd" clip-rule="evenodd" d="M64.2111 18.8438H66.8425C74.1159 18.8438 79.9713 24.6992 79.9713 31.9726V54.9867C79.9713 62.26 74.1159 68.1155 66.8425 68.1155H64.2111C56.9377 68.1155 51.0822 62.26 51.0822 54.9867V31.9726C51.0822 24.6992 56.9377 18.8438 64.2111 18.8438Z" fill="#0039FF" fill-opacity="0.629738" stroke="#EFECCA" stroke-width="3" stroke-linecap="round" stroke-linejoin="round"/>
<path d="M14.363 34.3934H18.0704L24.5584 52.1791H20.35L18.9722 48.1961H13.4361L12.0834 52.1791H7.875L14.363 34.3934ZM18.2959 45.3654L16.2167 39.0778L14.0874 45.3654H18.2959Z" fill="white" fill-opacity="0.446064"/>
<path fill-rule="evenodd" clip-rule="evenodd" d="M111.672 23.9408H117.738C122.786 23.9408 126.851 28.0052 126.851 33.0538V54.0599C126.851 59.1085 122.786 63.1729 117.738 63.1729H111.672C106.624 63.1729 102.559 59.1085 102.559 54.0599V33.0538C102.559 28.0052 106.624 23.9408 111.672 23.9408Z" fill="#E63E11"/>
<path d="M119.645 48.5718V52.1791H107.145V34.3934H119.42V38.0007H111.253V41.4576H118.267V44.7893H111.253V48.5718H119.645Z" fill="white" fill-opacity="0.446064"/>
<path fill-rule="evenodd" clip-rule="evenodd" d="M64.2111 18.8438H66.8425C74.1159 18.8438 79.9713 24.6992 79.9713 31.9726V54.9867C79.9713 62.26 74.1159 68.1155 66.8425 68.1155H64.2111C56.9377 68.1155 51.0822 62.26 51.0822 54.9867V31.9726C51.0822 24.6992 56.9377 18.8438 64.2111 18.8438Z" fill="#FECB02"/>
<path d="M55.3931 43.7618C55.3931 42.3526 55.6355 40.9545 56.1202 39.5674C56.6049 38.1583 57.3118 36.9033 58.2409 35.8024C59.1699 34.7015 60.3009 33.8098 61.6339 33.1272C62.9669 32.4447 64.4816 32.1034 66.1781 32.1034C68.1978 32.1034 69.9448 32.5768 71.4192 33.5235C72.9137 34.4703 74.0245 35.7033 74.7516 37.2225L70.9345 40.1288C70.6921 39.5124 70.379 39.0059 69.9953 38.6096C69.6318 38.1913 69.2278 37.861 68.7835 37.6188C68.3392 37.3546 67.8848 37.1785 67.4202 37.0904C66.9557 36.9803 66.5013 36.9253 66.057 36.9253C65.1077 36.9253 64.2797 37.1344 63.5728 37.5528C62.8659 37.9711 62.2802 38.5105 61.8157 39.1711C61.3511 39.8316 61.0078 40.5802 60.7856 41.4169C60.5635 42.2536 60.4524 43.1012 60.4524 43.9599C60.4524 44.8847 60.5837 45.7764 60.8462 46.6351C61.1088 47.4938 61.4824 48.2534 61.9671 48.9139C62.4721 49.5744 63.0679 50.1029 63.7545 50.4992C64.4614 50.8735 65.2491 51.0606 66.1175 51.0606C66.5619 51.0606 67.0163 51.0056 67.4808 50.8955C67.9655 50.7634 68.42 50.5762 68.8441 50.334C69.2884 50.0698 69.6924 49.7396 70.0559 49.3432C70.4194 48.9249 70.7123 48.4185 70.9345 47.824L74.994 50.4331C74.6708 51.2918 74.1861 52.0624 73.5398 52.745C72.9137 53.4275 72.1866 54 71.3586 54.4624C70.5305 54.9247 69.652 55.277 68.7229 55.5192C67.7939 55.7614 66.885 55.8825 65.9964 55.8825C64.4412 55.8825 63.0073 55.5412 61.6945 54.8587C60.4019 54.1541 59.281 53.2294 58.3317 52.0844C57.4027 50.9395 56.6756 49.6405 56.1505 48.1873C55.6456 46.7341 55.3931 45.259 55.3931 43.7618Z" fill="white"/>
<path d="M10.4368 10.9167V16.0573H8.36023V7.0675H9.98093L14.172 12.3474V7.0675H16.2485V16.0573H14.5771L10.4368 10.9167Z" fill="#7D7D7D"/>
<path d="M21.842 14.2847C22.1965 14.2847 22.4962 14.2129 22.741 14.0694C22.9858 13.9175 23.1842 13.7191 23.3361 13.4743C23.488 13.2295 23.5936 12.951 23.6526 12.6387C23.7202 12.3179 23.7539 11.9929 23.7539 11.6637V7.0675H25.8305V11.6637C25.8305 12.2884 25.7503 12.8708 25.5899 13.411C25.4379 13.9513 25.1974 14.424 24.8682 14.8291C24.5474 15.2343 24.1338 15.5551 23.6273 15.7914C23.1293 16.0193 22.5342 16.1333 21.842 16.1333C21.1245 16.1333 20.5125 16.0109 20.0061 15.7661C19.4996 15.5213 19.086 15.1963 18.7652 14.7912C18.4529 14.3775 18.2208 13.9006 18.0688 13.3604C17.9253 12.8201 17.8536 12.2546 17.8536 11.6637V7.0675H19.9301V11.6637C19.9301 12.0098 19.9639 12.339 20.0314 12.6513C20.0989 12.9636 20.2087 13.2422 20.3606 13.487C20.5125 13.7318 20.7067 13.9259 20.943 14.0694C21.1878 14.2129 21.4875 14.2847 21.842 14.2847Z" fill="#7D7D7D"/>
<path d="M34.277 8.89079H31.5421V16.0573H29.4655V8.89079H26.718V7.0675H34.277V8.89079Z" fill="#7D7D7D"/>
<path d="M35.2911 16.0573V7.0675H39.3429C39.7649 7.0675 40.1532 7.15614 40.5078 7.3334C40.8707 7.51067 41.1831 7.7428 41.4447 8.0298C41.7064 8.3168 41.909 8.64178 42.0525 9.00475C42.2044 9.36772 42.2804 9.73491 42.2804 10.1063C42.2804 10.3849 42.2466 10.655 42.1791 10.9167C42.1116 11.1699 42.0145 11.4105 41.8879 11.6384C41.7613 11.8663 41.6051 12.0731 41.4194 12.2588C41.2421 12.4361 41.0396 12.588 40.8116 12.7146L42.7869 16.0573H40.4445L38.7225 13.1578H37.3677V16.0573H35.2911ZM37.3677 11.3472H39.2669C39.5117 11.3472 39.7227 11.2332 39.9 11.0053C40.0773 10.769 40.1659 10.4693 40.1659 10.1063C40.1659 9.73491 40.0646 9.43947 39.862 9.22C39.6594 9.00053 39.44 8.89079 39.2036 8.89079H37.3677V11.3472Z" fill="#7D7D7D"/>
<path d="M43.7735 16.0573V7.0675H45.85V16.0573H43.7735Z" fill="#7D7D7D"/>
<path d="M47.4046 13.487V11.6637H51.3044V13.487H47.4046Z" fill="#7D7D7D"/>
<path d="M58.2432 9.70118C58.2179 9.66743 58.1292 9.60412 57.9773 9.51126C57.8254 9.41841 57.6355 9.32133 57.4075 9.22004C57.1796 9.11875 56.9306 9.03011 56.6605 8.95414C56.3904 8.87817 56.1203 8.84019 55.8502 8.84019C55.1073 8.84019 54.7359 9.0892 54.7359 9.58723C54.7359 9.73917 54.7739 9.86579 54.8499 9.96708C54.9343 10.0684 55.0525 10.1612 55.2044 10.2456C55.3648 10.3216 55.5632 10.3934 55.7995 10.4609C56.0359 10.5284 56.3102 10.6044 56.6225 10.6888C57.053 10.807 57.4413 10.9378 57.7874 11.0813C58.1335 11.2164 58.4247 11.3894 58.6611 11.6004C58.9059 11.803 59.0916 12.052 59.2182 12.3475C59.3532 12.6429 59.4208 12.9975 59.4208 13.4111C59.4208 13.9175 59.3237 14.348 59.1295 14.7026C58.9438 15.0486 58.6948 15.3314 58.3825 15.5509C58.0702 15.7619 57.7114 15.9181 57.3063 16.0194C56.9011 16.1122 56.4832 16.1587 56.0527 16.1587C55.7235 16.1587 55.3859 16.1333 55.0398 16.0827C54.6937 16.032 54.3561 15.9603 54.0269 15.8674C53.6977 15.7661 53.3769 15.648 53.0646 15.5129C52.7607 15.3779 52.4779 15.2217 52.2162 15.0444L53.1279 13.2338C53.1616 13.276 53.2714 13.3562 53.4571 13.4744C53.6428 13.5926 53.8707 13.7107 54.1408 13.8289C54.4194 13.9471 54.7275 14.0526 55.0651 14.1454C55.4028 14.2383 55.7446 14.2847 56.0907 14.2847C56.8251 14.2847 57.1923 14.061 57.1923 13.6137C57.1923 13.4448 57.1374 13.3056 57.0277 13.1958C56.918 13.0861 56.766 12.989 56.5719 12.9046C56.3777 12.8117 56.1456 12.7273 55.8755 12.6514C55.6138 12.5754 55.3268 12.491 55.0145 12.3981C54.6009 12.2715 54.2421 12.1365 53.9382 11.993C53.6344 11.841 53.3811 11.668 53.1785 11.4738C52.9844 11.2797 52.8367 11.056 52.7354 10.8028C52.6425 10.5495 52.5961 10.2541 52.5961 9.91644C52.5961 9.44373 52.6847 9.0259 52.862 8.66293C53.0393 8.29995 53.2798 7.99607 53.5837 7.75128C53.8876 7.49805 54.2379 7.30812 54.6346 7.18151C55.0398 7.05489 55.4661 6.99158 55.9135 6.99158C56.2258 6.99158 56.5339 7.02112 56.8378 7.08021C57.1417 7.1393 57.4329 7.21527 57.7114 7.30812C57.99 7.40097 58.2474 7.50649 58.4838 7.62466C58.7286 7.74284 58.9523 7.86101 59.1549 7.97919L58.2432 9.70118Z" fill="#7D7D7D"/>
<path d="M60.1201 11.4864C60.1201 10.9462 60.2214 10.4102 60.424 9.87839C60.6266 9.33816 60.922 8.85702 61.3103 8.43496C61.6986 8.0129 62.1713 7.67103 62.7284 7.40935C63.2855 7.14768 63.9186 7.01685 64.6277 7.01685C65.4718 7.01685 66.202 7.19833 66.8182 7.5613C67.4428 7.92427 67.9071 8.39697 68.211 8.97941L66.6156 10.0936C66.5143 9.85729 66.3835 9.66315 66.2231 9.5112C66.0711 9.35082 65.9023 9.22421 65.7166 9.13135C65.5309 9.03006 65.341 8.96253 65.1468 8.92877C64.9527 8.88657 64.7628 8.86547 64.577 8.86547C64.1803 8.86547 63.8342 8.94566 63.5388 9.10604C63.2433 9.26642 62.9986 9.47323 62.8044 9.72646C62.6103 9.9797 62.4668 10.2667 62.3739 10.5875C62.2811 10.9082 62.2346 11.2332 62.2346 11.5624C62.2346 11.9169 62.2895 12.2588 62.3992 12.588C62.509 12.9172 62.6651 13.2084 62.8677 13.4617C63.0787 13.7149 63.3278 13.9175 63.6148 14.0694C63.9102 14.2129 64.2394 14.2847 64.6024 14.2847C64.7881 14.2847 64.978 14.2636 65.1721 14.2214C65.3747 14.1707 65.5647 14.099 65.7419 14.0061C65.9276 13.9048 66.0964 13.7782 66.2484 13.6263C66.4003 13.4659 66.5227 13.2718 66.6156 13.0439L68.3123 14.0441C68.1772 14.3733 67.9746 14.6688 67.7045 14.9304C67.4428 15.1921 67.1389 15.4116 66.7928 15.5889C66.4468 15.7661 66.0796 15.9012 65.6913 15.994C65.303 16.0869 64.9231 16.1333 64.5517 16.1333C63.9018 16.1333 63.3024 16.0025 62.7538 15.7408C62.2135 15.4707 61.745 15.1162 61.3483 14.6772C60.96 14.2383 60.6561 13.7402 60.4367 13.1831C60.2256 12.626 60.1201 12.0604 60.1201 11.4864Z" fill="#7D7D7D"/>
<path d="M73.1831 16.1333C72.5162 16.1333 71.9084 16.0024 71.3598 15.7408C70.8111 15.4791 70.3426 15.1372 69.9543 14.7152C69.566 14.2847 69.2621 13.7951 69.0427 13.2464C68.8316 12.6977 68.7261 12.1322 68.7261 11.5497C68.7261 10.9589 68.8359 10.3891 69.0553 9.84041C69.2833 9.29173 69.5956 8.81059 69.9923 8.39697C70.3975 7.97492 70.8744 7.64149 71.4231 7.3967C71.9718 7.14346 72.5711 7.01685 73.221 7.01685C73.8879 7.01685 74.4957 7.14768 75.0443 7.40935C75.593 7.67103 76.0615 8.01712 76.4498 8.44762C76.8381 8.87811 77.1377 9.3677 77.3488 9.91638C77.5598 10.4651 77.6653 11.0222 77.6653 11.5877C77.6653 12.1786 77.5514 12.7484 77.3234 13.2971C77.104 13.8457 76.7959 14.3311 76.3991 14.7532C76.0024 15.1668 75.5297 15.5002 74.981 15.7534C74.4323 16.0067 73.833 16.1333 73.1831 16.1333ZM70.8406 11.5751C70.8406 11.9212 70.8913 12.2588 70.9926 12.588C71.0939 12.9088 71.2416 13.1958 71.4357 13.449C71.6383 13.7022 71.8873 13.9048 72.1828 14.0568C72.4782 14.2087 72.8159 14.2847 73.1957 14.2847C73.5925 14.2847 73.9385 14.2045 74.234 14.0441C74.5294 13.8837 74.7742 13.6769 74.9684 13.4237C75.1625 13.162 75.306 12.8708 75.3989 12.55C75.5002 12.2208 75.5508 11.8874 75.5508 11.5497C75.5508 11.2037 75.5002 10.8702 75.3989 10.5495C75.2976 10.2203 75.1456 9.93326 74.943 9.68847C74.7405 9.43523 74.4914 9.23687 74.196 9.09336C73.909 8.94143 73.5756 8.86546 73.1957 8.86546C72.799 8.86546 72.4529 8.94565 72.1575 9.10603C71.8705 9.25797 71.6257 9.46056 71.4231 9.71379C71.2289 9.96702 71.0812 10.2582 70.9799 10.5875C70.8871 10.9082 70.8406 11.2374 70.8406 11.5751Z" fill="#7D7D7D"/>
<path d="M78.8652 16.0573V7.0675H82.917C83.339 7.0675 83.7273 7.15614 84.0819 7.3334C84.4448 7.51067 84.7572 7.7428 85.0188 8.0298C85.2805 8.3168 85.4831 8.64178 85.6266 9.00475C85.7785 9.36772 85.8545 9.73491 85.8545 10.1063C85.8545 10.3849 85.8207 10.655 85.7532 10.9167C85.6857 11.1699 85.5886 11.4105 85.462 11.6384C85.3354 11.8663 85.1792 12.0731 84.9935 12.2588C84.8162 12.4361 84.6137 12.588 84.3857 12.7146L86.361 16.0573H84.0186L82.2966 13.1578H80.9418V16.0573H78.8652ZM80.9418 11.3472H82.841C83.0858 11.3472 83.2968 11.2332 83.4741 11.0053C83.6514 10.769 83.74 10.4693 83.74 10.1063C83.74 9.73491 83.6387 9.43947 83.4361 9.22C83.2335 9.00053 83.0141 8.89079 82.7777 8.89079H80.9418V11.3472Z" fill="#7D7D7D"/>
<path d="M93.6658 14.234V16.0573H87.3476V7.0675H93.5518V8.89079H89.4241V10.6381H92.9694V12.3221H89.4241V14.234H93.6658Z" fill="#7D7D7D"/>
</svg>
