<svg width="35" height="20" viewBox="0 0 35 20" fill="none" xmlns="http://www.w3.org/2000/svg">
<g clip-path="url(#clip0_137_561)">
<path fill-rule="evenodd" clip-rule="evenodd" d="M17.5 3.93353C18.8384 3.92874 20.137 4.38816 21.1746 5.23351C22.2122 6.07886 22.9246 7.25783 23.1904 8.56954C23.4562 9.88125 23.2589 11.2445 22.6322 12.4271C22.0056 13.6097 20.9882 14.5384 19.7536 15.055C18.5189 15.5716 17.1433 15.6441 15.8612 15.2602C14.5791 14.8763 13.4698 14.0597 12.7222 12.9495C11.9747 11.8394 11.6352 10.5044 11.7616 9.17198C11.8881 7.8396 12.4725 6.59226 13.4155 5.64251C13.9501 5.10253 14.5862 4.67356 15.2872 4.38027C15.9881 4.08698 16.7401 3.93516 17.5 3.93353ZM0.299069 8.91807C1.20501 7.81743 2.18725 6.78189 3.23852 5.81911C7.33154 2.09352 11.9857 0.102555 16.805 1.64006e-05C21.6243 -0.102523 26.5149 1.68621 31.1462 5.50295C32.4165 6.55596 33.6101 7.69818 34.718 8.92092C34.8901 9.11478 34.991 9.36155 35.004 9.62048C35.0169 9.8794 34.9412 10.135 34.7892 10.3451C33.5567 12.1019 32.0819 13.6755 30.4085 15.0191C26.9131 17.8439 22.5609 19.3957 18.0668 19.4198C13.5403 19.408 9.13142 17.9775 5.4602 15.3296C3.49626 13.9346 1.74032 12.2679 0.244951 10.3792C0.0778605 10.1694 -0.00854785 9.90668 0.00137981 9.63863C0.0113075 9.37059 0.116914 9.11496 0.299069 8.91807ZM4.75097 7.49391C3.99117 8.18429 3.26949 8.91549 2.58911 9.68426C3.81584 11.1195 5.21441 12.3985 6.75333 13.4924C10.0446 15.8704 13.9978 17.1583 18.0583 17.1753C22.0426 17.1508 25.9004 15.7728 28.9986 13.2674C30.2759 12.2427 31.4236 11.0662 32.4166 9.76401C31.5649 8.87045 30.6614 8.0278 29.7107 7.24041C25.5094 3.77687 21.1003 2.15903 16.8363 2.24733C12.5724 2.33563 8.43953 4.12437 4.75097 7.48252V7.49391ZM16.0559 5.27508C16.4993 5.27508 16.9326 5.40655 17.3013 5.65286C17.6699 5.89918 17.9572 6.24927 18.1269 6.65887C18.2966 7.06847 18.3409 7.51919 18.2544 7.95402C18.168 8.38885 17.9545 8.78827 17.641 9.10176C17.3275 9.41526 16.9281 9.62875 16.4932 9.71525C16.0584 9.80174 15.6077 9.75735 15.1981 9.58768C14.7885 9.41802 14.4384 9.13071 14.1921 8.76208C13.9458 8.39344 13.8143 7.96005 13.8143 7.5167C13.8139 7.22222 13.8716 6.93056 13.9842 6.65843C14.0967 6.38629 14.2618 6.13903 14.47 5.9308C14.6782 5.72257 14.9255 5.55747 15.1976 5.44495C15.4698 5.33243 15.7614 5.27471 16.0559 5.27508Z" fill="#6D4C41"/>
</g>
<defs>
<clipPath id="clip0_137_561">
<rect width="35" height="19.4198" fill="white"/>
</clipPath>
</defs>
</svg>
