<svg width="35" height="23" viewBox="0 0 35 23" fill="none" xmlns="http://www.w3.org/2000/svg">
<path d="M0.272024 10.6317C1.10431 9.62679 1.97561 8.71219 2.87853 7.89016C6.96161 4.17394 11.8098 2.18866 16.808 2.08897C18.6768 2.05165 20.5635 2.27838 22.4355 2.77712L20.7538 4.45878C19.449 4.19787 18.1424 4.08166 16.8476 4.10758C12.3441 4.19758 7.95653 6.00371 4.24032 9.38639C3.57837 9.98881 2.94091 10.6368 2.33137 11.3289C3.49092 12.6736 4.78093 13.8358 6.16294 14.8116C7.01402 15.4129 7.89957 15.9432 8.81075 16.4027L7.31196 17.9015C6.51955 17.4731 5.74709 16.9946 4.99911 16.4662C3.24938 15.2306 1.63438 13.7235 0.219615 11.9516C-0.0962648 11.5537 -0.0649332 10.9917 0.272024 10.6317ZM27.3525 0L29.031 1.67852L8.00923 22.7009L6.33042 21.0218L27.3525 0ZM27.8339 5.01562C29.0937 5.7354 30.331 6.59018 31.535 7.58311C32.6393 8.49344 33.7097 9.51229 34.7365 10.6408C35.0678 11.0045 35.084 11.544 34.8009 11.9245C33.6243 13.5863 32.2727 15.0053 30.7936 16.1865C27.093 19.1405 22.5981 20.5949 18.0448 20.6154C16.3033 20.6231 15.254 19.7207 13.5373 19.312L14.547 18.3028C15.7048 18.5036 16.8732 18.6016 18.0368 18.5965C22.1444 18.5782 26.1981 17.2669 29.5343 14.6031C30.6731 13.6942 31.7293 12.6266 32.6755 11.3976C31.8817 10.5702 31.0727 9.81876 30.2521 9.14229C28.9832 8.09609 27.6767 7.2171 26.3479 6.50103L27.8339 5.01562ZM17.5002 5.16773C18.2589 5.16773 18.9858 5.30473 19.658 5.55481L18.0376 7.17523C17.8613 7.15273 17.6822 7.14133 17.5004 7.14133C16.338 7.14133 15.2859 7.61245 14.5242 8.37409C13.7626 9.13573 13.2915 10.1882 13.2915 11.3506C13.2915 11.5326 13.3029 11.7118 13.3254 11.8875L11.7049 13.5085C11.4546 12.8366 11.3179 12.1094 11.3179 11.3506C11.3179 9.64302 12.01 8.0978 13.1288 6.97869C14.2474 5.85959 15.7929 5.16773 17.5002 5.16773ZM23.3885 9.46101C23.5793 10.0563 23.6825 10.6915 23.6825 11.3506C23.6825 13.0579 22.9903 14.6034 21.8718 15.7222C20.7527 16.841 19.2072 17.5329 17.5002 17.5329C16.8413 17.5329 16.2064 17.4301 15.6109 17.2387L17.2954 15.5542C17.3631 15.5576 17.4315 15.5593 17.5002 15.5593C18.6626 15.5593 19.7147 15.0887 20.4764 14.3271C21.238 13.5655 21.7091 12.513 21.7091 11.3509C21.7091 11.2822 21.7074 11.2142 21.704 11.1458L23.3885 9.46101Z" fill="#6D4C41"/>
</svg>
