<svg width="25" height="25" viewBox="0 0 25 25" fill="none" xmlns="http://www.w3.org/2000/svg">
<path d="M12.5 2.34375C6.8999 2.34375 2.34375 6.8999 2.34375 12.5C2.34375 18.1001 6.8999 22.6562 12.5 22.6562C18.1001 22.6562 22.6562 18.1001 22.6562 12.5C22.6562 6.8999 18.1001 2.34375 12.5 2.34375ZM18.3594 11.2378C18.3594 11.3494 18.315 11.4565 18.2361 11.5354C18.1572 11.6143 18.0501 11.6587 17.9385 11.6587H15.0312C14.948 11.6588 14.8665 11.6342 14.7973 11.588C14.728 11.5418 14.674 11.476 14.6421 11.3991C14.6103 11.3222 14.602 11.2375 14.6183 11.1558C14.6347 11.0742 14.6749 10.9992 14.7339 10.9404L15.8164 9.85791L15.543 9.54004C15.0539 9.03228 14.4466 8.65364 13.7754 8.43796C13.1042 8.22228 12.39 8.17629 11.6966 8.30409C11.0033 8.4319 10.3525 8.72952 9.80226 9.17035C9.25208 9.61118 8.8197 10.1815 8.5438 10.8303C8.26789 11.479 8.15705 12.1861 8.22119 12.8882C8.28533 13.5902 8.52245 14.2655 8.91135 14.8535C9.30024 15.4416 9.8288 15.9241 10.4498 16.2579C11.0707 16.5918 11.7647 16.7665 12.4697 16.7666C13.352 16.7658 14.2125 16.492 14.933 15.9827C15.6535 15.4735 16.1989 14.7538 16.4941 13.9224C16.5283 13.8255 16.5813 13.7364 16.65 13.66C16.7186 13.5837 16.8016 13.5216 16.8943 13.4773C16.9869 13.433 17.0874 13.4074 17.19 13.402C17.2925 13.3965 17.3951 13.4113 17.4919 13.4456C17.5888 13.4798 17.6779 13.5327 17.7543 13.6014C17.8306 13.67 17.8927 13.7531 17.937 13.8457C17.9813 13.9384 18.0069 14.0388 18.0123 14.1414C18.0178 14.2439 18.003 14.3465 17.9688 14.4434C17.6127 15.4511 16.9864 16.3416 16.1584 17.0174C15.3305 17.6933 14.3326 18.1285 13.274 18.2756C12.2154 18.4227 11.1367 18.2759 10.1558 17.8513C9.17497 17.4268 8.3297 16.7407 7.7124 15.8682C7.0951 14.9957 6.72952 13.9703 6.65563 12.9041C6.58173 11.8378 6.80236 10.7718 7.2934 9.82247C7.78443 8.87314 8.52698 8.07707 9.43989 7.52126C10.3528 6.96544 11.4009 6.67127 12.4697 6.6709C13.2585 6.66788 14.0396 6.82641 14.7648 7.1367C15.49 7.44698 16.144 7.90247 16.6865 8.4751L16.7139 8.50537L16.9243 8.74951L17.6411 8.03271C17.6793 7.99366 17.7249 7.96258 17.7751 7.94129C17.8254 7.92 17.8795 7.90892 17.9341 7.90869C17.9897 7.90824 18.0448 7.91881 18.0962 7.9398C18.1477 7.96078 18.1945 7.99177 18.2339 8.03096C18.2733 8.07014 18.3046 8.11676 18.3259 8.1681C18.3472 8.21944 18.358 8.2745 18.3579 8.33008L18.3594 11.2378Z" fill="#6D4C41"/>
</svg>
