<svg width="15" height="15" viewBox="0 0 15 15" fill="none" xmlns="http://www.w3.org/2000/svg">
<circle cx="8" cy="7" r="5" fill="#EFECCA"/>
<path d="M7.5 0C3.3645 0 0 3.3645 0 7.5C0 11.6355 3.3645 15 7.5 15C11.6355 15 15 11.6355 15 7.5C15 3.3645 11.6355 0 7.5 0ZM11.46 5.415L6.96037 9.96037C6.8505 10.0702 6.7065 10.125 6.5625 10.125C6.4185 10.125 6.2745 10.0702 6.16462 9.96037L3.54001 7.29C3.32026 7.07025 3.32026 6.71172 3.54001 6.49197C3.75976 6.27222 4.04026 6.20022 4.26001 6.41997L6.56212 8.76712L10.74 4.61997C10.9598 4.40022 11.2403 4.39302 11.46 4.61277C11.6798 4.83252 11.6794 5.19525 11.46 5.415Z" fill="#84CF3D"/>
</svg>
