<svg width="32" height="32" viewBox="0 0 32 32" fill="none" xmlns="http://www.w3.org/2000/svg">
<path d="M29.084 28.5606C29.084 28.5606 17.4413 26.0108 17.052 25.8892L17.0267 25.8841L17.028 25.8816C14.5987 25.1097 12.7507 23.1462 12.192 20.718L11.928 21.8112C11.588 23.5993 9.96269 24.96 8.00002 24.96C5.7907 24.96 4.00002 23.2409 4.00002 21.12C4.00002 19.3894 5.20136 17.943 6.84136 17.463L12.7467 16.1318C12.784 16.0576 12.8134 15.9795 12.8534 15.9078C12.5774 15.9654 12.2934 16 12 16C10.2614 16 8.13869 14.7366 8.02135 12.3571C5.99469 10.5267 4.25069 10.24 2.66669 10.24V8.31995C4.36269 8.31995 6.34669 8.60027 8.54402 10.2592C8.81869 9.79963 9.18402 9.40027 9.62669 9.08539C8.00668 7.26523 8.00002 4.67067 8.00002 3.25115L10 3.19995V3.25115C10 5.16219 10.1533 7.24475 11.7347 8.34555C11.824 8.34043 11.9094 8.31995 12 8.31995C14.2093 8.31995 16 10.039 16 12.16C16 12.4416 15.964 12.7142 15.904 12.9792C15.98 12.9408 16.0614 12.9126 16.1373 12.8768L17.5254 7.20251C18.0267 5.63067 19.532 4.47995 21.3334 4.47995C23.5426 4.47995 25.3334 6.19899 25.3334 8.31995C25.3334 10.1081 24.0546 11.5968 22.332 12.0243L20.908 12.343C23.5934 12.9113 25.7293 14.8774 26.4214 17.4195L29.084 28.5606Z" fill="#FBC02D"/>
<path opacity="0.5" d="M24 27.4431L27.9187 23.6812L28.4467 25.8892L26.3015 27.9487C25.5975 27.7951 24.8107 27.6211 24 27.4431ZM20.8787 26.7532L27.2013 20.6835L26.6733 18.4755L18.584 26.2412C19.224 26.3859 20.0107 26.5612 20.8787 26.7532ZM15.7214 25.3043L25.6841 15.7401C25.3481 15.1731 24.94 14.656 24.46 14.2003L14.112 24.1343C14.5867 24.5939 15.132 24.9817 15.7214 25.3043ZM11.7347 8.34555C10.1534 7.24475 10 5.16347 10 3.25115V3.19995L8.00002 3.25115C8.00002 4.67195 8.0067 7.26523 9.62669 9.08539C10.224 8.65915 10.9467 8.39675 11.7347 8.34555ZM8.00002 12.16C8.00002 11.4649 8.20802 10.8211 8.54402 10.2592C6.34669 8.60027 4.36269 8.31995 2.66669 8.31995V10.24C4.25069 10.24 5.99469 10.5267 8.02135 12.3571C8.01869 12.2892 8.00002 12.2304 8.00002 12.16Z" fill="black"/>
<path opacity="0.4" d="M11.928 21.8086C11.588 23.5993 9.96267 24.96 8 24.96C5.79068 24.96 4 23.2409 4 21.12C4 19.3894 5.20134 17.943 6.84134 17.463L13.3333 16L11.928 21.8086ZM25.3333 8.31998C25.3333 6.19902 23.5426 4.47998 21.3333 4.47998C19.532 4.47998 18.0267 5.6307 17.5253 7.20254L16 13.44L22.3319 12.0243C24.0546 11.5968 25.3333 10.1081 25.3333 8.31998Z" fill="white"/>
</svg>
