<svg width="110" height="110" viewBox="0 0 110 110" fill="none" xmlns="http://www.w3.org/2000/svg">
<path d="M35.4062 96.25V54.0834C31.434 53.2431 28.0538 51.2379 25.2656 48.0677C22.4774 44.8976 21.0833 41.0973 21.0833 36.6667V4.58337H27.9583V36.6667H35.4062V4.58337H42.2812V36.6667H49.7292V4.58337H56.6042V36.6667C56.6042 41.0973 55.2101 44.8976 52.4219 48.0677C49.6337 51.2379 46.2535 53.2431 42.2812 54.0834V96.25H35.4062ZM82.9583 96.25V59.5834H69.7812V24.6355C69.7812 18.6007 71.6146 13.75 75.2812 10.0834C78.9479 6.41671 83.7986 4.58337 89.8333 4.58337V96.25H82.9583Z" fill="#6D4C41"/>
</svg>
