<svg width="40" height="40" viewBox="0 0 40 40" fill="none" xmlns="http://www.w3.org/2000/svg">
<path d="M7.89375 3.80061L10.8256 36.7681H29.1487L32.0806 3.80061H7.89375ZM7.89375 2.38999H32.0812C32.2768 2.38975 32.4703 2.43024 32.6494 2.50888C32.8284 2.58751 32.9892 2.70257 33.1213 2.84673C33.2535 2.99089 33.3542 3.16099 33.417 3.3462C33.4799 3.53141 33.5034 3.72767 33.4862 3.92249L30.5537 36.89C30.5223 37.2408 30.3607 37.5672 30.1007 37.8048C29.8406 38.0424 29.501 38.174 29.1487 38.1737H10.8256C10.473 38.1745 10.133 38.0431 9.87253 37.8055C9.61208 37.5678 9.45017 37.2412 9.41875 36.89L6.48937 3.92499C6.47183 3.73002 6.49511 3.53354 6.55773 3.34808C6.62035 3.16261 6.72094 2.99223 6.85307 2.8478C6.98521 2.70338 7.146 2.58808 7.32518 2.50925C7.50435 2.43042 7.698 2.38981 7.89375 2.38999Z" fill="#2E2E2E" fill-opacity="0.75"/>
<path d="M10.6338 17.5762C10.6338 17.5762 12.9294 16.0444 16.7219 16.7631C20.5144 17.4819 20.5431 18.1862 24.0275 18.5831C27.5119 18.98 29.5344 17.5756 29.5344 17.5756L27.9794 35.3975H12.0656L10.6338 17.5762Z" fill="#3D74BF"/>
</svg>
