<svg width="96" height="233" viewBox="0 0 96 233" fill="none" xmlns="http://www.w3.org/2000/svg">
<path fill-rule="evenodd" clip-rule="evenodd" d="M274.077 60.7133C206.617 58.9176 135.606 132.179 81.2689 89.7364C26.7413 47.1458 40.4119 -43.5781 49.418 -114.765C57.0835 -175.354 82.7709 -231.541 126.892 -270.876C167.468 -307.051 221.993 -304.616 274.077 -315.056C348.118 -329.896 427.144 -387.937 489.854 -343.626C555.069 -297.544 559.97 -197.839 557.53 -114.765C555.175 -34.6023 542.118 59.8365 476.813 100.265C415.122 138.457 345.486 62.6141 274.077 60.7133Z" fill="#6D4C41" fill-opacity="0.75"/>
<path fill-rule="evenodd" clip-rule="evenodd" d="M340.217 -427.711C408.42 -421.626 413.674 -313.961 467.876 -272.118C514.749 -235.932 596.646 -255.046 628.522 -205.142C660.05 -155.782 622.547 -91.7126 620.498 -33.179C618.138 34.2646 656.076 111.14 615.566 165.114C575.331 218.721 493.845 214.114 427.538 223.911C369.268 232.522 308.903 241.034 254.494 218.468C202.617 196.952 176.993 141.939 136.376 103.152C90.4035 59.2505 0.0754995 39.0059 4.8873e-05 -24.5615C-0.079412 -91.5075 96.7568 -112.517 136.056 -166.715C164.655 -206.157 167.01 -257.911 197.028 -296.285C237.77 -348.369 274.352 -433.588 340.217 -427.711Z" fill="#6D4C41"/>
</svg>
