<svg width="50" height="50" viewBox="0 0 50 50" fill="none" xmlns="http://www.w3.org/2000/svg">
<path d="M25 4.16666C13.5125 4.16666 4.16663 13.5125 4.16663 25C4.16663 36.4875 13.5125 45.8333 25 45.8333C36.4875 45.8333 45.8333 36.4875 45.8333 25C45.8333 13.5125 36.4875 4.16666 25 4.16666ZM36 19.2083L23.501 31.8344C23.1958 32.1396 22.7958 32.2917 22.3958 32.2917C21.9958 32.2917 21.5958 32.1396 21.2906 31.8344L14 24.4167C13.3896 23.8062 13.3896 22.8103 14 22.1999C14.6104 21.5895 15.3896 21.3895 16 21.9999L22.3948 28.5198L34 16.9999C34.6104 16.3895 35.3896 16.3695 36 16.9799C36.6104 17.5903 36.6094 18.5979 36 19.2083Z" fill="#84CF3D" stroke="#EFECCA" stroke-width="0.5"/>
</svg>
