<svg width="75" height="75" viewBox="0 0 75 75" fill="none" xmlns="http://www.w3.org/2000/svg">
<g clip-path="url(#clip0_1206_1115)">
<g style="mix-blend-mode:darken">
<path d="M65.0662 0H9.93377C4.4475 0 0 4.4475 0 9.93377V65.0662C0 70.5525 4.4475 75 9.93377 75H65.0662C70.5525 75 75 70.5525 75 65.0662V9.93377C75 4.4475 70.5525 0 65.0662 0Z" fill="#A2CB6E" fill-opacity="0.26"/>
</g>
<path d="M24.3434 35.1295V46.6887H21.8994V37.4492H21.8317L19.1846 39.1086V36.9412L22.0462 35.1295H24.3434ZM31.527 46.8468C30.9325 46.843 30.3587 46.7433 29.8055 46.5476C29.2562 46.352 28.7632 46.034 28.3267 45.5938C27.8903 45.1535 27.5441 44.5703 27.2882 43.8441C27.0361 43.1178 26.9101 42.2261 26.9101 41.1687C26.9138 40.1979 27.0248 39.3306 27.243 38.5667C27.4651 37.7992 27.7812 37.1482 28.1913 36.6139C28.6052 36.0796 29.1 35.6732 29.6757 35.3947C30.2514 35.1125 30.8967 34.9714 31.6117 34.9714C32.383 34.9714 33.0641 35.1219 33.6549 35.4229C34.2456 35.7202 34.7198 36.1247 35.0772 36.6365C35.4384 37.1482 35.6567 37.722 35.7319 38.3579H33.3219C33.2278 37.9553 33.0302 37.6392 32.7292 37.4097C32.4282 37.1802 32.0557 37.0654 31.6117 37.0654C30.8591 37.0654 30.2872 37.3928 29.8958 38.0475C29.5082 38.7022 29.3107 39.5921 29.3032 40.7172H29.3822C29.5553 40.3748 29.7886 40.0832 30.0821 39.8423C30.3793 39.5978 30.7161 39.4115 31.0924 39.2836C31.4725 39.1519 31.8732 39.086 32.2946 39.086C32.9795 39.086 33.589 39.2478 34.1233 39.5714C34.6577 39.8913 35.0791 40.3315 35.3876 40.8921C35.6962 41.4528 35.8505 42.0944 35.8505 42.8168C35.8505 43.5995 35.668 44.2956 35.303 44.9052C34.9417 45.5148 34.4356 45.9926 33.7847 46.3388C33.1375 46.6812 32.3849 46.8506 31.527 46.8468ZM31.5157 44.9277C31.892 44.9277 32.2288 44.8374 32.526 44.6568C32.8233 44.4762 33.0566 44.2316 33.2259 43.9231C33.3952 43.6145 33.4799 43.2683 33.4799 42.8845C33.4799 42.5008 33.3952 42.1565 33.2259 41.8517C33.0604 41.5469 32.8308 41.3042 32.5373 41.1236C32.2438 40.9429 31.9089 40.8526 31.5326 40.8526C31.2504 40.8526 30.9889 40.9053 30.7481 41.0107C30.5111 41.116 30.3022 41.2628 30.1216 41.4509C29.9447 41.6391 29.8055 41.8573 29.7039 42.1056C29.6023 42.3503 29.5516 42.6118 29.5516 42.8902C29.5516 43.2627 29.6362 43.6033 29.8055 43.9118C29.9786 44.2203 30.2119 44.4668 30.5054 44.6512C30.8027 44.8355 31.1394 44.9277 31.5157 44.9277ZM41.8051 46.8468C41.0074 46.8468 40.2962 46.7 39.6716 46.4065C39.0507 46.113 38.5578 45.7085 38.1928 45.193C37.8278 44.6775 37.6378 44.0868 37.6227 43.4208H39.9933C40.0196 43.8685 40.2078 44.2316 40.5577 44.5101C40.9076 44.7885 41.3234 44.9277 41.8051 44.9277C42.1889 44.9277 42.5275 44.8431 42.821 44.6738C43.1183 44.5007 43.3497 44.2617 43.5153 43.957C43.6846 43.6484 43.7693 43.2947 43.7693 42.8958C43.7693 42.4895 43.6827 42.132 43.5096 41.8234C43.3403 41.5149 43.1051 41.2741 42.8041 41.101C42.5031 40.9279 42.1588 40.8395 41.7712 40.8357C41.4326 40.8357 41.1033 40.9053 40.7835 41.0446C40.4674 41.1838 40.2209 41.3738 40.0441 41.6146L37.8711 41.2252L38.4185 35.1295H45.4851V37.1275H40.4335L40.1344 40.0229H40.2021C40.4053 39.737 40.712 39.4999 41.1221 39.3118C41.5323 39.1236 41.9913 39.0295 42.4993 39.0295C43.1954 39.0295 43.8163 39.1933 44.3619 39.5206C44.9075 39.848 45.3383 40.2976 45.6544 40.8696C45.9705 41.4377 46.1267 42.0925 46.1229 42.8337C46.1267 43.6126 45.946 44.305 45.581 44.9108C45.2198 45.5129 44.7137 45.987 44.0628 46.3332C43.4155 46.6756 42.663 46.8468 41.8051 46.8468ZM52.2635 46.8468C51.669 46.843 51.0953 46.7433 50.5425 46.5476C49.9927 46.352 49.5 46.034 49.0635 45.5938C48.627 45.1535 48.2808 44.5703 48.025 43.8441C47.7729 43.1178 47.6468 42.2261 47.6468 41.1687C47.6506 40.1979 47.7616 39.3306 47.9798 38.5667C48.2018 37.7992 48.5179 37.1482 48.928 36.6139C49.342 36.0796 49.8367 35.6732 50.4124 35.3947C50.988 35.1125 51.6332 34.9714 52.3485 34.9714C53.1198 34.9714 53.8008 35.1219 54.3919 35.4229C54.9824 35.7202 55.4563 36.1247 55.8139 36.6365C56.175 37.1482 56.3935 37.722 56.4685 38.3579H54.0586C53.9647 37.9553 53.767 37.6392 53.466 37.4097C53.165 37.1802 52.7925 37.0654 52.3485 37.0654C51.596 37.0654 51.0238 37.3928 50.6324 38.0475C50.245 38.7022 50.0473 39.5921 50.0399 40.7172H50.1188C50.2922 40.3748 50.5251 40.0832 50.8187 39.8423C51.1162 39.5978 51.4529 39.4115 51.8289 39.2836C52.2094 39.1519 52.6097 39.086 53.0314 39.086C53.7164 39.086 54.3258 39.2478 54.8602 39.5714C55.3942 39.8913 55.8159 40.3315 56.1243 40.8921C56.4327 41.4528 56.5872 42.0944 56.5872 42.8168C56.5872 43.5995 56.4049 44.2956 56.0399 44.9052C55.6783 45.5148 55.1721 45.9926 54.5215 46.3388C53.8743 46.6812 53.1218 46.8506 52.2635 46.8468ZM52.2526 44.9277C52.6286 44.9277 52.9654 44.8374 53.2629 44.6568C53.5599 44.4762 53.7933 44.2316 53.9627 43.9231C54.1321 43.6145 54.2165 43.2683 54.2165 42.8845C54.2165 42.5008 54.1321 42.1565 53.9627 41.8517C53.7973 41.5469 53.5674 41.3042 53.2743 41.1236C52.9808 40.9429 52.6455 40.8526 52.2695 40.8526C51.9874 40.8526 51.7256 40.9053 51.4847 41.0107C51.2478 41.116 51.0392 41.2628 50.8584 41.4509C50.6816 41.6391 50.5425 41.8573 50.4407 42.1056C50.3389 42.3503 50.2882 42.6118 50.2882 42.8902C50.2882 43.2627 50.3731 43.6033 50.5425 43.9118C50.7154 44.2203 50.9488 44.4668 51.2424 44.6512C51.5394 44.8355 51.8761 44.9277 52.2526 44.9277Z" fill="#2E2E2E" fill-opacity="0.75"/>
<path d="M29.7756 30.7947V25.3763H30.9212V27.7654H30.9926L32.9425 25.3763H34.3157L32.3049 27.8024L34.3395 30.7947H32.969L31.4847 28.567L30.9212 29.2549V30.7947H29.7756ZM36.4289 30.8741C36.0127 30.8741 35.6546 30.7859 35.3547 30.6095C35.0567 30.4314 34.8274 30.1844 34.6669 29.8687C34.5081 29.553 34.4288 29.1897 34.4288 28.7787C34.4288 28.3624 34.509 27.9973 34.6695 27.6834C34.8318 27.3676 35.062 27.1216 35.3601 26.9452C35.6581 26.7671 36.0127 26.678 36.4236 26.678C36.7782 26.678 37.0886 26.7424 37.3549 26.8711C37.6213 26.9999 37.832 27.1807 37.9872 27.4135C38.1425 27.6463 38.228 27.9197 38.2439 28.2337H37.1803C37.1503 28.0308 37.0709 27.8677 36.9422 27.7442C36.8152 27.619 36.6485 27.5563 36.4421 27.5563C36.2676 27.5563 36.115 27.604 35.9844 27.6992C35.8557 27.7927 35.7551 27.9294 35.6829 28.1093C35.6105 28.2892 35.5744 28.5071 35.5744 28.7628C35.5744 29.0221 35.6096 29.2426 35.6802 29.4242C35.7525 29.6059 35.8539 29.7444 35.9844 29.8396C36.115 29.9348 36.2676 29.9825 36.4421 29.9825C36.5709 29.9825 36.6864 29.956 36.7887 29.9031C36.8928 29.8502 36.9784 29.7735 37.0454 29.6729C37.1142 29.5706 37.1592 29.448 37.1803 29.3052H38.2439C38.2262 29.6156 38.1416 29.889 37.9899 30.1253C37.84 30.3599 37.6327 30.5434 37.3682 30.6757C37.1036 30.8079 36.7905 30.8741 36.4289 30.8741ZM40.1243 30.8714C39.865 30.8714 39.634 30.8264 39.4312 30.7365C39.2283 30.6448 39.0678 30.5099 38.9496 30.3317C38.8332 30.1518 38.775 29.9278 38.775 29.6597C38.775 29.4339 38.8165 29.2443 38.8994 29.0909C38.9823 28.9374 39.0952 28.814 39.238 28.7205C39.3809 28.627 39.5432 28.5564 39.7248 28.5088C39.9082 28.4612 40.1005 28.4277 40.3016 28.4083C40.5379 28.3836 40.7284 28.3606 40.8731 28.3395C41.0177 28.3166 41.1226 28.2831 41.1879 28.2389C41.2532 28.1948 41.2858 28.1296 41.2858 28.0432V28.0273C41.2858 27.8597 41.2329 27.7301 41.1271 27.6384C41.023 27.5467 40.8748 27.5008 40.6826 27.5008C40.4797 27.5008 40.3184 27.5458 40.1984 27.6357C40.0785 27.7239 39.9991 27.835 39.9603 27.9691L38.9179 27.8844C38.9708 27.6375 39.0748 27.4241 39.2301 27.2442C39.3853 27.0625 39.5855 26.9232 39.8307 26.8261C40.0776 26.7274 40.3633 26.678 40.6878 26.678C40.9136 26.678 41.1297 26.7044 41.3361 26.7573C41.5442 26.8103 41.7285 26.8923 41.889 27.0034C42.0513 27.1145 42.1791 27.2574 42.2726 27.432C42.3661 27.6049 42.4129 27.8121 42.4129 28.0537V30.7947H41.344V30.2312H41.3122C41.247 30.3582 41.1597 30.4702 41.0503 30.5672C40.941 30.6624 40.8096 30.7374 40.6561 30.7921C40.5027 30.845 40.3254 30.8714 40.1243 30.8714ZM40.4471 30.0936C40.6129 30.0936 40.7593 30.061 40.8863 29.9957C41.0133 29.9287 41.113 29.8387 41.1853 29.7258C41.2576 29.6129 41.2937 29.4851 41.2937 29.3422V28.911C41.2584 28.9339 41.21 28.9551 41.1482 28.9744C41.0883 28.9921 41.0203 29.0089 40.9445 29.0247C40.8686 29.0388 40.7928 29.0521 40.7169 29.0644C40.6411 29.075 40.5723 29.0847 40.5106 29.0935C40.3783 29.1129 40.2628 29.1438 40.164 29.1861C40.0652 29.2284 39.9885 29.2858 39.9338 29.3581C39.8792 29.4286 39.8518 29.5168 39.8518 29.6227C39.8518 29.7761 39.9074 29.8934 40.0185 29.9745C40.1314 30.0539 40.2742 30.0936 40.4471 30.0936ZM44.4143 25.3763V30.7947H43.2873V25.3763H44.4143Z" fill="#2E2E2E" fill-opacity="0.75"/>
<path d="M14.2088 56.5773C11.7658 52.429 10.4625 47.7082 10.431 42.8938C10.3995 38.0794 11.6409 33.3423 14.0296 29.1621C16.4181 24.9819 19.8691 21.5072 24.0328 19.09C28.1965 16.6728 32.925 15.3989 37.7395 15.3973C42.554 15.3958 47.2834 16.6667 51.4485 19.0812C55.6137 21.4958 59.0672 24.9682 61.4582 29.1469C63.8498 33.3256 65.094 38.0619 65.0657 42.8763C65.0374 47.6908 63.737 52.4121 61.2968 56.5624" stroke="#2E2E2E" stroke-opacity="0.2" stroke-width="7" stroke-linecap="round"/>
<path d="M14.4243 56.9369C12.3683 53.5654 11.0679 49.7876 10.6126 45.8646C10.1573 41.9416 10.558 37.9665 11.7871 34.2134C13.0162 30.4602 15.0445 27.0181 17.7321 24.1244C20.4197 21.2307 23.7028 18.9542 27.3552 17.4517C31.0075 15.9491 34.9422 15.2564 38.8881 15.4212C42.8339 15.5859 46.6971 16.6043 50.2117 18.4061C53.7258 20.2078 56.8077 22.7502 59.2445 25.8579C61.6817 28.9656 63.4162 32.5648 64.3281 36.4073" stroke="#84CF3D" stroke-opacity="0.95" stroke-width="7" stroke-linecap="round"/>
<path d="M29.1343 51.9437L27.3881 58.431H26.4171L28.1633 51.9437H29.1343ZM32.0241 52.1975V57.6159H30.8785V53.2848H30.8467L29.6059 54.0626V53.0469L30.9473 52.1975H32.0241ZM35.2723 52.1235C35.551 52.1235 35.8191 52.1702 36.0766 52.2636C36.3359 52.357 36.5669 52.506 36.7698 52.7106C36.9744 52.9152 37.1358 53.1869 37.254 53.5257C37.3739 53.8624 37.4348 54.2762 37.4366 54.7664C37.4366 55.2268 37.3845 55.6376 37.2804 55.9992C37.1781 56.3593 37.0309 56.6652 36.8386 56.9176C36.6464 57.1699 36.4144 57.3621 36.1428 57.4942C35.8711 57.6248 35.5678 57.6899 35.2326 57.6899C34.8711 57.6899 34.5518 57.6204 34.2749 57.4808C33.998 57.3397 33.7749 57.1485 33.6055 56.9066C33.438 56.6633 33.3365 56.3901 33.3013 56.0866H34.431C34.4751 56.2843 34.5677 56.4378 34.7088 56.547C34.8499 56.6548 35.0245 56.7085 35.2326 56.7085C35.5854 56.7085 35.8535 56.555 36.0369 56.248C36.2204 55.9396 36.313 55.5169 36.3147 54.981H36.2777C36.1966 55.1394 36.0872 55.276 35.9497 55.3907C35.8121 55.504 35.6542 55.5909 35.4761 55.653C35.2997 55.7146 35.1118 55.7454 34.9125 55.7454C34.5933 55.7454 34.3084 55.6704 34.058 55.5204C33.8075 55.3704 33.61 55.1643 33.4653 54.9015C33.3207 54.6388 33.2484 54.3388 33.2484 54.002C33.2466 53.6384 33.3304 53.3151 33.4997 53.031C33.669 52.7469 33.9054 52.5249 34.2088 52.3639C34.5139 52.202 34.8684 52.1215 35.2723 52.1235ZM35.2803 53.023C35.1021 53.023 34.9434 53.0652 34.804 53.1502C34.6665 53.2346 34.5571 53.3484 34.476 53.4914C34.3966 53.634 34.3578 53.7939 34.3596 53.9702C34.3596 54.148 34.3984 54.309 34.476 54.4515C34.5554 54.5926 34.6629 54.7058 34.7987 54.7902C34.9363 54.8732 35.0933 54.9144 35.2697 54.9144C35.402 54.9144 35.5245 54.8901 35.6374 54.8404C35.7503 54.7912 35.8482 54.7232 35.9311 54.6368C36.0158 54.5489 36.0819 54.447 36.1296 54.3328C36.1771 54.2181 36.201 54.0964 36.201 53.9672C36.1992 53.7964 36.1587 53.6394 36.0793 53.4964C35.9999 53.3538 35.8906 53.2391 35.7512 53.1527C35.6119 53.0662 35.4549 53.023 35.2803 53.023ZM40.3547 57.7351C39.8997 57.7331 39.5081 57.6214 39.1801 57.3989C38.8538 57.1768 38.6024 56.855 38.426 56.4333C38.2514 56.0116 38.165 55.5045 38.1667 54.9119C38.1667 54.3209 38.254 53.8177 38.4287 53.4015C38.6051 52.9848 38.8564 52.6684 39.1827 52.4513C39.5108 52.2328 39.9015 52.1235 40.3547 52.1235C40.8081 52.1235 41.1979 52.2328 41.5241 52.4513C41.8522 52.6704 42.1044 52.9878 42.2809 53.404C42.4572 53.8182 42.5445 54.3209 42.5428 54.9119C42.5428 55.5065 42.4545 56.0146 42.2782 56.4358C42.1036 56.8575 41.8531 57.1793 41.5268 57.4018C41.2005 57.6239 40.8098 57.7351 40.3547 57.7351ZM40.3547 56.785C40.6652 56.785 40.913 56.629 41.0982 56.3171C41.2834 56.0047 41.3751 55.5363 41.3734 54.9119C41.3734 54.5012 41.331 54.159 41.2464 53.8853C41.1635 53.6121 41.0453 53.4065 40.8918 53.2689C40.7401 53.1313 40.5611 53.0628 40.3547 53.0628C40.0461 53.0628 39.7991 53.2167 39.6139 53.5257C39.4288 53.8341 39.3353 54.2965 39.3335 54.9119C39.3335 55.3282 39.375 55.6758 39.4579 55.9545C39.5425 56.2311 39.6616 56.4393 39.815 56.5788C39.9685 56.7164 40.1484 56.785 40.3547 56.785ZM45.4841 57.7351C45.0291 57.7331 44.6375 57.6214 44.3094 57.3989C43.9831 57.1768 43.7318 56.855 43.5554 56.4333C43.3808 56.0116 43.2943 55.5045 43.2961 54.9119C43.2961 54.3209 43.3835 53.8177 43.558 53.4015C43.7344 52.9848 43.9858 52.6684 44.3121 52.4513C44.6401 52.2328 45.0308 52.1235 45.4841 52.1235C45.9374 52.1235 46.3272 52.2328 46.6536 52.4513C46.9816 52.6704 47.2338 52.9878 47.4102 53.404C47.5866 53.8182 47.6739 54.3209 47.6721 54.9119C47.6721 55.5065 47.5839 56.0146 47.4076 56.4358C47.2329 56.8575 46.9825 57.1793 46.6562 57.4018C46.3299 57.6239 45.9392 57.7351 45.4841 57.7351ZM45.4841 56.785C45.7946 56.785 46.0424 56.629 46.2276 56.3171C46.4128 56.0047 46.5045 55.5363 46.5027 54.9119C46.5027 54.5012 46.4604 54.159 46.3758 53.8853C46.2929 53.6121 46.1746 53.4065 46.0212 53.2689C45.8695 53.1313 45.6905 53.0628 45.4841 53.0628C45.1755 53.0628 44.9286 53.2167 44.7433 53.5257C44.5581 53.8341 44.4646 54.2965 44.4629 54.9119C44.4629 55.3282 44.5043 55.6758 44.5872 55.9545C44.6719 56.2311 44.791 56.4393 44.9444 56.5788C45.0979 56.7164 45.2778 56.785 45.4841 56.785Z" fill="#2E2E2E" fill-opacity="0.75"/>
</g>
<defs>
<clipPath id="clip0_1206_1115">
<rect width="75" height="75" fill="white"/>
</clipPath>
</defs>
</svg>
