<svg width="75" height="75" viewBox="0 0 75 75" fill="none" xmlns="http://www.w3.org/2000/svg">
<g clip-path="url(#clip0_1206_1078)">
<g style="mix-blend-mode:darken">
<path d="M65.0662 0H9.93377C4.4475 0 0 4.4475 0 9.93377V65.0662C0 70.5525 4.4475 75 9.93377 75H65.0662C70.5525 75 75 70.5525 75 65.0662V9.93377C75 4.4475 70.5525 0 65.0662 0Z" fill="#6D4C41" fill-opacity="0.17"/>
</g>
<path d="M6.77441 6.68271H8.65816L10.6477 11.5367H10.7324L12.722 6.68271H14.6057V13.9073H13.1241V9.20499H13.0642L11.1945 13.872H10.1856L8.31599 9.18736H8.25604V13.9073H6.77441V6.68271ZM18.3053 14.0131C17.748 14.0131 17.2682 13.9002 16.866 13.6744C16.4663 13.4464 16.1582 13.1242 15.9418 12.7079C15.7254 12.2893 15.6173 11.7942 15.6173 11.2228C15.6173 10.6654 15.7254 10.1763 15.9418 9.75527C16.1582 9.33433 16.4627 9.00627 16.8555 8.77109C17.2506 8.5359 17.7138 8.41834 18.2453 8.41834C18.6028 8.41834 18.9356 8.47595 19.2437 8.59119C19.5541 8.70403 19.8246 8.87455 20.055 9.10268C20.2878 9.3308 20.4689 9.61769 20.5983 9.96344C20.7276 10.3067 20.7923 10.7089 20.7923 11.1698V11.5826H16.217V10.6513H19.3777C19.3777 10.4349 19.3307 10.2433 19.2366 10.0763C19.1426 9.90935 19.012 9.77882 18.845 9.68475C18.6804 9.58834 18.4888 9.54011 18.27 9.54011C18.0419 9.54011 17.8397 9.59301 17.6633 9.69885C17.4893 9.80231 17.3528 9.94223 17.2541 10.1187C17.1553 10.2926 17.1047 10.4867 17.1024 10.7007V11.5861C17.1024 11.8542 17.1518 12.0859 17.2506 12.2811C17.3517 12.4762 17.4939 12.6268 17.6774 12.7326C17.8609 12.8384 18.0784 12.8913 18.33 12.8913C18.497 12.8913 18.6498 12.8678 18.7886 12.8208C18.9273 12.7738 19.0461 12.7032 19.1449 12.6091C19.2437 12.5151 19.3189 12.3998 19.3706 12.2634L20.7605 12.3551C20.69 12.6891 20.5454 12.9807 20.3267 13.23C20.1103 13.4769 19.8304 13.6698 19.4871 13.8085C19.1461 13.9449 18.7522 14.0131 18.3053 14.0131ZM26.2813 10.034L24.9055 10.1187C24.882 10.001 24.8314 9.89519 24.7538 9.80117C24.6762 9.70471 24.5739 9.62827 24.4469 9.57185C24.3223 9.51304 24.1729 9.48369 23.9989 9.48369C23.7661 9.48369 23.5697 9.53306 23.4098 9.6318C23.2499 9.72826 23.1699 9.85759 23.1699 10.0199C23.1699 10.1492 23.2217 10.2586 23.3251 10.3479C23.4286 10.4373 23.6062 10.509 23.8578 10.5631L24.8385 10.7607C25.3653 10.8689 25.758 11.0429 26.0167 11.2827C26.2754 11.5226 26.4047 11.8377 26.4047 12.2281C26.4047 12.5833 26.3001 12.8948 26.0908 13.163C25.8838 13.4311 25.5993 13.6404 25.2371 13.7909C24.8773 13.939 24.4622 14.0131 23.9918 14.0131C23.2746 14.0131 22.7031 13.8638 22.2774 13.5651C21.8541 13.2641 21.606 12.8549 21.5331 12.3375L23.0112 12.2599C23.0559 12.4786 23.164 12.6456 23.3357 12.7608C23.5074 12.8737 23.7273 12.9302 23.9954 12.9302C24.2588 12.9302 24.4704 12.8796 24.6303 12.7785C24.7926 12.675 24.8749 12.5421 24.8773 12.3798C24.8749 12.2434 24.8173 12.1317 24.7044 12.0447C24.5915 11.9554 24.4175 11.8872 24.1823 11.8401L23.244 11.6531C22.7148 11.5473 22.3209 11.3639 22.0622 11.1028C21.8059 10.8418 21.6777 10.509 21.6777 10.1045C21.6777 9.75647 21.7718 9.45662 21.9599 9.20499C22.1504 8.95332 22.4173 8.75931 22.7607 8.62292C23.1064 8.48653 23.5109 8.41834 23.9742 8.41834C24.6586 8.41834 25.1971 8.56297 25.5899 8.85219C25.9849 9.14147 26.2154 9.53539 26.2813 10.034ZM30.9236 13.9073H29.2868L31.7808 6.68271H33.7492L36.2397 13.9073H34.6029L32.7933 8.33365H32.7368L30.9236 13.9073ZM30.8213 11.0676H34.6876V12.2599H30.8213V11.0676ZM37.0811 15.9392V8.48887H38.5627V9.399H38.6297C38.6956 9.25317 38.7908 9.10501 38.9154 8.95451C39.0424 8.80163 39.2071 8.67468 39.4093 8.57355C39.6139 8.47004 39.8679 8.41834 40.1713 8.41834C40.5664 8.41834 40.9309 8.5218 41.2648 8.72877C41.5988 8.93335 41.8657 9.24259 42.0656 9.65653C42.2655 10.0681 42.3654 10.5843 42.3654 11.2052C42.3654 11.8095 42.2678 12.3199 42.0726 12.7361C41.8798 13.15 41.6164 13.464 41.2825 13.678C40.9509 13.8897 40.5793 13.9955 40.1677 13.9955C39.8761 13.9955 39.628 13.9473 39.4234 13.8509C39.2212 13.7544 39.0554 13.6333 38.926 13.4875C38.7967 13.3393 38.6979 13.19 38.6297 13.0395H38.5839V15.9392H37.0811ZM38.5521 11.1981C38.5521 11.5203 38.5968 11.8013 38.6861 12.0412C38.7755 12.2811 38.9049 12.468 39.0742 12.6021C39.2435 12.7338 39.4493 12.7996 39.6915 12.7996C39.9361 12.7996 40.1431 12.7326 40.3124 12.5986C40.4817 12.4621 40.6098 12.274 40.6969 12.0341C40.7863 11.7919 40.8309 11.5132 40.8309 11.1981C40.8309 10.8853 40.7874 10.6101 40.7004 10.3726C40.6134 10.1351 40.4852 9.94928 40.3159 9.81527C40.1466 9.68122 39.9384 9.61417 39.6915 9.61417C39.4469 9.61417 39.24 9.67883 39.0707 9.80822C38.9037 9.93756 38.7755 10.121 38.6861 10.3585C38.5968 10.596 38.5521 10.8759 38.5521 11.1981ZM43.3673 15.9392V8.48887H44.8489V9.399H44.9159C44.9818 9.25317 45.077 9.10501 45.2016 8.95451C45.3286 8.80163 45.4933 8.67468 45.6955 8.57355C45.9001 8.47004 46.1541 8.41834 46.4575 8.41834C46.8526 8.41834 47.2171 8.5218 47.5511 8.72877C47.885 8.93335 48.1519 9.24259 48.3518 9.65653C48.5517 10.0681 48.6517 10.5843 48.6517 11.2052C48.6517 11.8095 48.5541 12.3199 48.3589 12.7361C48.166 13.15 47.9026 13.464 47.5687 13.678C47.2371 13.8897 46.8655 13.9955 46.4539 13.9955C46.1623 13.9955 45.9142 13.9473 45.7096 13.8509C45.5074 13.7544 45.3416 13.6333 45.2122 13.4875C45.0829 13.3393 44.9841 13.19 44.9159 13.0395H44.87V15.9392H43.3673ZM44.8383 11.1981C44.8383 11.5203 44.883 11.8013 44.9724 12.0412C45.0617 12.2811 45.1911 12.468 45.3604 12.6021C45.5297 12.7338 45.7355 12.7996 45.9777 12.7996C46.2223 12.7996 46.4292 12.7326 46.5986 12.5986C46.7679 12.4621 46.8961 12.274 46.9831 12.0341C47.0725 11.7919 47.1172 11.5132 47.1172 11.1981C47.1172 10.8853 47.0737 10.6101 46.9866 10.3726C46.8996 10.1351 46.7714 9.94928 46.6021 9.81527C46.4328 9.68122 46.2247 9.61417 45.9777 9.61417C45.7331 9.61417 45.5262 9.67883 45.3568 9.80822C45.1899 9.93756 45.0617 10.121 44.9724 10.3585C44.883 10.596 44.8383 10.8759 44.8383 11.1981ZM52.1016 14.0131C51.5538 14.0131 51.0799 13.8967 50.6801 13.6639C50.2828 13.4287 49.9758 13.1018 49.7593 12.6832C49.543 12.2623 49.4348 11.7743 49.4348 11.2193C49.4348 10.6595 49.543 10.1704 49.7593 9.75175C49.9758 9.3308 50.2828 9.00388 50.6801 8.77109C51.0799 8.5359 51.5538 8.41834 52.1016 8.41834C52.6495 8.41834 53.1223 8.5359 53.5197 8.77109C53.9195 9.00388 54.2275 9.3308 54.444 9.75175C54.6606 10.1704 54.7684 10.6595 54.7684 11.2193C54.7684 11.7743 54.6606 12.2623 54.444 12.6832C54.2275 13.1018 53.9195 13.4287 53.5197 13.6639C53.1223 13.8967 52.6495 14.0131 52.1016 14.0131ZM52.1086 12.849C52.3579 12.849 52.566 12.7785 52.7329 12.6374C52.9003 12.4939 53.026 12.2987 53.1104 12.0518C53.1978 11.8048 53.241 11.5238 53.241 11.2087C53.241 10.8935 53.1978 10.6125 53.1104 10.3656C53.026 10.1187 52.9003 9.92345 52.7329 9.77996C52.566 9.63652 52.3579 9.56479 52.1086 9.56479C51.8573 9.56479 51.6457 9.63652 51.4738 9.77996C51.3045 9.92345 51.1763 10.1187 51.0894 10.3656C51.0044 10.6125 50.9622 10.8935 50.9622 11.2087C50.9622 11.5238 51.0044 11.8048 51.0894 12.0518C51.1763 12.2987 51.3045 12.4939 51.4738 12.6374C51.6457 12.7785 51.8573 12.849 52.1086 12.849ZM55.7458 13.9073V8.48887H57.2026V9.43427H57.2593C57.3576 9.09796 57.5235 8.844 57.7564 8.67229C57.9894 8.49825 58.2576 8.41128 58.5606 8.41128C58.6361 8.41128 58.717 8.41595 58.804 8.42539C58.8914 8.43478 58.9674 8.44769 59.0334 8.46418V9.79764C58.9629 9.77643 58.8655 9.75766 58.7409 9.74117C58.6162 9.72473 58.502 9.71648 58.3987 9.71648C58.1776 9.71648 57.9799 9.76471 57.8056 9.86112C57.6343 9.95519 57.4977 10.0869 57.3968 10.2562C57.298 10.4256 57.2483 10.6207 57.2483 10.8418V13.9073H55.7458ZM62.9642 8.48887V9.61769H59.701V8.48887H62.9642ZM60.442 7.19072H61.9445V12.2422C61.9445 12.381 61.9659 12.4892 62.0081 12.5668C62.0503 12.6421 62.1094 12.695 62.1844 12.7255C62.2619 12.7561 62.3513 12.7714 62.4526 12.7714C62.5232 12.7714 62.5937 12.7655 62.6642 12.7538C62.7347 12.7396 62.7889 12.729 62.8266 12.722L63.0631 13.8403C62.9876 13.8638 62.8818 13.8909 62.7452 13.9214C62.6091 13.9543 62.4432 13.9743 62.248 13.9814C61.8859 13.9955 61.5685 13.9473 61.2953 13.8368C61.0251 13.7262 60.8145 13.5545 60.6641 13.3217C60.5136 13.0889 60.4395 12.7949 60.442 12.4398V7.19072ZM68.3836 10.034L67.0078 10.1187C66.9839 10.001 66.9338 9.89519 66.8558 9.80117C66.7783 9.70471 66.676 9.62827 66.5488 9.57185C66.4242 9.51304 66.2751 9.48369 66.1008 9.48369C65.8684 9.48369 65.6717 9.53306 65.5117 9.6318C65.3518 9.72826 65.2718 9.85759 65.2718 10.0199C65.2718 10.1492 65.324 10.2586 65.4273 10.3479C65.5306 10.4373 65.7084 10.509 65.9597 10.5631L66.9407 10.7607C67.4672 10.8689 67.8601 11.0429 68.1189 11.2827C68.3776 11.5226 68.5068 11.8377 68.5068 12.2281C68.5068 12.5833 68.4025 12.8948 68.1929 13.163C67.9857 13.4311 67.7016 13.6404 67.3391 13.7909C66.9795 13.939 66.5642 14.0131 66.0939 14.0131C65.3766 14.0131 64.8054 13.8638 64.3798 13.5651C63.9561 13.2641 63.7083 12.8549 63.6352 12.3375L65.1134 12.2599C65.1581 12.4786 65.2664 12.6456 65.4377 12.7608C65.6096 12.8737 65.8296 12.9302 66.0973 12.9302C66.3611 12.9302 66.5727 12.8796 66.7326 12.7785C66.8945 12.675 66.977 12.5421 66.9795 12.3798C66.977 12.2434 66.9193 12.1317 66.8066 12.0447C66.6939 11.9554 66.5195 11.8872 66.2846 11.8401L65.3463 11.6531C64.8169 11.5473 64.423 11.3639 64.1642 11.1028C63.9079 10.8418 63.7798 10.509 63.7798 10.1045C63.7798 9.75647 63.8741 9.45662 64.0619 9.20499C64.2526 8.95332 64.5194 8.75931 64.8631 8.62292C65.2088 8.48653 65.6131 8.41834 66.0765 8.41834C66.7609 8.41834 67.2993 8.56297 67.6922 8.85219C68.0871 9.14147 68.3175 9.53539 68.3836 10.034Z" fill="#2E2E2E" fill-opacity="0.75"/>
<path d="M29.7348 33.8882C29.7137 33.6748 29.6228 33.509 29.4624 33.3908C29.3018 33.2727 29.084 33.2136 28.8089 33.2136C28.6219 33.2136 28.464 33.24 28.3353 33.2929C28.2065 33.3441 28.1077 33.4155 28.0389 33.5073C27.9719 33.599 27.9384 33.7031 27.9384 33.8194C27.9349 33.9165 27.9552 34.0011 27.9993 34.0734C28.0451 34.1458 28.1077 34.2084 28.1871 34.2613C28.2665 34.3124 28.3582 34.3574 28.4623 34.3962C28.5663 34.4332 28.6774 34.465 28.7956 34.4915L29.2825 34.6079C29.5188 34.6608 29.7357 34.7314 29.9333 34.8195C30.1308 34.9077 30.3019 35.0162 30.4465 35.1449C30.5912 35.2737 30.7032 35.4254 30.7826 35.6C30.8637 35.7746 30.9051 35.9748 30.9069 36.2006C30.9051 36.5322 30.8205 36.8197 30.6529 37.0631C30.4871 37.3047 30.2472 37.4926 29.9333 37.6267C29.6211 37.7589 29.2445 37.8251 28.8035 37.8251C28.3661 37.8251 27.9852 37.758 27.6606 37.624C27.3378 37.49 27.0856 37.2915 26.9039 37.0287C26.724 36.7642 26.6296 36.4369 26.6208 36.0471H27.7294C27.7417 36.2288 27.7938 36.3805 27.8855 36.5022C27.979 36.6221 28.1033 36.713 28.2585 36.7747C28.4155 36.8347 28.5928 36.8647 28.7903 36.8647C28.9843 36.8647 29.1528 36.8365 29.2957 36.78C29.4403 36.7236 29.5523 36.6451 29.6317 36.5445C29.711 36.444 29.7507 36.3285 29.7507 36.198C29.7507 36.0762 29.7146 35.974 29.6423 35.8911C29.5717 35.8081 29.4676 35.7376 29.33 35.6794C29.1942 35.6212 29.0276 35.5683 28.83 35.5206L28.24 35.3725C27.7832 35.2614 27.4225 35.0876 27.1579 34.8513C26.8933 34.6149 26.762 34.2966 26.7637 33.8962C26.762 33.5681 26.8493 33.2815 27.0257 33.0363C27.2038 32.7911 27.4481 32.5998 27.7585 32.4622C28.0689 32.3246 28.4217 32.2559 28.8168 32.2559C29.2189 32.2559 29.5699 32.3246 29.8698 32.4622C30.1714 32.5998 30.406 32.7911 30.5735 33.0363C30.7411 33.2815 30.8276 33.5655 30.8328 33.8882H29.7348ZM34.2623 36.018V33.6845H35.3894V37.7483H34.3073V37.0102H34.265C34.1733 37.2483 34.0207 37.4397 33.8073 37.5843C33.5956 37.7289 33.3372 37.8012 33.0321 37.8012C32.7605 37.8012 32.5215 37.7395 32.3151 37.6161C32.1087 37.4926 31.9473 37.3171 31.8309 37.0896C31.7163 36.862 31.6581 36.5895 31.6563 36.272V33.6845H32.7834V36.071C32.7852 36.3108 32.8495 36.5005 32.9765 36.6398C33.1035 36.7792 33.2737 36.8488 33.4871 36.8488C33.623 36.8488 33.7499 36.8179 33.8681 36.7562C33.9863 36.6927 34.0816 36.5992 34.1539 36.4758C34.2279 36.3523 34.2641 36.1997 34.2623 36.018ZM38.127 37.8277C37.7108 37.8277 37.3528 37.7395 37.0529 37.5631C36.7548 37.385 36.5255 37.1381 36.365 36.8224C36.2062 36.5066 36.1269 36.1433 36.1269 35.7323C36.1269 35.3161 36.2071 34.9509 36.3677 34.637C36.5299 34.3212 36.7601 34.0752 37.0582 33.8988C37.3563 33.7207 37.7108 33.6316 38.1218 33.6316C38.4763 33.6316 38.7867 33.696 39.0531 33.8247C39.3194 33.9535 39.5302 34.1343 39.6854 34.3671C39.8406 34.5999 39.9261 34.8733 39.942 35.1873H38.8784C38.8484 34.9845 38.7691 34.8213 38.6403 34.6978C38.5133 34.5726 38.3466 34.51 38.1403 34.51C37.9657 34.51 37.8131 34.5576 37.6826 34.6529C37.5538 34.7464 37.4533 34.883 37.381 35.0629C37.3086 35.2428 37.2725 35.4607 37.2725 35.7164C37.2725 35.9757 37.3078 36.1962 37.3783 36.3779C37.4507 36.5595 37.5521 36.698 37.6826 36.7933C37.8131 36.8885 37.9657 36.9361 38.1403 36.9361C38.269 36.9361 38.3846 36.9096 38.4869 36.8567C38.591 36.8038 38.6765 36.7271 38.7435 36.6266C38.8123 36.5243 38.8573 36.4017 38.8784 36.2588H39.942C39.9244 36.5693 39.8397 36.8426 39.688 37.079C39.5381 37.3135 39.3309 37.497 39.0663 37.6293C38.8017 37.7616 38.4886 37.8277 38.127 37.8277ZM40.6636 37.7483V33.6845H41.7563V34.3936H41.7987C41.8727 34.1413 41.9971 33.9509 42.1717 33.8221C42.3463 33.6916 42.5474 33.6263 42.7749 33.6263C42.8314 33.6263 42.8922 33.6298 42.9575 33.6369C43.0228 33.644 43.0801 33.6536 43.1294 33.666V34.6661C43.0765 34.6502 43.0033 34.6361 42.9099 34.6238C42.8164 34.6114 42.7308 34.6052 42.6532 34.6052C42.4874 34.6052 42.3393 34.6414 42.2087 34.7137C42.08 34.7843 41.9777 34.883 41.9018 35.01C41.8278 35.137 41.7907 35.2834 41.7907 35.4492V37.7483H40.6636ZM45.375 37.8277C44.957 37.8277 44.5972 37.743 44.2955 37.5737C43.9957 37.4026 43.7646 37.161 43.6023 36.8488C43.4401 36.5348 43.359 36.1636 43.359 35.735C43.359 35.317 43.4401 34.95 43.6023 34.6344C43.7646 34.3186 43.993 34.0725 44.2876 33.8962C44.5839 33.7198 44.9314 33.6316 45.33 33.6316C45.5981 33.6316 45.8477 33.6748 46.0787 33.7613C46.3116 33.8459 46.5144 33.9738 46.6873 34.1449C46.8619 34.316 46.9977 34.5311 47.0947 34.7904C47.1917 35.0479 47.2402 35.3496 47.2402 35.6953V36.0048H43.8087V35.3064H46.1793C46.1793 35.1441 46.144 35.0003 46.0735 34.8751C46.0029 34.7499 45.905 34.652 45.7798 34.5814C45.6563 34.5091 45.5126 34.4729 45.3485 34.4729C45.1774 34.4729 45.0257 34.5126 44.8935 34.592C44.763 34.6696 44.6606 34.7746 44.5866 34.9068C44.5125 35.0374 44.4746 35.1829 44.4728 35.3434V36.0074C44.4728 36.2086 44.5098 36.3823 44.5839 36.5287C44.6598 36.675 44.7665 36.7879 44.9041 36.8673C45.0416 36.9467 45.2048 36.9864 45.3935 36.9864C45.5188 36.9864 45.6334 36.9687 45.7375 36.9335C45.8415 36.8982 45.9306 36.8453 46.0047 36.7747C46.0787 36.7042 46.1352 36.6177 46.174 36.5155L47.2164 36.5842C47.1635 36.8347 47.055 37.0534 46.891 37.2404C46.7287 37.4255 46.5188 37.5702 46.2613 37.6743C46.0056 37.7766 45.7101 37.8277 45.375 37.8277Z" fill="#FF0000" fill-opacity="0.6"/>
<path d="M14.2088 64.0277C11.7658 59.8793 10.4625 55.1588 10.431 50.3444C10.3995 45.5298 11.6409 40.7926 14.0296 36.6124C16.4181 32.4322 19.8691 28.9576 24.0328 26.5403C28.1965 24.1231 32.925 22.8492 37.7395 22.8477C42.554 22.8461 47.2834 24.117 51.4485 26.5316C55.6137 28.9461 59.0672 32.4186 61.4582 36.5972C63.8498 40.7759 65.094 45.5123 65.0657 50.3265C65.0374 55.1409 63.737 59.8624 61.2968 64.0128" stroke="#FF0000" stroke-opacity="0.25" stroke-width="7" stroke-linecap="round"/>
<path d="M14.2832 64.1533C12.2542 60.7495 10.99 56.9449 10.5783 53.0036C10.1666 49.0627 10.6172 45.0791 11.8989 41.3295C13.1806 37.5799 15.2627 34.154 18.0008 31.2895C20.7389 28.425 24.0674 26.1905 27.7554 24.741" stroke="#FF0000" stroke-opacity="0.6" stroke-width="7" stroke-linecap="round"/>
<path d="M31.6177 58.8974L29.8715 65.3846H28.9005L30.6467 58.8974H31.6177ZM32.1501 64.5695V63.744L34.0788 61.9584C34.2429 61.7995 34.3805 61.6565 34.4916 61.5298C34.6045 61.4026 34.69 61.2785 34.7482 61.1568C34.8064 61.0331 34.8355 60.9 34.8355 60.757C34.8355 60.5985 34.7994 60.4614 34.7271 60.3472C34.6547 60.2305 34.556 60.1416 34.4307 60.08C34.3055 60.0164 34.1635 59.9846 34.0048 59.9846C33.839 59.9846 33.6944 60.0179 33.5709 60.0849C33.4474 60.152 33.3522 60.2483 33.2851 60.3735C33.2181 60.4987 33.1846 60.6477 33.1846 60.8205H32.0972C32.0972 60.4659 32.1775 60.1584 32.338 59.8972C32.4985 59.6359 32.7234 59.4343 33.0126 59.2912C33.3019 59.1487 33.6352 59.0772 34.0127 59.0772C34.4007 59.0772 34.7385 59.1457 35.026 59.2833C35.3153 59.4194 35.5401 59.6081 35.7007 59.8495C35.8612 60.0914 35.9414 60.368 35.9414 60.6805C35.9414 60.8851 35.9009 61.0868 35.8197 61.2864C35.7404 61.4856 35.5984 61.7071 35.3938 61.9505C35.1892 62.1919 34.9008 62.482 34.5286 62.8207L33.7376 63.596V63.6328H36.0128V64.5695H32.1501ZM38.822 64.6435C38.448 64.6435 38.1147 64.575 37.8219 64.4374C37.5308 64.2998 37.2998 64.1101 37.1287 63.8682C36.9576 63.6268 36.8685 63.3497 36.8615 63.0378H37.9727C37.985 63.2474 38.0732 63.4177 38.2373 63.5483C38.4013 63.679 38.5962 63.744 38.822 63.744C39.0019 63.744 39.1606 63.7043 39.2982 63.6248C39.4375 63.5439 39.546 63.4321 39.6236 63.2891C39.703 63.1445 39.7427 62.9786 39.7427 62.7914C39.7427 62.6012 39.7021 62.4338 39.6209 62.2887C39.5416 62.1442 39.4314 62.0315 39.2902 61.9505C39.1491 61.869 38.9878 61.8278 38.8061 61.8258C38.6473 61.8258 38.493 61.8586 38.3431 61.9237C38.1949 61.9892 38.0794 62.0781 37.9965 62.1909L36.9779 62.0086L37.2346 59.1512H40.547V60.0879H38.1791L38.0388 61.4449H38.0706C38.1658 61.3108 38.3096 61.2 38.5018 61.1116C38.6941 61.0232 38.9093 60.9795 39.1474 60.9795C39.4737 60.9795 39.7647 61.056 40.0205 61.2094C40.2762 61.3629 40.4782 61.5735 40.6263 61.8417C40.7745 62.108 40.8477 62.4149 40.8459 62.7626C40.8477 63.1277 40.763 63.452 40.5919 63.7361C40.4226 64.0182 40.1854 64.2407 39.8803 64.4027C39.5769 64.5636 39.2241 64.6435 38.822 64.6435ZM43.4864 66.1783C43.1213 66.1783 42.8081 66.1277 42.5471 66.0273C42.2879 65.9285 42.0815 65.7934 41.928 65.6225C41.7746 65.4517 41.6749 65.2589 41.6291 65.0459L42.6715 64.9053C42.7032 64.9868 42.7535 65.0627 42.8223 65.1333C42.891 65.2038 42.9819 65.2599 43.0948 65.3022C43.2094 65.3464 43.3488 65.3687 43.5128 65.3687C43.758 65.3687 43.9599 65.3086 44.1187 65.1884C44.2792 65.0707 44.3595 64.872 44.3595 64.5934V63.8498H44.3118C44.2624 63.9626 44.1883 64.0694 44.0896 64.1702C43.9908 64.2705 43.8638 64.3525 43.7086 64.4161C43.5534 64.4796 43.3682 64.5114 43.153 64.5114C42.8478 64.5114 42.57 64.4409 42.3196 64.2998C42.0709 64.1568 41.8725 63.9387 41.7243 63.6462C41.5779 63.3517 41.5047 62.9796 41.5047 62.5296C41.5047 62.0692 41.5797 61.6848 41.7296 61.3763C41.8795 61.0674 42.0789 60.8364 42.3275 60.683C42.578 60.5295 42.8523 60.453 43.1504 60.453C43.3779 60.453 43.5684 60.4917 43.7218 60.5692C43.8753 60.6452 43.9988 60.7401 44.0922 60.8548C44.1874 60.9681 44.2607 61.0788 44.3118 61.1881H44.3541V60.5056H45.4733V64.6093C45.4733 64.955 45.3886 65.244 45.2193 65.477C45.0499 65.7099 44.8154 65.8843 44.5155 66.001C44.2175 66.1192 43.8744 66.1783 43.4864 66.1783ZM43.5102 63.6646C43.6919 63.6646 43.8453 63.6199 43.9705 63.53C44.0975 63.4381 44.1945 63.3075 44.2616 63.1381C44.3303 62.9672 44.3647 62.7626 44.3647 62.5242C44.3647 62.2863 44.3312 62.0801 44.2642 61.9053C44.1972 61.729 44.1002 61.5924 43.9732 61.495C43.8462 61.3982 43.6919 61.3495 43.5102 61.3495C43.325 61.3495 43.1689 61.4002 43.0419 61.5005C42.9149 61.5993 42.8188 61.7369 42.7535 61.9132C42.6882 62.0896 42.6556 62.2932 42.6556 62.5242C42.6556 62.7591 42.6882 62.9618 42.7535 63.1331C42.8205 63.3025 42.9166 63.4336 43.0419 63.527C43.1689 63.6189 43.325 63.6646 43.5102 63.6646Z" fill="#FF0000" fill-opacity="0.6"/>
<path d="M34.2772 42.0831V53.6424H31.8333V44.4028H31.7655L29.1184 46.0622V43.8949L31.98 42.0831H34.2772ZM41.3367 53.8003C40.4674 53.8003 39.6942 53.6593 39.0169 53.3772C38.3434 53.0911 37.8147 52.7017 37.4309 52.2089C37.0471 51.7157 36.8552 51.157 36.8552 50.5326C36.8552 50.0508 36.9643 49.6087 37.1825 49.2061C37.4046 48.7997 37.7056 48.4629 38.0856 48.1957C38.4656 47.9248 38.8909 47.7518 39.3612 47.6765V47.5974C38.7441 47.4733 38.2437 47.1742 37.8598 46.7C37.476 46.2221 37.2841 45.6672 37.2841 45.035C37.2841 44.4367 37.4591 43.9043 37.8091 43.4377C38.159 42.9673 38.6387 42.5986 39.2483 42.3314C39.8616 42.0605 40.5577 41.925 41.3367 41.925C42.1156 41.925 42.8098 42.0605 43.4194 42.3314C44.0327 42.6023 44.5144 42.973 44.8643 43.4433C45.2143 43.9099 45.3911 44.4405 45.3948 45.035C45.3911 45.6709 45.1954 46.2259 44.8079 46.7C44.4203 47.1742 43.9236 47.4733 43.3178 47.5974V47.6765C43.7806 47.7518 44.2002 47.9248 44.5765 48.1957C44.9565 48.4629 45.2575 48.7997 45.4795 49.2061C45.7053 49.6087 45.82 50.0508 45.8238 50.5326C45.82 51.157 45.6263 51.7157 45.2425 52.2089C44.8586 52.7017 44.3281 53.0911 43.6508 53.3772C42.9773 53.6593 42.2059 53.8003 41.3367 53.8003ZM41.3367 52.0058C41.7242 52.0058 42.0629 51.9358 42.3526 51.7967C42.6423 51.6536 42.8681 51.4579 43.0299 51.2096C43.1955 50.9578 43.2783 50.6677 43.2783 50.3404C43.2783 50.0056 43.1936 49.7101 43.0243 49.4544C42.855 49.1948 42.6254 48.9916 42.3357 48.8448C42.046 48.6943 41.7129 48.6191 41.3367 48.6191C40.9641 48.6191 40.6312 48.6943 40.3377 48.8448C40.0442 48.9916 39.8128 49.1948 39.6434 49.4544C39.4778 49.7101 39.395 50.0056 39.395 50.3404C39.395 50.6677 39.476 50.9578 39.6378 51.2096C39.7996 51.4579 40.0272 51.6536 40.3207 51.7967C40.6142 51.9358 40.9529 52.0058 41.3367 52.0058ZM41.3367 46.8411C41.6602 46.8411 41.9481 46.7753 42.2002 46.6436C42.4523 46.5119 42.6499 46.3294 42.7928 46.0961C42.9358 45.8628 43.0074 45.5938 43.0074 45.289C43.0074 44.988 42.9358 44.7246 42.7928 44.4988C42.6499 44.2693 42.4542 44.0905 42.2059 43.9626C41.9575 43.8309 41.6678 43.765 41.3367 43.765C41.0093 43.765 40.7196 43.8309 40.4674 43.9626C40.2154 44.0905 40.0178 44.2693 39.8748 44.4988C39.7356 44.7246 39.666 44.988 39.666 45.289C39.666 45.5938 39.7375 45.8628 39.8805 46.0961C40.0235 46.3294 40.221 46.5119 40.4731 46.6436C40.7252 46.7753 41.0131 46.8411 41.3367 46.8411Z" fill="#FF0000" fill-opacity="0.6"/>
</g>
<defs>
<clipPath id="clip0_1206_1078">
<rect width="75" height="75" fill="white"/>
</clipPath>
</defs>
</svg>
