<svg width="75" height="75" viewBox="0 0 75 75" fill="none" xmlns="http://www.w3.org/2000/svg">
<g clip-path="url(#clip0_1206_1101)">
<g style="mix-blend-mode:darken">
<path d="M65.0662 0H9.93377C4.4475 0 0 4.4475 0 9.93377V65.0662C0 70.5525 4.4475 75 9.93377 75H65.0662C70.5525 75 75 70.5525 75 65.0662V9.93377C75 4.4475 70.5525 0 65.0662 0Z" fill="#A2CB6E" fill-opacity="0.26"/>
</g>
<path d="M37.7483 67.053C54.2072 67.053 67.5497 53.7105 67.5497 37.2516C67.5497 20.7928 54.2072 7.45032 37.7483 7.45032C21.2895 7.45032 7.94702 20.7928 7.94702 37.2516C7.94702 53.7105 21.2895 67.053 37.7483 67.053Z" stroke="#2E2E2E" stroke-opacity="0.2" stroke-width="7"/>
<path d="M34.0323 66.8205C38.0718 67.3281 42.1723 67.0028 46.0811 65.8644C49.9897 64.726 53.624 62.7988 56.7591 60.2017C59.8947 57.6045 62.4645 54.3929 64.3102 50.7641C66.1559 47.1354 67.2392 43.167 67.492 39.1037C67.7448 35.0403 67.1627 30.9683 65.7814 27.1387C64.3996 23.309 62.248 19.8032 59.4596 16.8372C56.6707 13.8712 53.3036 11.5081 49.5661 9.89368C45.8288 8.27925 41.8002 7.44769 37.7291 7.45032" stroke="#E0E420" stroke-opacity="0.78" stroke-width="7" stroke-linecap="round"/>
<path d="M27.0131 29.4627C26.2153 29.4627 25.5042 29.3159 24.8795 29.0224C24.2587 28.7289 23.7658 28.3244 23.4007 27.8089C23.0358 27.2934 22.8457 26.7027 22.8307 26.0367H25.2012C25.2276 26.4844 25.4158 26.8475 25.7657 27.1259C26.1156 27.4044 26.5314 27.5436 27.0131 27.5436C27.3968 27.5436 27.7355 27.459 28.029 27.2897C28.3263 27.1166 28.5577 26.8776 28.7232 26.5728C28.8926 26.2643 28.9772 25.9106 28.9772 25.5117C28.9772 25.1054 28.8907 24.7479 28.7176 24.4393C28.5483 24.1308 28.3131 23.89 28.012 23.7169C27.7111 23.5438 27.3667 23.4554 26.9792 23.4516C26.6405 23.4516 26.3113 23.5212 25.9914 23.6604C25.6754 23.7997 25.4289 23.9897 25.252 24.2305L23.079 23.841L23.6265 17.7453H30.6931V19.7434H25.6415L25.3423 22.6388H25.4101C25.6133 22.3529 25.9199 22.1158 26.3301 21.9277C26.7402 21.7395 27.1993 21.6454 27.7073 21.6454C28.4034 21.6454 29.0242 21.8091 29.5699 22.1365C30.1155 22.4639 30.5463 22.9135 30.8624 23.4855C31.1784 24.0536 31.3346 24.7084 31.3308 25.4496C31.3346 26.2285 31.154 26.9209 30.789 27.5267C30.4278 28.1288 29.9217 28.6028 29.2707 28.949C28.6235 29.2915 27.8709 29.4627 27.0131 29.4627ZM33.0354 29.3046V27.5436L37.15 23.7338C37.4999 23.3952 37.7934 23.0903 38.0305 22.8195C38.2713 22.5485 38.4538 22.2832 38.578 22.0236C38.7022 21.7602 38.7643 21.4761 38.7643 21.1713C38.7643 20.8327 38.6871 20.5411 38.5328 20.2965C38.3785 20.0481 38.1678 19.8581 37.9007 19.7264C37.6335 19.591 37.3306 19.5232 36.992 19.5232C36.6383 19.5232 36.3297 19.5948 36.0663 19.7377C35.8029 19.8807 35.5997 20.0858 35.4568 20.3529C35.3138 20.6201 35.2422 20.938 35.2422 21.3068H32.9225C32.9225 20.5505 33.0937 19.8939 33.4361 19.337C33.7786 18.7801 34.2583 18.3493 34.8754 18.0444C35.4925 17.7397 36.2037 17.5873 37.0089 17.5873C37.8367 17.5873 38.5573 17.734 39.1706 18.0276C39.7877 18.3173 40.2675 18.7199 40.6099 19.2354C40.9523 19.7509 41.1235 20.3416 41.1235 21.0077C41.1235 21.4441 41.037 21.875 40.8639 22.3002C40.6945 22.7254 40.3917 23.1976 39.9552 23.7169C39.5187 24.2324 38.9035 24.8514 38.1095 25.5738L36.4219 27.2276V27.3066H41.2759V29.3046H33.0354ZM49.3739 27.1373V26.5277C49.3739 26.0649 49.4717 25.6397 49.6674 25.2521C49.867 24.8607 50.1546 24.5484 50.5311 24.3151C50.911 24.0781 51.3739 23.9596 51.9193 23.9596C52.4726 23.9596 52.937 24.0762 53.3135 24.3095C53.6935 24.5428 53.9796 24.8551 54.1713 25.2464C54.367 25.634 54.4648 26.0611 54.4648 26.5277V27.1373C54.4648 27.6001 54.367 28.0271 54.1713 28.4185C53.9756 28.806 53.688 29.1165 53.3081 29.3498C52.9281 29.5868 52.4652 29.7053 51.9193 29.7053C51.3665 29.7053 50.9016 29.5868 50.5251 29.3498C50.1491 29.1165 49.863 28.806 49.6674 28.4185C49.4717 28.0271 49.3739 27.6001 49.3739 27.1373ZM51.0163 26.5277V27.1373C51.0163 27.4044 51.0804 27.6565 51.2081 27.8936C51.3402 28.1306 51.5771 28.2492 51.9193 28.2492C52.262 28.2492 52.495 28.1325 52.6192 27.8992C52.7473 27.6659 52.8114 27.4119 52.8114 27.1373V26.5277C52.8114 26.253 52.7508 25.9971 52.6306 25.7601C52.5104 25.523 52.273 25.4045 51.9193 25.4045C51.5806 25.4045 51.3456 25.523 51.214 25.7601C51.0824 25.9971 51.0163 26.253 51.0163 26.5277ZM43.4419 20.5223V19.9127C43.4419 19.4461 43.5416 19.019 43.741 18.6315C43.9405 18.2401 44.2283 17.9278 44.6046 17.6945C44.9846 17.4612 45.4437 17.3446 45.9817 17.3446C46.5386 17.3446 47.0052 17.4612 47.3815 17.6945C47.7578 17.9278 48.0438 18.2401 48.2394 18.6315C48.4351 19.019 48.5329 19.4461 48.5329 19.9127V20.5223C48.5329 20.9889 48.4332 21.4159 48.2338 21.8035C48.0381 22.191 47.7503 22.5015 47.3702 22.7348C46.9939 22.9643 46.5311 23.0791 45.9817 23.0791C45.4324 23.0791 44.9677 22.9625 44.5876 22.7292C44.2113 22.4921 43.9254 22.1817 43.7297 21.7979C43.5378 21.4103 43.4419 20.9851 43.4419 20.5223ZM45.0956 19.9127V20.5223C45.0956 20.7969 45.1596 21.0509 45.2875 21.2842C45.4192 21.5175 45.6506 21.6342 45.9817 21.6342C46.3279 21.6342 46.5631 21.5175 46.6873 21.2842C46.8152 21.0509 46.8792 20.7969 46.8792 20.5223V19.9127C46.8792 19.638 46.819 19.3821 46.6986 19.1451C46.5782 18.908 46.3392 18.7895 45.9817 18.7895C45.6469 18.7895 45.4155 18.9099 45.2875 19.1507C45.1596 19.3916 45.0956 19.6455 45.0956 19.9127ZM44.1869 29.3046L52.1339 17.7453H53.6125L45.6657 29.3046H44.1869Z" fill="#2E2E2E" fill-opacity="0.75"/>
<path d="M19.3451 37.2516V31.8332H22.9962V32.7777H20.4907V34.0689H22.8083V35.0134H20.4907V36.3071H23.0067V37.2516H19.3451ZM25.7219 37.331C25.3057 37.331 24.9476 37.2428 24.6477 37.0664C24.3497 36.8883 24.1204 36.6414 23.9599 36.3257C23.8011 36.0099 23.7218 35.6466 23.7218 35.2356C23.7218 34.8194 23.802 34.4543 23.9625 34.1403C24.1248 33.8245 24.3549 33.5785 24.6531 33.4021C24.9511 33.224 25.3057 33.1349 25.7166 33.1349C26.0712 33.1349 26.3816 33.1993 26.6479 33.3281C26.9142 33.4568 27.125 33.6376 27.2802 33.8704C27.4355 34.1032 27.521 34.3766 27.5369 34.6906H26.4733C26.4433 34.4878 26.364 34.3246 26.2352 34.2011C26.1082 34.0759 25.9415 34.0133 25.7351 34.0133C25.5605 34.0133 25.4079 34.0609 25.2774 34.1562C25.1487 34.2497 25.0481 34.3864 24.9758 34.5663C24.9035 34.7462 24.8673 34.964 24.8673 35.2197C24.8673 35.479 24.9026 35.6995 24.9732 35.8812C25.0455 36.0628 25.1469 36.2013 25.2774 36.2966C25.4079 36.3918 25.5605 36.4394 25.7351 36.4394C25.8639 36.4394 25.9794 36.4129 26.0817 36.36C26.1858 36.3071 26.2713 36.2304 26.3384 36.1299C26.4072 36.0276 26.4521 35.905 26.4733 35.7621H27.5369C27.5192 36.0726 27.4346 36.3459 27.2829 36.5823C27.133 36.8168 26.9257 37.0003 26.6611 37.1326C26.3966 37.2649 26.0835 37.331 25.7219 37.331ZM30.0946 37.331C29.6836 37.331 29.3282 37.2437 29.0284 37.0691C28.7303 36.8927 28.5001 36.6475 28.3378 36.3336C28.1756 36.0179 28.0945 35.6519 28.0945 35.2356C28.0945 34.8158 28.1756 34.4489 28.3378 34.135C28.5001 33.8193 28.7303 33.5741 29.0284 33.3995C29.3282 33.2231 29.6836 33.1349 30.0946 33.1349C30.5056 33.1349 30.8601 33.2231 31.1582 33.3995C31.458 33.5741 31.6891 33.8193 31.8514 34.135C32.0136 34.4489 32.0947 34.8158 32.0947 35.2356C32.0947 35.6519 32.0136 36.0179 31.8514 36.3336C31.6891 36.6475 31.458 36.8927 31.1582 37.0691C30.8601 37.2437 30.5056 37.331 30.0946 37.331ZM30.0999 36.4579C30.2868 36.4579 30.443 36.405 30.5682 36.2992C30.6934 36.1916 30.7878 36.0452 30.8513 35.86C30.9165 35.6748 30.9492 35.464 30.9492 35.2277C30.9492 34.9913 30.9165 34.7806 30.8513 34.5954C30.7878 34.4101 30.6934 34.2638 30.5682 34.1562C30.443 34.0486 30.2868 33.9948 30.0999 33.9948C29.9112 33.9948 29.7524 34.0486 29.6237 34.1562C29.4967 34.2638 29.4006 34.4101 29.3353 34.5954C29.2718 34.7806 29.24 34.9913 29.24 35.2277C29.24 35.464 29.2718 35.6748 29.3353 35.86C29.4006 36.0452 29.4967 36.1916 29.6237 36.2992C29.7524 36.405 29.9112 36.4579 30.0999 36.4579ZM35.3596 34.5795V35.4738H32.8885V34.5795H35.3596ZM39.7012 34.3467L38.6694 34.4101C38.6517 34.322 38.6138 34.2426 38.5556 34.172C38.4974 34.0997 38.4207 34.0424 38.3254 34.0001C38.2319 33.956 38.1199 33.9339 37.9894 33.9339C37.8148 33.9339 37.6675 33.971 37.5476 34.045C37.4276 34.1173 37.3677 34.2143 37.3677 34.3361C37.3677 34.4331 37.4065 34.5151 37.4841 34.5821C37.5617 34.6491 37.6949 34.7029 37.8836 34.7435L38.6191 34.8917C39.0142 34.9728 39.3088 35.1033 39.5028 35.2832C39.6968 35.4631 39.7938 35.6995 39.7938 35.9923C39.7938 36.2586 39.7153 36.4923 39.5583 36.6934C39.4031 36.8945 39.1897 37.0514 38.9181 37.1643C38.6482 37.2754 38.3369 37.331 37.9841 37.331C37.4462 37.331 37.0176 37.219 36.6983 36.995C36.3808 36.7693 36.1948 36.4624 36.1401 36.0743L37.2486 36.0161C37.2821 36.1801 37.3633 36.3054 37.492 36.3918C37.6208 36.4765 37.7857 36.5188 37.9868 36.5188C38.1843 36.5188 38.343 36.4809 38.463 36.405C38.5847 36.3274 38.6464 36.2278 38.6482 36.106C38.6464 36.0038 38.6032 35.92 38.5186 35.8547C38.4339 35.7877 38.3034 35.7366 38.127 35.7013L37.4232 35.561C37.0264 35.4816 36.7309 35.3441 36.5369 35.1483C36.3447 34.9525 36.2486 34.7029 36.2486 34.3996C36.2486 34.1385 36.3191 33.9137 36.4602 33.7249C36.603 33.5362 36.8033 33.3907 37.0608 33.2884C37.3201 33.1861 37.6234 33.1349 37.9709 33.1349C38.4841 33.1349 38.8881 33.2434 39.1826 33.4603C39.479 33.6773 39.6518 33.9727 39.7012 34.3467ZM42.3396 37.331C41.9234 37.331 41.5653 37.2428 41.2655 37.0664C40.9674 36.8883 40.7381 36.6414 40.5776 36.3257C40.4188 36.0099 40.3395 35.6466 40.3395 35.2356C40.3395 34.8194 40.4197 34.4543 40.5802 34.1403C40.7425 33.8245 40.9727 33.5785 41.2708 33.4021C41.5688 33.224 41.9234 33.1349 42.3343 33.1349C42.6889 33.1349 42.9993 33.1993 43.2656 33.3281C43.5319 33.4568 43.7427 33.6376 43.898 33.8704C44.0532 34.1032 44.1387 34.3766 44.1546 34.6906H43.091C43.061 34.4878 42.9817 34.3246 42.8529 34.2011C42.7259 34.0759 42.5592 34.0133 42.3529 34.0133C42.1782 34.0133 42.0257 34.0609 41.8952 34.1562C41.7664 34.2497 41.6658 34.3864 41.5935 34.5663C41.5212 34.7462 41.485 34.964 41.485 35.2197C41.485 35.479 41.5204 35.6995 41.5909 35.8812C41.6632 36.0628 41.7646 36.2013 41.8952 36.2966C42.0257 36.3918 42.1782 36.4394 42.3529 36.4394C42.4816 36.4394 42.5971 36.4129 42.6994 36.36C42.8035 36.3071 42.8891 36.2304 42.9561 36.1299C43.0249 36.0276 43.0698 35.905 43.091 35.7621H44.1546C44.137 36.0726 44.0523 36.3459 43.9006 36.5823C43.7507 36.8168 43.5434 37.0003 43.2789 37.1326C43.0143 37.2649 42.7012 37.331 42.3396 37.331ZM46.7123 37.331C46.3014 37.331 45.946 37.2437 45.6461 37.0691C45.348 36.8927 45.1179 36.6475 44.9556 36.3336C44.7933 36.0179 44.7122 35.6519 44.7122 35.2356C44.7122 34.8158 44.7933 34.4489 44.9556 34.135C45.1179 33.8193 45.348 33.5741 45.6461 33.3995C45.946 33.2231 46.3014 33.1349 46.7123 33.1349C47.1233 33.1349 47.4778 33.2231 47.7759 33.3995C48.0758 33.5741 48.3068 33.8193 48.4691 34.135C48.6314 34.4489 48.7125 34.8158 48.7125 35.2356C48.7125 35.6519 48.6314 36.0179 48.4691 36.3336C48.3068 36.6475 48.0758 36.8927 47.7759 37.0691C47.4778 37.2437 47.1233 37.331 46.7123 37.331ZM46.7176 36.4579C46.9046 36.4579 47.0607 36.405 47.1859 36.2992C47.3112 36.1916 47.4055 36.0452 47.469 35.86C47.5343 35.6748 47.5669 35.464 47.5669 35.2277C47.5669 34.9913 47.5343 34.7806 47.469 34.5954C47.4055 34.4101 47.3112 34.2638 47.1859 34.1562C47.0607 34.0486 46.9046 33.9948 46.7176 33.9948C46.5289 33.9948 46.3702 34.0486 46.2414 34.1562C46.1144 34.2638 46.0183 34.4101 45.953 34.5954C45.8895 34.7806 45.8578 34.9913 45.8578 35.2277C45.8578 35.464 45.8895 35.6748 45.953 35.86C46.0183 36.0452 46.1144 36.1916 46.2414 36.2992C46.3702 36.405 46.5289 36.4579 46.7176 36.4579ZM49.4454 37.2516V33.1878H50.538V33.8969H50.5803C50.6543 33.6446 50.7789 33.4542 50.9533 33.3254C51.1281 33.1949 51.3293 33.1296 51.5567 33.1296C51.6129 33.1296 51.674 33.1332 51.739 33.1402C51.8046 33.1473 51.8617 33.1569 51.9114 33.1693V34.1694C51.8582 34.1535 51.7852 34.1394 51.6913 34.1271C51.598 34.1147 51.5125 34.1086 51.4351 34.1086C51.2692 34.1086 51.1212 34.1447 50.9905 34.217C50.8619 34.2876 50.7596 34.3864 50.6836 34.5134C50.6096 34.6403 50.5723 34.7867 50.5723 34.9525V37.2516H49.4454ZM54.1569 37.331C53.7387 37.331 53.3791 37.2463 53.0771 37.077C52.7776 36.906 52.5462 36.6643 52.3842 36.3521C52.2218 36.0381 52.1409 35.6669 52.1409 35.2383C52.1409 34.8203 52.2218 34.4534 52.3842 34.1377C52.5462 33.8219 52.7746 33.5759 53.0692 33.3995C53.3657 33.2231 53.7129 33.1349 54.1117 33.1349C54.3799 33.1349 54.6293 33.1782 54.8607 33.2646C55.0932 33.3492 55.2963 33.4771 55.4692 33.6482C55.6435 33.8193 55.7796 34.0344 55.8764 34.2937C55.9733 34.5513 56.022 34.8529 56.022 35.1986V35.5081H52.5904V34.8097H54.9611C54.9611 34.6474 54.9258 34.5036 54.8553 34.3784C54.7847 34.2532 54.6869 34.1553 54.5617 34.0847C54.438 34.0124 54.2945 33.9762 54.1301 33.9762C53.9592 33.9762 53.8072 34.0159 53.6751 34.0953C53.5445 34.1729 53.4422 34.2779 53.3682 34.4101C53.2942 34.5407 53.2564 34.6862 53.2544 34.8467V35.5108C53.2544 35.7119 53.2917 35.8856 53.3657 36.032C53.4417 36.1784 53.548 36.2913 53.6856 36.3706C53.8231 36.45 53.9865 36.4897 54.1753 36.4897C54.3005 36.4897 54.4152 36.472 54.519 36.4368C54.6233 36.4015 54.7122 36.3486 54.7862 36.278C54.8607 36.2075 54.9168 36.121 54.9556 36.0188L55.9981 36.0875C55.945 36.338 55.8367 36.5567 55.6728 36.7437C55.5104 36.9289 55.3008 37.0735 55.043 37.1776C54.7872 37.2799 54.4917 37.331 54.1569 37.331Z" fill="#2E2E2E" fill-opacity="0.75"/>
<mask id="mask0_1206_1101" style="mask-type:luminance" maskUnits="userSpaceOnUse" x="28" y="44" width="19" height="19">
<path d="M46.1921 44.702H28.808V62.0861H46.1921V44.702Z" fill="white"/>
</mask>
<g mask="url(#mask0_1206_1101)">
<path d="M40.498 58.8288C37.2892 59.8262 33.6516 58.27 32.12 55.1801C31.9505 54.6149 30.6263 51.9641 31.8388 52.4255C33.3405 54.3522 34.6647 56.848 37.4986 56.3806C36.6271 56.0305 34.8981 55.4717 35.259 54.2384C35.3747 53.9071 35.8114 54.1123 36.0288 54.228C38.0071 54.6358 39.6544 55.5795 41.4732 56.2565C45.729 54.4123 45.0768 47.4689 41.8401 45.1201C45.9304 45.6912 48.0763 56.78 40.498 58.8308V58.8288Z" fill="#6D4C41"/>
<path d="M45.5595 55.9311C44.1915 61.1464 37.7061 63.6735 33.2389 61.0182C26.7336 57.6035 27.5691 46.7467 34.579 44.702C22.5535 52.9987 37.6981 67.9863 45.5595 55.9311Z" fill="#6D4C41"/>
<path d="M42.1792 46.6018C42.969 48.3651 42.8274 50.8465 41.3994 52.2308C39.11 53.9901 36.9682 54.4515 39.4471 51.0661C39.5887 50.7308 41.2998 49.4102 40.5559 49.5633C38.2744 50.5649 37.5086 55.5382 37.4269 51.8379C37.6403 48.9776 41.3436 48.9238 42.1792 46.5997V46.6018Z" fill="#84CF3D"/>
<path d="M36.8226 53.1561C36.3899 51.6864 34.8822 50.184 34.3318 50.2898C35.4286 51.0576 36.1366 52.0903 36.5115 53.4417C35.303 53.2262 34.0725 52.6739 33.4682 51.5275C32.9218 50.5465 33.0475 49.2178 33.3645 48.183C34.3358 49.8984 38.1209 50.5028 36.8206 53.1581L36.8226 53.1561Z" fill="#84CF3D"/>
</g>
</g>
<defs>
<clipPath id="clip0_1206_1101">
<rect width="75" height="75" fill="white"/>
</clipPath>
</defs>
</svg>
