<svg width="75" height="75" viewBox="0 0 75 75" fill="none" xmlns="http://www.w3.org/2000/svg">
<g clip-path="url(#clip0_1206_1086)">
<g style="mix-blend-mode:darken">
<path d="M65.0662 0H9.93377C4.4475 0 0 4.4475 0 9.93377V65.0662C0 70.5525 4.4475 75 9.93377 75H65.0662C70.5525 75 75 70.5525 75 65.0662V9.93377C75 4.4475 70.5525 0 65.0662 0Z" fill="#6D4C41" fill-opacity="0.17"/>
</g>
<path d="M8.19531 62.8311H66.8046" stroke="#FF0000" stroke-opacity="0.25" stroke-width="5" stroke-linecap="round"/>
<path d="M8.19531 62.8311H35.5132" stroke="#FF0000" stroke-opacity="0.6" stroke-width="5" stroke-linecap="round"/>
<path d="M9.70798 55.6758C9.67832 55.5725 9.6367 55.4816 9.58306 55.4027C9.52947 55.3222 9.46385 55.2546 9.38622 55.1995C9.31003 55.1429 9.22256 55.1002 9.12377 55.0704C9.02642 55.0406 8.91849 55.0262 8.79993 55.0262C8.57841 55.0262 8.38371 55.0808 8.21577 55.1911C8.04928 55.3008 7.91945 55.4613 7.82632 55.6714C7.73319 55.8805 7.68665 56.1358 7.68665 56.4378C7.68665 56.7397 7.7325 56.9965 7.82418 57.2081C7.91592 57.4197 8.04576 57.5811 8.21364 57.6929C8.38157 57.8027 8.5798 57.8578 8.80842 57.8578C9.01584 57.8578 9.19291 57.821 9.33968 57.748C9.48784 57.673 9.60069 57.5677 9.67832 57.4326C9.75735 57.297 9.79683 57.1371 9.79683 56.9518L9.98309 56.9796H8.86554V56.2897H10.6794V56.8356C10.6794 57.2166 10.599 57.5439 10.4382 57.8176C10.2773 58.0902 10.0558 58.3003 9.77359 58.4483C9.49137 58.5954 9.16823 58.6684 8.8042 58.6684C8.39781 58.6684 8.04079 58.579 7.73319 58.3997C7.42559 58.2189 7.18569 57.9631 7.01354 57.6313C6.84283 57.2985 6.75745 56.9031 6.75745 56.4462C6.75745 56.0945 6.80826 55.7816 6.90983 55.5065C7.01284 55.2298 7.15678 54.9954 7.3416 54.8036C7.52647 54.6119 7.74163 54.4659 7.9872 54.3656C8.23271 54.2652 8.49869 54.2151 8.78513 54.2151C9.03064 54.2151 9.25922 54.2513 9.47091 54.3233C9.68255 54.3939 9.87024 54.4937 10.0339 54.6238C10.199 54.7535 10.3338 54.9079 10.4382 55.0873C10.5426 55.2651 10.6096 55.4613 10.6393 55.6758H9.70798ZM12.2526 54.2747V58.6093H11.3509V54.2747H12.2526ZM15.0597 57.225V55.3584H15.9614V58.6093H15.0957V58.0187H15.0618C14.9884 58.2094 14.8664 58.3624 14.6957 58.4781C14.5263 58.5939 14.3196 58.6515 14.0755 58.6515C13.8582 58.6515 13.667 58.6023 13.5019 58.5035C13.3368 58.4046 13.2077 58.2641 13.1146 58.0823C13.0229 57.9 12.9763 57.6825 12.9749 57.4281V55.3584H13.8765V57.2672C13.878 57.4594 13.9294 57.6109 14.0311 57.7222C14.1326 57.8339 14.2688 57.8896 14.4395 57.8896C14.5482 57.8896 14.6498 57.8647 14.7443 57.8156C14.8389 57.7649 14.9151 57.6899 14.9729 57.5911C15.0322 57.4922 15.0611 57.3705 15.0597 57.225ZM18.1515 58.6728C17.8185 58.6728 17.532 58.6023 17.2922 58.4613C17.0537 58.3187 16.8703 58.121 16.7418 57.8687C16.6148 57.6159 16.5514 57.3253 16.5514 56.9965C16.5514 56.6632 16.6156 56.3712 16.744 56.1204C16.8738 55.8676 17.0579 55.6709 17.2964 55.5298C17.5348 55.3873 17.8185 55.3157 18.1473 55.3157C18.4309 55.3157 18.6792 55.3674 18.8923 55.4702C19.1054 55.5735 19.274 55.718 19.3981 55.9043C19.5223 56.0906 19.5907 56.3091 19.6035 56.5604H18.7526C18.7286 56.398 18.6651 56.2679 18.5621 56.169C18.4605 56.0687 18.3272 56.0185 18.1621 56.0185C18.0224 56.0185 17.9003 56.0568 17.7959 56.1328C17.6929 56.2078 17.6125 56.3171 17.5546 56.4611C17.4968 56.6046 17.4678 56.779 17.4678 56.9836C17.4678 57.1912 17.4961 57.3676 17.5525 57.5131C17.6103 57.6581 17.6915 57.7689 17.7959 57.8454C17.9003 57.9214 18.0224 57.9596 18.1621 57.9596C18.2651 57.9596 18.3575 57.9382 18.4393 57.896C18.5226 57.8538 18.591 57.7922 18.6446 57.7118C18.6997 57.6298 18.7356 57.532 18.7526 57.4177H19.6035C19.5894 57.6661 19.5216 57.8846 19.4003 58.0738C19.2803 58.2616 19.1145 58.4081 18.9029 58.5139C18.6912 58.6197 18.4408 58.6728 18.1515 58.6728ZM20.1808 58.6093V55.3584H21.0824V58.6093H20.1808ZM20.6337 54.9392C20.4996 54.9392 20.3846 54.8945 20.2887 54.8056C20.1942 54.7157 20.1469 54.6075 20.1469 54.4818C20.1469 54.3576 20.1942 54.2513 20.2887 54.1624C20.3846 54.072 20.4996 54.0268 20.6337 54.0268C20.7677 54.0268 20.882 54.072 20.9766 54.1624C21.0725 54.2513 21.1205 54.3576 21.1205 54.4818C21.1205 54.6075 21.0725 54.7157 20.9766 54.8056C20.882 54.8945 20.7677 54.9392 20.6337 54.9392ZM23.0026 58.6624C22.7557 58.6624 22.5321 58.5988 22.3317 58.4717C22.1327 58.343 21.9747 58.1548 21.8576 57.9065C21.7419 57.6566 21.684 57.3507 21.684 56.9881C21.684 56.6156 21.744 56.3056 21.8639 56.0588C21.9839 55.8104 22.1433 55.6247 22.3423 55.502C22.5427 55.3778 22.7621 55.3157 23.0006 55.3157C23.1826 55.3157 23.3343 55.347 23.4556 55.4091C23.5784 55.4697 23.6772 55.5457 23.752 55.6376C23.8281 55.728 23.886 55.8169 23.9255 55.9043H23.953V54.2747H24.8526V58.6093H23.9636V58.0887H23.9255C23.8832 58.1791 23.8232 58.2685 23.7456 58.3575C23.6694 58.4449 23.5699 58.5174 23.4471 58.5755C23.3258 58.6331 23.1776 58.6624 23.0026 58.6624ZM23.2884 57.9447C23.4337 57.9447 23.5565 57.905 23.6567 57.826C23.7583 57.7455 23.8359 57.6338 23.8895 57.4897C23.9446 57.3457 23.972 57.1768 23.972 56.9836C23.972 56.7904 23.9453 56.6225 23.8916 56.48C23.838 56.3374 23.7604 56.2277 23.6588 56.1497C23.5572 56.0722 23.4337 56.0334 23.2884 56.0334C23.1402 56.0334 23.0154 56.0737 22.9138 56.1541C22.8122 56.2346 22.7353 56.3459 22.6831 56.4884C22.6309 56.631 22.6047 56.7959 22.6047 56.9836C22.6047 57.1728 22.6309 57.3402 22.6831 57.4853C22.7367 57.6293 22.8136 57.7421 22.9138 57.824C23.0154 57.9045 23.1402 57.9447 23.2884 57.9447ZM27.0755 58.6728C26.7411 58.6728 26.4532 58.6048 26.2119 58.4697C25.972 58.3326 25.7872 58.1394 25.6574 57.8896C25.5276 57.6382 25.4626 57.3412 25.4626 56.9985C25.4626 56.6642 25.5276 56.3707 25.6574 56.1179C25.7872 55.8656 25.9699 55.6689 26.2056 55.5273C26.4426 55.3863 26.7206 55.3157 27.0395 55.3157C27.254 55.3157 27.4536 55.3505 27.6385 55.4195C27.8247 55.4871 27.987 55.5894 28.1253 55.7265C28.265 55.8636 28.3736 56.0354 28.4513 56.243C28.5289 56.4492 28.5676 56.6901 28.5676 56.9667V57.2146H25.8224V56.6558H27.7189C27.7189 56.5257 27.6907 56.4109 27.6343 56.3106C27.5778 56.2103 27.4995 56.1323 27.3993 56.0757C27.3005 56.0181 27.1856 55.9887 27.0543 55.9887C26.9174 55.9887 26.7961 56.0205 26.6903 56.0841C26.5859 56.1462 26.504 56.2301 26.4447 56.3359C26.3855 56.4407 26.3551 56.557 26.3537 56.6851V57.2166C26.3537 57.3775 26.3834 57.5166 26.4426 57.6338C26.5033 57.7505 26.5887 57.8409 26.6988 57.9045C26.8088 57.968 26.9393 57.9998 27.0903 57.9998C27.1905 57.9998 27.2822 57.9854 27.3655 57.9576C27.4487 57.9293 27.52 57.8866 27.5792 57.8305C27.6385 57.7738 27.6836 57.7048 27.7147 57.6229L28.5486 57.678C28.5063 57.8781 28.4195 58.0535 28.2883 58.203C28.1585 58.351 27.9905 58.4667 27.7845 58.5502C27.5799 58.6316 27.3436 58.6728 27.0755 58.6728ZM31.861 56.2853L31.0356 56.3359C31.0215 56.2654 30.9911 56.2018 30.9445 56.1457C30.898 56.0876 30.8366 56.0419 30.7604 56.0081C30.6856 55.9729 30.596 55.955 30.4916 55.955C30.352 55.955 30.2341 55.9848 30.1382 56.0439C30.0422 56.102 29.9942 56.1795 29.9942 56.2768C29.9942 56.3543 30.0253 56.4199 30.0874 56.4735C30.1495 56.5272 30.256 56.5704 30.407 56.6027L30.9954 56.7214C31.3115 56.7864 31.5471 56.8907 31.7023 57.0348C31.8575 57.1783 31.9351 57.3676 31.9351 57.602C31.9351 57.8151 31.8723 58.0018 31.7468 58.1628C31.6226 58.3237 31.4519 58.4493 31.2346 58.5392C31.0187 58.6281 30.7696 58.6728 30.4874 58.6728C30.057 58.6728 29.7142 58.5829 29.4588 58.4041C29.2047 58.2233 29.0559 57.978 29.0121 57.6676L29.899 57.6209C29.9258 57.752 29.9907 57.8523 30.0937 57.9214C30.1967 57.9889 30.3287 58.0232 30.4895 58.0232C30.6475 58.0232 30.7745 57.9929 30.8705 57.9318C30.9678 57.8697 31.0173 57.7902 31.0187 57.6929C31.0173 57.6109 30.9827 57.5439 30.9149 57.4917C30.8472 57.4381 30.7428 57.3974 30.6017 57.369L30.0387 57.2568C29.7212 57.1932 29.4848 57.0834 29.3296 56.9265C29.1758 56.77 29.0989 56.5704 29.0989 56.3275C29.0989 56.1189 29.1554 55.9391 29.2682 55.7881C29.3826 55.6371 29.5427 55.5204 29.7487 55.4384C29.9561 55.357 30.1988 55.3157 30.4768 55.3157C30.8874 55.3157 31.2106 55.4027 31.4462 55.576C31.6833 55.7498 31.8216 55.9863 31.861 56.2853Z" fill="#FF0000" fill-opacity="0.6"/>
<path d="M40.4823 54.2747V58.6093H39.5658V55.1444H39.5404L38.5477 55.7667V54.9541L39.6208 54.2747H40.4823ZM43.0957 58.6684C42.7966 58.6684 42.5299 58.6137 42.2956 58.5035C42.0628 58.3932 41.878 58.2417 41.7411 58.0485C41.6042 57.8553 41.533 57.6338 41.5273 57.3839H42.4163C42.4262 57.5518 42.4967 57.6879 42.6279 57.7922C42.7592 57.8965 42.9151 57.9487 43.0957 57.9487C43.2397 57.9487 43.3666 57.9174 43.4767 57.8538C43.5882 57.7887 43.6749 57.6993 43.737 57.5851C43.8005 57.4694 43.8323 57.3363 43.8323 57.1868C43.8323 57.0348 43.7998 56.9007 43.7349 56.7849C43.6714 56.6692 43.5832 56.5788 43.4703 56.5137C43.3575 56.4492 43.2283 56.4159 43.083 56.4144C42.956 56.4144 42.8326 56.4407 42.7126 56.4929C42.5941 56.545 42.5017 56.6161 42.4353 56.7065L41.6204 56.5604L41.8258 54.2747H44.4757V55.0237H42.5814L42.4692 56.1094H42.4946C42.5708 56.0021 42.6858 55.9132 42.8396 55.8427C42.9934 55.7722 43.1655 55.7369 43.356 55.7369C43.6171 55.7369 43.8499 55.7985 44.0545 55.9212C44.2591 56.0439 44.4207 56.2127 44.5392 56.4273C44.6577 56.6404 44.7163 56.8858 44.7149 57.1634C44.7163 57.456 44.6486 57.7152 44.5117 57.9427C44.3762 58.1682 44.1864 58.346 43.9423 58.4762C43.6996 58.6043 43.4174 58.6684 43.0957 58.6684ZM47.0177 58.6684C46.7948 58.6669 46.5796 58.6296 46.3722 58.5561C46.1661 58.4831 45.9813 58.3639 45.8176 58.1985C45.6539 58.0336 45.5241 57.8151 45.4282 57.5424C45.3336 57.2702 45.2864 56.9359 45.2864 56.5391C45.2877 56.175 45.3294 55.8502 45.4112 55.5636C45.4945 55.2755 45.613 55.0316 45.7668 54.831C45.922 54.6308 46.1076 54.4783 46.3235 54.374C46.5394 54.2682 46.7813 54.2151 47.0495 54.2151C47.3387 54.2151 47.5941 54.2717 47.8156 54.3844C48.0372 54.4962 48.215 54.6477 48.349 54.8399C48.4845 55.0316 48.5663 55.2467 48.5946 55.4851H47.6908C47.6555 55.3341 47.5814 55.2159 47.4686 55.1295C47.3557 55.0435 47.2159 55.0003 47.0495 55.0003C46.7672 55.0003 46.5528 55.1235 46.406 55.3689C46.2607 55.6142 46.1866 55.948 46.1838 56.3697H46.2134C46.2783 56.2416 46.3658 56.1323 46.4759 56.0419C46.5873 55.95 46.7136 55.8805 46.8547 55.8323C46.9972 55.7831 47.1475 55.7583 47.3055 55.7583C47.5624 55.7583 47.791 55.8189 47.9913 55.9401C48.1917 56.0603 48.3497 56.2252 48.4655 56.4358C48.5811 56.6459 48.639 56.8863 48.639 57.1574C48.639 57.451 48.5706 57.7118 48.4337 57.9402C48.2982 58.1692 48.1084 58.348 47.8643 58.4781C47.6216 58.6063 47.3394 58.6699 47.0177 58.6684ZM47.0135 57.9487C47.1546 57.9487 47.2809 57.9149 47.3923 57.8473C47.5038 57.7798 47.5913 57.6879 47.6548 57.5722C47.7183 57.4565 47.75 57.3268 47.75 57.1828C47.75 57.0387 47.7183 56.9096 47.6548 56.7954C47.5927 56.6811 47.5067 56.5902 47.3966 56.5222C47.2865 56.4546 47.1609 56.4209 47.0198 56.4209C46.914 56.4209 46.8159 56.4407 46.7256 56.48C46.6367 56.5197 46.5584 56.5743 46.4907 56.6449C46.4244 56.7154 46.3722 56.7973 46.3341 56.8907C46.296 56.9821 46.2769 57.0805 46.2769 57.1848C46.2769 57.3243 46.3086 57.452 46.3722 57.5677C46.4371 57.6834 46.5246 57.7758 46.6346 57.8454C46.7461 57.9144 46.8724 57.9487 47.0135 57.9487ZM52.5646 54.0715L51.1679 59.2609H50.3911L51.7878 54.0715H52.5646ZM55.9724 58.6684C55.6565 58.6684 55.3748 58.6142 55.128 58.5055C54.8821 58.3957 54.6884 58.2447 54.5459 58.0525C54.4048 57.8593 54.3318 57.6363 54.3278 57.3839H55.2507C55.2561 57.4897 55.2909 57.5826 55.3545 57.6631C55.4191 57.742 55.5055 57.8036 55.6128 57.8473C55.7201 57.8911 55.8402 57.9129 55.9744 57.9129C56.1144 57.9129 56.2376 57.8881 56.3449 57.8389C56.4522 57.7892 56.5361 57.7212 56.5967 57.6338C56.6573 57.5459 56.6876 57.445 56.6876 57.3308C56.6876 57.2151 56.6553 57.1127 56.5902 57.0238C56.5272 56.9334 56.4353 56.8629 56.3151 56.8122C56.1969 56.7616 56.0558 56.7363 55.8919 56.7363H55.4876V56.0632H55.8919C56.0305 56.0632 56.1522 56.0389 56.258 55.9912C56.3652 55.943 56.4487 55.877 56.5078 55.792C56.5669 55.7061 56.5967 55.6058 56.5967 55.4916C56.5967 55.3828 56.5709 55.2874 56.5182 55.206C56.4676 55.1225 56.3955 55.0574 56.3027 55.0113C56.2108 54.9646 56.1035 54.9412 55.9808 54.9412C55.8566 54.9412 55.7429 54.9641 55.6401 55.0088C55.5373 55.0525 55.4543 55.1156 55.3922 55.1975C55.3301 55.279 55.2974 55.3753 55.2929 55.4851H54.4148C54.4187 55.2353 54.4902 55.0152 54.6283 54.825C54.7664 54.6343 54.9527 54.4853 55.1871 54.3785C55.423 54.2697 55.6888 54.2151 55.9853 54.2151C56.2843 54.2151 56.546 54.2697 56.7705 54.3785C56.9946 54.4868 57.1689 54.6338 57.2931 54.8185C57.4187 55.0018 57.4808 55.2079 57.4793 55.4364C57.4808 55.6793 57.4053 55.8819 57.2528 56.0439C57.1018 56.2063 56.9051 56.3091 56.6623 56.3528V56.3871C56.9811 56.4278 57.224 56.5386 57.3904 56.7194C57.5583 56.8982 57.6417 57.1227 57.6402 57.3924C57.6417 57.6392 57.5702 57.8588 57.4267 58.0505C57.2841 58.2422 57.0869 58.3932 56.8361 58.5035C56.5848 58.6137 56.2967 58.6684 55.9724 58.6684ZM60.1848 54.2747V58.6093H59.2684V55.1444H59.2431L58.2502 55.7667V54.9541L59.3235 54.2747H60.1848ZM61.1494 57.8473V57.1257L62.9593 54.2747H63.5816V55.2735H63.2131L62.0722 57.079V57.1127H64.6441V57.8473H61.1494ZM63.23 58.6093V57.6273L63.2469 57.3074V54.2747H64.1061V58.6093H63.23ZM66.7277 59.8962C66.4356 59.8962 66.1853 59.856 65.9762 59.7755C65.7691 59.6965 65.6037 59.5887 65.481 59.4517C65.3583 59.3146 65.2788 59.1611 65.2421 58.9902L66.076 58.878C66.1013 58.943 66.1416 59.0036 66.1967 59.0603C66.2513 59.1164 66.3244 59.1616 66.4143 59.1954C66.5061 59.2306 66.6179 59.2485 66.749 59.2485C66.9452 59.2485 67.1066 59.2003 67.2338 59.1045C67.3619 59.0101 67.426 58.8512 67.426 58.6281V58.0336H67.3883C67.3485 58.124 67.2894 58.2094 67.2104 58.2899C67.1315 58.3699 67.0297 58.4359 66.9055 58.4866C66.7813 58.5372 66.6333 58.5626 66.4609 58.5626C66.2171 58.5626 65.9946 58.5065 65.7944 58.3932C65.5952 58.279 65.4368 58.1046 65.3181 57.8707C65.2008 57.6348 65.1422 57.3372 65.1422 56.9771C65.1422 56.6091 65.2023 56.3017 65.3225 56.0548C65.4422 55.8074 65.6017 55.6227 65.8008 55.5C66.001 55.3773 66.2205 55.3157 66.459 55.3157C66.6407 55.3157 66.7932 55.347 66.9159 55.4091C67.0391 55.4697 67.1374 55.5457 67.2124 55.6376C67.2884 55.728 67.347 55.8169 67.3883 55.9043H67.422V55.3584H68.3171V58.6411C68.3171 58.9177 68.2495 59.1492 68.1139 59.3354C67.9788 59.5217 67.7911 59.6613 67.5512 59.7541C67.3128 59.849 67.0381 59.8962 66.7277 59.8962ZM66.747 57.8856C66.8921 57.8856 67.0148 57.8493 67.1151 57.7773C67.2169 57.7043 67.2944 57.5995 67.348 57.4644C67.4032 57.3273 67.4305 57.1634 67.4305 56.9732C67.4305 56.7824 67.4037 56.6175 67.35 56.478C67.2964 56.3369 67.2189 56.2276 67.1171 56.1497C67.0157 56.0722 66.8921 56.0334 66.747 56.0334C66.5985 56.0334 66.4739 56.0737 66.372 56.1541C66.2707 56.2331 66.1937 56.3429 66.1416 56.4844C66.0894 56.6255 66.0631 56.7884 66.0631 56.9732C66.0631 57.1609 66.0894 57.3233 66.1416 57.4599C66.1952 57.5955 66.2722 57.7003 66.372 57.7753C66.4739 57.8488 66.5985 57.8856 66.747 57.8856Z" fill="#FF0000" fill-opacity="0.6"/>
<path d="M8.19531 47.9305H66.8046" stroke="#0F900C" stroke-opacity="0.25" stroke-width="5" stroke-linecap="round"/>
<path d="M8.19531 47.9305H29.5529" stroke="#0F900C" stroke-opacity="0.6" stroke-width="5" stroke-linecap="round"/>
<path d="M6.83374 43.7086V39.3739H7.75023V42.953H9.60859V43.7086H6.83374ZM10.1986 43.7086V40.4575H11.1002V43.7086H10.1986ZM10.6515 40.0385C10.5175 40.0385 10.4024 39.994 10.3065 39.9051C10.212 39.8148 10.1647 39.7069 10.1647 39.5813C10.1647 39.4571 10.212 39.3506 10.3065 39.2617C10.4024 39.1714 10.5175 39.1262 10.6515 39.1262C10.7855 39.1262 10.8999 39.1714 10.9944 39.2617C11.0904 39.3506 11.1383 39.4571 11.1383 39.5813C11.1383 39.7069 11.0904 39.8148 10.9944 39.9051C10.8999 39.994 10.7855 40.0385 10.6515 40.0385ZM11.8225 44.9277V40.4575H12.7115V41.0036H12.7517C12.7912 40.9161 12.8483 40.8273 12.9231 40.7369C12.9993 40.6452 13.0981 40.569 13.2195 40.5083C13.3422 40.4463 13.4946 40.4152 13.6766 40.4152C13.9137 40.4152 14.1324 40.4773 14.3327 40.6015C14.5331 40.7243 14.6933 40.9098 14.8132 41.1582C14.9331 41.4051 14.9931 41.7148 14.9931 42.0873C14.9931 42.4499 14.9346 42.7562 14.8175 43.0059C14.7017 43.2542 14.5437 43.4426 14.3433 43.571C14.1444 43.698 13.9214 43.7615 13.6745 43.7615C13.4996 43.7615 13.3507 43.7326 13.2279 43.6747C13.1066 43.6169 13.0071 43.5442 12.9295 43.4567C12.8519 43.3678 12.7926 43.2782 12.7517 43.1879H12.7242V44.9277H11.8225ZM12.7051 42.0831C12.7051 42.2764 12.7319 42.445 12.7856 42.5889C12.8392 42.7329 12.9168 42.8451 13.0184 42.9255C13.12 43.0045 13.2435 43.044 13.3888 43.044C13.5355 43.044 13.6597 43.0038 13.7613 42.9233C13.8629 42.8415 13.9398 42.7286 13.992 42.5847C14.0456 42.4394 14.0724 42.2722 14.0724 42.0831C14.0724 41.8954 14.0463 41.7303 13.9941 41.5878C13.9419 41.4453 13.865 41.3338 13.7634 41.2534C13.6618 41.173 13.537 41.1327 13.3888 41.1327C13.242 41.1327 13.1178 41.1715 13.0163 41.2492C12.9161 41.3267 12.8392 41.4368 12.7856 41.5793C12.7319 41.7218 12.7051 41.8898 12.7051 42.0831ZM15.5942 43.7086V40.4575H16.4959V43.7086H15.5942ZM16.0472 40.0385C15.9132 40.0385 15.7981 39.994 15.7022 39.9051C15.6076 39.8148 15.5604 39.7069 15.5604 39.5813C15.5604 39.4571 15.6076 39.3506 15.7022 39.2617C15.7981 39.1714 15.9132 39.1262 16.0472 39.1262C16.1812 39.1262 16.2955 39.1714 16.3901 39.2617C16.486 39.3506 16.534 39.4571 16.534 39.5813C16.534 39.7069 16.486 39.8148 16.3901 39.9051C16.2955 39.994 16.1812 40.0385 16.0472 40.0385ZM18.4162 43.7615C18.1692 43.7615 17.9456 43.698 17.7452 43.571C17.5462 43.4426 17.3882 43.2542 17.2711 43.0059C17.1554 42.7562 17.0975 42.4499 17.0975 42.0873C17.0975 41.7148 17.1575 41.4051 17.2775 41.1582C17.3974 40.9098 17.5569 40.7243 17.7558 40.6015C17.9561 40.4773 18.1756 40.4152 18.414 40.4152C18.5961 40.4152 18.7478 40.4463 18.8691 40.5083C18.9919 40.569 19.0906 40.6452 19.1654 40.7369C19.2416 40.8273 19.2995 40.9161 19.339 41.0036H19.3665V39.3739H20.266V43.7086H19.3771V43.1879H19.339C19.2967 43.2782 19.2367 43.3678 19.1591 43.4567C19.0829 43.5442 18.9834 43.6169 18.8607 43.6747C18.7393 43.7326 18.5911 43.7615 18.4162 43.7615ZM18.7019 43.044C18.8472 43.044 18.97 43.0045 19.0702 42.9255C19.1718 42.8451 19.2494 42.7329 19.303 42.5889C19.358 42.445 19.3856 42.2764 19.3856 42.0831C19.3856 41.8898 19.3587 41.7218 19.3051 41.5793C19.2515 41.4368 19.1739 41.3267 19.0723 41.2492C18.9707 41.1715 18.8472 41.1327 18.7019 41.1327C18.5538 41.1327 18.4288 41.173 18.3273 41.2534C18.2256 41.3338 18.1488 41.4453 18.0966 41.5878C18.0444 41.7303 18.0182 41.8954 18.0182 42.0831C18.0182 42.2722 18.0444 42.4394 18.0966 42.5847C18.1502 42.7286 18.2271 42.8415 18.3273 42.9233C18.4288 43.0038 18.5538 43.044 18.7019 43.044ZM22.489 43.7721C22.1546 43.7721 21.8667 43.7044 21.6254 43.5689C21.3855 43.4321 21.2007 43.2387 21.0709 42.989C20.941 42.7378 20.8761 42.4408 20.8761 42.0979C20.8761 41.7635 20.941 41.47 21.0709 41.2174C21.2007 40.9648 21.3834 40.768 21.6191 40.6269C21.8561 40.4858 22.1341 40.4152 22.453 40.4152C22.6675 40.4152 22.8672 40.4498 23.052 40.5189C23.2382 40.5867 23.4005 40.689 23.5388 40.8258C23.6785 40.9627 23.7871 41.1349 23.8647 41.3423C23.9423 41.5483 23.9812 41.7896 23.9812 42.0662V42.3138H21.236V41.755H23.1324C23.1324 41.6252 23.1042 41.5102 23.0477 41.41C22.9913 41.3098 22.913 41.2315 22.8128 41.175C22.714 41.1172 22.599 41.0883 22.4678 41.0883C22.3309 41.0883 22.2096 41.1201 22.1037 41.1835C21.9993 41.2456 21.9175 41.3296 21.8582 41.4354C21.799 41.5398 21.7686 41.6562 21.7672 41.7846V42.3159C21.7672 42.4768 21.7968 42.6157 21.8561 42.7329C21.9168 42.85 22.0022 42.9403 22.1122 43.0038C22.2223 43.0673 22.3528 43.099 22.5038 43.099C22.604 43.099 22.6957 43.0849 22.7789 43.0567C22.8622 43.0285 22.9335 42.9862 22.9927 42.9297C23.052 42.8733 23.0971 42.8041 23.1282 42.7223L23.9621 42.7773C23.9198 42.9777 23.833 43.1527 23.7018 43.3022C23.572 43.4504 23.404 43.5661 23.198 43.6494C22.9934 43.7312 22.7571 43.7721 22.489 43.7721ZM27.2745 41.3846L26.4491 41.4354C26.435 41.3648 26.4046 41.3014 26.3581 41.2449C26.3115 41.1871 26.2501 41.1412 26.1739 41.1073C26.0992 41.0721 26.0096 41.0544 25.9051 41.0544C25.7654 41.0544 25.6476 41.0841 25.5517 41.1433C25.4557 41.2012 25.4077 41.2788 25.4077 41.3762C25.4077 41.4537 25.4388 41.5194 25.5008 41.573C25.5629 41.6266 25.6695 41.6696 25.8205 41.7021L26.4088 41.8206C26.7249 41.8855 26.9606 41.99 27.1158 42.1339C27.271 42.2778 27.3486 42.4669 27.3486 42.7011C27.3486 42.9142 27.2858 43.1012 27.1602 43.262C27.0361 43.4229 26.8653 43.5485 26.648 43.6388C26.4321 43.7277 26.1831 43.7721 25.9009 43.7721C25.4705 43.7721 25.1276 43.6825 24.8722 43.5033C24.6182 43.3227 24.4694 43.0772 24.4256 42.7667L25.3125 42.7201C25.3393 42.8514 25.4042 42.9516 25.5072 43.0207C25.6102 43.0884 25.7421 43.1223 25.903 43.1223C26.0611 43.1223 26.188 43.092 26.284 43.0313C26.3813 42.9692 26.4307 42.8895 26.4321 42.7921C26.4307 42.7103 26.3962 42.6433 26.3284 42.5911C26.2607 42.5374 26.1563 42.4965 26.0152 42.4683L25.4522 42.3561C25.1347 42.2926 24.8984 42.1826 24.7431 42.0259C24.5893 41.8693 24.5124 41.6696 24.5124 41.4269C24.5124 41.2181 24.5689 41.0382 24.6818 40.8872C24.796 40.7362 24.9562 40.6198 25.1622 40.538C25.3696 40.4561 25.6124 40.4152 25.8903 40.4152C26.3009 40.4152 26.6241 40.502 26.8597 40.6756C27.0968 40.8491 27.235 41.0854 27.2745 41.3846Z" fill="#0F900C" fill-opacity="0.6"/>
<path d="M44.5566 44.2053V43.545L46.0996 42.1162C46.2308 41.9893 46.3409 41.8749 46.4298 41.7734C46.5201 41.6717 46.5885 41.5723 46.635 41.4749C46.6816 41.3762 46.7049 41.2696 46.7049 41.1553C46.7049 41.0283 46.676 40.919 46.6182 40.8273C46.5603 40.7341 46.4813 40.6629 46.3811 40.6135C46.2809 40.5627 46.1673 40.5373 46.0403 40.5373C45.9077 40.5373 45.792 40.5641 45.6932 40.6177C45.5944 40.6713 45.5182 40.7483 45.4646 40.8484C45.411 40.9486 45.3842 41.0678 45.3842 41.2061H44.5143C44.5143 40.9225 44.5785 40.6763 44.7068 40.4674C44.8353 40.2586 45.0152 40.097 45.2466 39.9828C45.478 39.8685 45.7447 39.8113 46.0467 39.8113C46.3571 39.8113 46.6273 39.8663 46.8573 39.9764C47.0887 40.085 47.2686 40.236 47.397 40.4293C47.5255 40.6226 47.5896 40.8442 47.5896 41.0939C47.5896 41.2576 47.5572 41.4192 47.4923 41.5786C47.4288 41.7381 47.3152 41.9152 47.1515 42.1099C46.9878 42.3032 46.7571 42.5353 46.4594 42.8062L45.8265 43.4264V43.456H47.6468V44.2053H44.5566ZM49.9132 44.2646C49.597 44.2646 49.3155 44.2102 49.0686 44.1016C48.8231 43.9915 48.629 43.8405 48.4865 43.6487C48.3454 43.4554 48.2728 43.2324 48.2686 42.9798H49.1913C49.197 43.0856 49.2316 43.1787 49.2951 43.2592C49.36 43.3382 49.4461 43.3996 49.5533 43.4433C49.6605 43.4871 49.7811 43.5089 49.9152 43.5089C50.0547 43.5089 50.1784 43.4843 50.2857 43.4349C50.393 43.3855 50.4769 43.317 50.5375 43.2296C50.5981 43.1421 50.6284 43.0412 50.6284 42.9269C50.6284 42.8112 50.5961 42.7089 50.5311 42.62C50.4675 42.5297 50.3761 42.4591 50.2559 42.4083C50.1377 42.3575 49.9961 42.3321 49.8327 42.3321H49.4284V41.6591H49.8327C49.9708 41.6591 50.093 41.6351 50.1988 41.5871C50.3061 41.5391 50.3895 41.4728 50.4486 41.3881C50.5077 41.3021 50.5375 41.2019 50.5375 41.0876C50.5375 40.979 50.5112 40.8837 50.4591 40.8018C50.4084 40.7186 50.3364 40.6537 50.2435 40.6071C50.1516 40.5606 50.0443 40.5373 49.9216 40.5373C49.7975 40.5373 49.6837 40.5599 49.5808 40.605C49.4778 40.6488 49.3952 40.7115 49.3332 40.7934C49.2711 40.8753 49.2379 40.9712 49.2337 41.0812H48.3553C48.3595 40.8315 48.4308 40.6114 48.5691 40.4209C48.7074 40.2304 48.8936 40.0815 49.1279 39.9743C49.3635 39.8656 49.6295 39.8113 49.9256 39.8113C50.2251 39.8113 50.4869 39.8656 50.7109 39.9743C50.9354 40.0829 51.1097 40.2297 51.2339 40.4145C51.3595 40.598 51.4216 40.804 51.4201 41.0326C51.4216 41.2753 51.3461 41.4777 51.1937 41.64C51.0427 41.8023 50.846 41.9053 50.6031 41.949V41.9829C50.922 42.0238 51.1648 42.1346 51.3312 42.3152C51.4991 42.4944 51.5826 42.7188 51.5811 42.9883C51.5826 43.2352 51.511 43.4546 51.367 43.6465C51.2244 43.8384 51.0278 43.9894 50.7764 44.0995C50.5256 44.2095 50.2375 44.2646 49.9132 44.2646ZM55.5158 39.6674L54.1187 44.8572H53.3418L54.739 39.6674H55.5158ZM58.9042 44.2646C58.6052 44.2646 58.3385 44.2095 58.1041 44.0995C57.8716 43.9894 57.6864 43.8377 57.5498 43.6444C57.4127 43.4511 57.3417 43.2296 57.3357 42.9798H58.2248C58.2347 43.1477 58.3052 43.2839 58.4364 43.3883C58.568 43.4927 58.7235 43.545 58.9042 43.545C59.0483 43.545 59.1754 43.5132 59.2852 43.4497C59.397 43.3848 59.4834 43.2952 59.5455 43.1809C59.6091 43.0652 59.6408 42.9325 59.6408 42.783C59.6408 42.6306 59.6086 42.4965 59.5435 42.3808C59.4799 42.2651 59.392 42.1748 59.2788 42.1099C59.166 42.045 59.0369 42.0118 58.8918 42.0104C58.7647 42.0104 58.641 42.0365 58.5213 42.0887C58.4026 42.1409 58.3102 42.2122 58.2441 42.3025L57.4291 42.1565L57.6342 39.8706H60.2845V40.6198H58.3902L58.2779 41.7056H58.3033C58.3792 41.5984 58.4945 41.5095 58.648 41.4389C58.8019 41.3684 58.9743 41.3331 59.1645 41.3331C59.4258 41.3331 59.6587 41.3945 59.8634 41.5173C60.0675 41.64 60.2294 41.8086 60.3476 42.0231C60.4663 42.2362 60.5249 42.4817 60.5235 42.7597C60.5249 43.0518 60.4574 43.3114 60.3203 43.5386C60.1847 43.7643 59.995 43.9422 59.7511 44.0719C59.5082 44.2004 59.2261 44.2646 58.9042 44.2646ZM62.7799 44.2646C62.4536 44.2646 62.164 44.2117 61.9097 44.1058C61.6574 43.9986 61.4592 43.8526 61.3152 43.6677C61.1711 43.4829 61.0991 43.2733 61.0991 43.0391C61.0991 42.8585 61.1403 42.6926 61.2218 42.5417C61.3052 42.3893 61.418 42.263 61.5605 42.1628C61.7031 42.0612 61.8625 41.9963 62.0389 41.9681V41.9385C61.8074 41.8919 61.6196 41.7797 61.4761 41.6019C61.3321 41.4227 61.26 41.2146 61.26 40.9775C61.26 40.7532 61.3256 40.5535 61.4567 40.3786C61.5884 40.2021 61.7682 40.0639 61.9966 39.9637C62.2266 39.8621 62.4879 39.8113 62.7799 39.8113C63.072 39.8113 63.3322 39.8621 63.5607 39.9637C63.7907 40.0653 63.9715 40.2043 64.1026 40.3807C64.2337 40.5556 64.3003 40.7546 64.3018 40.9775C64.3003 41.216 64.2268 41.4241 64.0812 41.6019C63.9362 41.7797 63.7499 41.8919 63.5225 41.9385V41.9681C63.6963 41.9963 63.8538 42.0612 63.9948 42.1628C64.1374 42.263 64.2501 42.3893 64.3335 42.5417C64.418 42.6926 64.4612 42.8585 64.4622 43.0391C64.4612 43.2733 64.3882 43.4829 64.2446 43.6677C64.1006 43.8526 63.9014 43.9986 63.6476 44.1058C63.3948 44.2117 63.1057 44.2646 62.7799 44.2646ZM62.7799 43.5915C62.9249 43.5915 63.0521 43.5654 63.1609 43.5132C63.2691 43.4596 63.3541 43.3862 63.4147 43.2931C63.4768 43.1985 63.5081 43.0899 63.5081 42.9671C63.5081 42.8415 63.4763 42.7307 63.4127 42.6348C63.3491 42.5374 63.2632 42.4612 63.1544 42.4062C63.0456 42.3498 62.921 42.3216 62.7799 42.3216C62.6398 42.3216 62.5152 42.3498 62.4049 42.4062C62.2951 42.4612 62.2082 42.5374 62.1446 42.6348C62.0826 42.7307 62.0518 42.8415 62.0518 42.9671C62.0518 43.0899 62.0821 43.1985 62.1427 43.2931C62.2033 43.3862 62.2887 43.4596 62.3989 43.5132C62.5087 43.5654 62.6359 43.5915 62.7799 43.5915ZM62.7799 41.6549C62.9011 41.6549 63.0089 41.6301 63.1038 41.5807C63.1981 41.5314 63.2721 41.4629 63.3258 41.3755C63.3794 41.288 63.4062 41.1871 63.4062 41.0728C63.4062 40.9599 63.3794 40.8611 63.3258 40.7765C63.2721 40.6904 63.1986 40.6234 63.1057 40.5754C63.0124 40.526 62.9041 40.5013 62.7799 40.5013C62.6572 40.5013 62.5485 40.526 62.4536 40.5754C62.3592 40.6234 62.2852 40.6904 62.2316 40.7765C62.1794 40.8611 62.1531 40.9599 62.1531 41.0728C62.1531 41.1871 62.1799 41.288 62.2336 41.3755C62.2872 41.4629 62.3612 41.5314 62.4561 41.5807C62.5504 41.6301 62.6582 41.6549 62.7799 41.6549ZM66.5761 45.4922C66.284 45.4922 66.0337 45.4519 65.8251 45.3715C65.6175 45.2925 65.4526 45.1846 65.3299 45.0477C65.2067 44.9109 65.1273 44.757 65.0905 44.5863L65.9244 44.4741C65.9498 44.539 65.99 44.5997 66.0451 44.6561C66.1003 44.7126 66.1728 44.7577 66.2632 44.7916C66.3546 44.8269 66.4663 44.8445 66.5975 44.8445C66.7936 44.8445 66.9551 44.7965 67.0822 44.7006C67.2104 44.606 67.2749 44.4473 67.2749 44.2244V43.6296H67.2367C67.197 43.7199 67.1379 43.8053 67.0589 43.8857C66.9799 43.9661 66.8781 44.0318 66.7539 44.0825C66.6297 44.1333 66.4817 44.1587 66.3099 44.1587C66.0655 44.1587 65.8435 44.1023 65.6428 43.9894C65.4441 43.8751 65.2852 43.7009 65.1665 43.4666C65.0498 43.231 64.9912 42.9332 64.9912 42.5734C64.9912 42.2051 65.0508 41.8975 65.171 41.6506C65.2907 41.4037 65.4501 41.2188 65.6493 41.0961C65.8494 40.9733 66.069 40.9119 66.3074 40.9119C66.4897 40.9119 66.6422 40.943 66.7648 41.005C66.8875 41.0657 66.9864 41.1419 67.0609 41.2336C67.1374 41.324 67.196 41.4128 67.2367 41.5003H67.2705V40.9542H68.166V44.237C68.166 44.5136 68.098 44.745 67.9629 44.9313C67.8273 45.1175 67.6395 45.2572 67.3996 45.3504C67.1612 45.4449 66.8865 45.4922 66.5761 45.4922ZM66.5955 43.4814C66.7405 43.4814 66.8637 43.4455 66.9635 43.3735C67.0653 43.3001 67.1428 43.1957 67.1965 43.0602C67.2516 42.9234 67.2789 42.7597 67.2789 42.5692C67.2789 42.3787 67.2521 42.2136 67.1985 42.0739C67.1448 41.9328 67.0673 41.8234 66.966 41.7459C66.8642 41.6682 66.7405 41.6294 66.5955 41.6294C66.4475 41.6294 66.3223 41.6697 66.221 41.7501C66.1191 41.8291 66.0422 41.9392 65.99 42.0803C65.9379 42.2214 65.9115 42.3843 65.9115 42.5692C65.9115 42.7569 65.9379 42.9191 65.99 43.056C66.0437 43.1915 66.1206 43.2966 66.221 43.3714C66.3223 43.4447 66.4475 43.4814 66.5955 43.4814Z" fill="#0F900C" fill-opacity="0.6"/>
<path d="M8.19531 33.0298H66.8046" stroke="#051283" stroke-opacity="0.25" stroke-width="5" stroke-linecap="round"/>
<path d="M8.19531 33.0298H53.394" stroke="#051283" stroke-opacity="0.6" stroke-width="5" stroke-linecap="round"/>
<path d="M6.83374 28.808V24.4732H8.54394C8.8727 24.4732 9.15283 24.536 9.38424 24.6616C9.61564 24.7858 9.79202 24.9586 9.91336 25.1801C10.0361 25.4003 10.0975 25.6543 10.0975 25.9421C10.0975 26.23 10.0354 26.4839 9.91122 26.7041C9.78705 26.9242 9.60715 27.0957 9.37152 27.2184C9.13728 27.3412 8.85367 27.4026 8.52064 27.4026H7.43061V26.6681H8.37248C8.54886 26.6681 8.69424 26.6378 8.80852 26.5771C8.9242 26.515 9.01028 26.4296 9.06675 26.321C9.12457 26.2109 9.15353 26.0846 9.15353 25.9421C9.15353 25.7982 9.12457 25.6726 9.06675 25.5654C9.01028 25.4567 8.9242 25.3728 8.80852 25.3135C8.6928 25.2528 8.54607 25.2225 8.36826 25.2225H7.75023V28.808H6.83374ZM10.6759 28.808V25.5569H11.55V26.1241H11.5839C11.6431 25.9223 11.7426 25.77 11.8823 25.6669C12.022 25.5625 12.1829 25.5103 12.3649 25.5103C12.41 25.5103 12.4587 25.5132 12.5109 25.5188C12.5631 25.5244 12.609 25.5322 12.6485 25.5421V26.3421C12.6062 26.3294 12.5476 26.3181 12.4728 26.3083C12.398 26.2984 12.3296 26.2935 12.2675 26.2935C12.1349 26.2935 12.0163 26.3224 11.9119 26.3802C11.8089 26.4367 11.7271 26.5157 11.6664 26.6173C11.6072 26.7189 11.5775 26.836 11.5775 26.9687V28.808H10.6759ZM14.4322 28.8714C14.1035 28.8714 13.8191 28.8016 13.5793 28.6619C13.3408 28.5208 13.1566 28.3247 13.0269 28.0735C12.897 27.8209 12.8321 27.5281 12.8321 27.1951C12.8321 26.8593 12.897 26.5658 13.0269 26.3146C13.1566 26.0621 13.3408 25.8659 13.5793 25.7262C13.8191 25.5851 14.1035 25.5146 14.4322 25.5146C14.761 25.5146 15.0447 25.5851 15.2831 25.7262C15.523 25.8659 15.7078 26.0621 15.8377 26.3146C15.9674 26.5658 16.0324 26.8593 16.0324 27.1951C16.0324 27.5281 15.9674 27.8209 15.8377 28.0735C15.7078 28.3247 15.523 28.5208 15.2831 28.6619C15.0447 28.8016 14.761 28.8714 14.4322 28.8714ZM14.4365 28.173C14.5861 28.173 14.7109 28.1307 14.8111 28.046C14.9113 27.9599 14.9868 27.8428 15.0376 27.6946C15.0898 27.5465 15.1159 27.3778 15.1159 27.1888C15.1159 26.9997 15.0898 26.8311 15.0376 26.6829C14.9868 26.5348 14.9113 26.4176 14.8111 26.3316C14.7109 26.2455 14.5861 26.2025 14.4365 26.2025C14.2855 26.2025 14.1585 26.2455 14.0555 26.3316C13.9539 26.4176 13.877 26.5348 13.8248 26.6829C13.774 26.8311 13.7486 26.9997 13.7486 27.1888C13.7486 27.3778 13.774 27.5465 13.8248 27.6946C13.877 27.8428 13.9539 27.9599 14.0555 28.046C14.1585 28.1307 14.2855 28.173 14.4365 28.173ZM18.3479 25.5569V26.2342H16.3901V25.5569H18.3479ZM16.8346 24.778H17.7362V27.8089C17.7362 27.8922 17.7489 27.9571 17.7743 28.0037C17.7997 28.0488 17.835 28.0805 17.8801 28.0989C17.9267 28.1173 17.9803 28.1264 18.041 28.1264C18.0833 28.1264 18.1257 28.1229 18.168 28.1158C18.2103 28.1074 18.2428 28.101 18.2653 28.0968L18.4072 28.7677C18.362 28.7818 18.2985 28.7981 18.2167 28.8164C18.1349 28.8362 18.0354 28.8482 17.9182 28.8524C17.7009 28.8608 17.5105 28.8319 17.3468 28.7656C17.1845 28.6993 17.0582 28.5963 16.9679 28.4566C16.8776 28.3169 16.8331 28.1405 16.8346 27.9275V24.778ZM20.3819 28.8714C20.0475 28.8714 19.7597 28.8037 19.5184 28.6683C19.2785 28.5314 19.0937 28.3381 18.9638 28.0883C18.834 27.8372 18.7691 27.5401 18.7691 27.1972C18.7691 26.8628 18.834 26.5693 18.9638 26.3168C19.0937 26.0642 19.2764 25.8673 19.512 25.7262C19.7491 25.5851 20.027 25.5146 20.346 25.5146C20.5604 25.5146 20.7601 25.5491 20.9449 25.6183C21.1312 25.686 21.2934 25.7883 21.4317 25.9252C21.5714 26.0621 21.6801 26.2342 21.7577 26.4416C21.8353 26.6477 21.8741 26.8889 21.8741 27.1655V27.4131H19.1289V26.8544H21.0254C21.0254 26.7245 20.9971 26.6096 20.9407 26.5094C20.8843 26.4092 20.8059 26.3309 20.7058 26.2744C20.607 26.2166 20.492 26.1876 20.3608 26.1876C20.2239 26.1876 20.1025 26.2194 19.9967 26.2829C19.8923 26.345 19.8104 26.4289 19.7512 26.5348C19.6919 26.6392 19.6616 26.7556 19.6602 26.884V27.4152C19.6602 27.5761 19.6898 27.7151 19.7491 27.8322C19.8097 27.9493 19.8951 28.0396 20.0052 28.1031C20.1152 28.1666 20.2458 28.1984 20.3967 28.1984C20.4969 28.1984 20.5886 28.1843 20.6719 28.156C20.7551 28.1278 20.8264 28.0855 20.8857 28.029C20.9449 27.9726 20.9901 27.9035 21.0211 27.8216L21.855 27.8767C21.8127 28.077 21.726 28.252 21.5947 28.4016C21.4649 28.5497 21.297 28.6655 21.091 28.7487C20.8864 28.8305 20.65 28.8714 20.3819 28.8714ZM20.001 25.1378L20.4497 24.1748H21.2836L20.638 25.1378H20.001ZM22.4625 28.808V25.5569H23.3642V28.808H22.4625ZM22.9155 25.1378C22.7814 25.1378 22.6664 25.0934 22.5705 25.0045C22.4759 24.9142 22.4286 24.8062 22.4286 24.6806C22.4286 24.5564 22.4759 24.45 22.5705 24.361C22.6664 24.2707 22.7814 24.2256 22.9155 24.2256C23.0495 24.2256 23.1638 24.2707 23.2583 24.361C23.3543 24.45 23.4023 24.5564 23.4023 24.6806C23.4023 24.8062 23.3543 24.9142 23.2583 25.0045C23.1638 25.0934 23.0495 25.1378 22.9155 25.1378ZM24.9881 26.9284V28.808H24.0865V25.5569H24.9458V26.1305H24.9839C25.0559 25.9414 25.1765 25.7919 25.3458 25.6818C25.5151 25.5703 25.7204 25.5146 25.9617 25.5146C26.1875 25.5146 26.3844 25.564 26.5523 25.6627C26.7202 25.7615 26.8507 25.9026 26.9438 26.086C27.037 26.2681 27.0835 26.4854 27.0835 26.738V28.808H26.1819V26.8988C26.1833 26.6999 26.1325 26.5446 26.0295 26.4332C25.9265 26.3203 25.7847 26.2638 25.6041 26.2638C25.4827 26.2638 25.3754 26.2899 25.2823 26.3421C25.1906 26.3943 25.1186 26.4705 25.0664 26.5707C25.0156 26.6695 24.9895 26.7888 24.9881 26.9284ZM29.2758 28.8714C28.9414 28.8714 28.6535 28.8037 28.4122 28.6683C28.1723 28.5314 27.9875 28.3381 27.8576 28.0883C27.7278 27.8372 27.6629 27.5401 27.6629 27.1972C27.6629 26.8628 27.7278 26.5693 27.8576 26.3168C27.9875 26.0642 28.1702 25.8673 28.4058 25.7262C28.6429 25.5851 28.9209 25.5146 29.2398 25.5146C29.4542 25.5146 29.6539 25.5491 29.8388 25.6183C30.025 25.686 30.1873 25.7883 30.3256 25.9252C30.4652 26.0621 30.5739 26.2342 30.6515 26.4416C30.7291 26.6477 30.7679 26.8889 30.7679 27.1655V27.4131H28.0227V26.8544H29.9192C29.9192 26.7245 29.891 26.6096 29.8346 26.5094C29.7781 26.4092 29.6998 26.3309 29.5996 26.2744C29.5008 26.2166 29.3858 26.1876 29.2546 26.1876C29.1177 26.1876 28.9964 26.2194 28.8905 26.2829C28.7861 26.345 28.7043 26.4289 28.645 26.5348C28.5858 26.6392 28.5554 26.7556 28.554 26.884V27.4152C28.554 27.5761 28.5836 27.7151 28.6429 27.8322C28.7036 27.9493 28.7889 28.0396 28.899 28.1031C29.0091 28.1666 29.1396 28.1984 29.2906 28.1984C29.3908 28.1984 29.4825 28.1843 29.5657 28.156C29.649 28.1278 29.7202 28.0855 29.7795 28.029C29.8388 27.9726 29.8839 27.9035 29.915 27.8216L30.7489 27.8767C30.7065 28.077 30.6198 28.252 30.4885 28.4016C30.3588 28.5497 30.1908 28.6655 29.9848 28.7487C29.7802 28.8305 29.5438 28.8714 29.2758 28.8714ZM34.0613 26.4839L33.2359 26.5348C33.2218 26.4642 33.1914 26.4007 33.1448 26.3443C33.0983 26.2864 33.0369 26.2406 32.9607 26.2067C32.8859 26.1714 32.7963 26.1537 32.6919 26.1537C32.5522 26.1537 32.4344 26.1834 32.3385 26.2427C32.2425 26.3005 32.1945 26.3781 32.1945 26.4755C32.1945 26.5531 32.2256 26.6187 32.2876 26.6723C32.3497 26.7259 32.4563 26.769 32.6072 26.8014L33.1956 26.92C33.5117 26.9849 33.7474 27.0893 33.9026 27.2332C34.0578 27.3771 34.1354 27.5662 34.1354 27.8005C34.1354 28.0135 34.0726 28.2005 33.947 28.3614C33.8229 28.5222 33.6521 28.6478 33.4348 28.7381C33.2189 28.827 32.9699 28.8714 32.6877 28.8714C32.2573 28.8714 31.9144 28.7818 31.659 28.6026C31.405 28.422 31.2562 28.1765 31.2124 27.8661L32.0993 27.8195C32.1261 27.9507 32.191 28.0509 32.294 28.1201C32.397 28.1878 32.5289 28.2217 32.6898 28.2217C32.8478 28.2217 32.9748 28.1913 33.0708 28.1307C33.1681 28.0686 33.2175 27.9889 33.2189 27.8915C33.2175 27.8097 33.1829 27.7426 33.1152 27.6904C33.0475 27.6368 32.9431 27.5959 32.802 27.5676L32.239 27.4555C31.9215 27.3919 31.6851 27.2819 31.5299 27.1253C31.3761 26.9687 31.2992 26.769 31.2992 26.5263C31.2992 26.3175 31.3557 26.1376 31.4685 25.9866C31.5828 25.8356 31.743 25.7191 31.949 25.6373C32.1564 25.5555 32.3991 25.5146 32.6771 25.5146C33.0877 25.5146 33.4108 25.6013 33.6465 25.7749C33.8836 25.9485 34.0218 26.1848 34.0613 26.4839Z" fill="#051283" fill-opacity="0.6"/>
<path d="M46.2203 28.8672C45.9973 28.8658 45.7821 28.8284 45.5747 28.7551C45.3687 28.6816 45.1839 28.5624 45.0202 28.3973C44.8565 28.2322 44.7267 28.0135 44.6307 27.7412C44.5362 27.4689 44.4889 27.1345 44.4889 26.738C44.4903 26.3739 44.532 26.0486 44.6138 25.7622C44.6971 25.4744 44.8156 25.2303 44.9694 25.0299C45.1246 24.8295 45.3101 24.6771 45.526 24.5727C45.7419 24.4668 45.9839 24.4139 46.252 24.4139C46.5413 24.4139 46.7967 24.4704 47.0182 24.5833C47.2398 24.6947 47.4175 24.8464 47.5516 25.0383C47.687 25.2303 47.7689 25.4454 47.7971 25.6839H46.8933C46.858 25.5329 46.784 25.4144 46.6711 25.3283C46.5582 25.2422 46.4185 25.1992 46.252 25.1992C45.9698 25.1992 45.7553 25.3219 45.6086 25.5675C45.4632 25.813 45.3891 26.1467 45.3863 26.5686H45.416C45.4809 26.4402 45.5683 26.3309 45.6784 26.2406C45.7899 26.1488 45.9162 26.079 46.0573 26.031C46.1998 25.9816 46.3501 25.9569 46.5081 25.9569C46.7649 25.9569 46.9935 26.0176 47.1939 26.1389C47.3943 26.2589 47.5523 26.424 47.668 26.6342C47.7837 26.8445 47.8415 27.085 47.8415 27.356C47.8415 27.6495 47.7731 27.9105 47.6363 28.1391C47.5008 28.3677 47.311 28.5469 47.0669 28.6767C46.8242 28.8051 46.542 28.8686 46.2203 28.8672ZM46.216 28.1476C46.3571 28.1476 46.4834 28.1137 46.5949 28.046C46.7064 27.9782 46.7938 27.8865 46.8574 27.7708C46.9208 27.6551 46.9526 27.5253 46.9526 27.3814C46.9526 27.2375 46.9208 27.1083 46.8574 26.994C46.7953 26.8798 46.7092 26.7888 46.5991 26.721C46.4891 26.6533 46.3635 26.6194 46.2224 26.6194C46.1165 26.6194 46.0185 26.6392 45.9282 26.6787C45.8393 26.7182 45.761 26.7732 45.6932 26.8438C45.6269 26.9143 45.5747 26.9962 45.5366 27.0893C45.4985 27.181 45.4794 27.2791 45.4794 27.3835C45.4794 27.5232 45.5112 27.6509 45.5747 27.7666C45.6396 27.8823 45.7271 27.9747 45.8372 28.0438C45.9486 28.113 46.0749 28.1476 46.216 28.1476ZM48.4914 28.808V28.1476L50.0344 26.7189C50.1655 26.5919 50.2758 26.4776 50.3647 26.376C50.4546 26.2744 50.5232 26.175 50.5699 26.0776C50.6165 25.9788 50.6399 25.8723 50.6399 25.758C50.6399 25.631 50.6106 25.5216 50.553 25.4299C50.4949 25.3368 50.4159 25.2655 50.316 25.2161C50.2157 25.1653 50.102 25.14 49.9748 25.14C49.8422 25.14 49.7265 25.1667 49.6279 25.2204C49.5292 25.274 49.4529 25.3509 49.3994 25.4511C49.3457 25.5513 49.3189 25.6705 49.3189 25.8087H48.449C48.449 25.5251 48.5132 25.2789 48.6416 25.0701C48.77 24.8613 48.95 24.6997 49.1814 24.5854C49.4128 24.4711 49.6793 24.4139 49.9813 24.4139C50.2917 24.4139 50.5619 24.469 50.7919 24.579C51.0233 24.6877 51.2031 24.8387 51.3318 25.032C51.4604 25.2253 51.5245 25.4469 51.5245 25.6966C51.5245 25.8603 51.4917 26.0218 51.4271 26.1813C51.3636 26.3407 51.2498 26.5178 51.0864 26.7125C50.9225 26.9059 50.692 27.138 50.394 27.4089L49.7612 28.029V28.0587H51.5816V28.808H48.4914ZM55.5213 24.27L54.1247 29.4599H53.3478L54.7445 24.27H55.5213ZM57.4982 28.808L59.2952 25.2521V25.2225H57.2021V24.4732H60.2434V25.2331L58.4444 28.808H57.4982ZM62.3821 24.4139C62.6046 24.4139 62.8192 24.4513 63.0253 24.5261C63.2329 24.6009 63.4177 24.7202 63.5796 24.8838C63.7435 25.0475 63.8727 25.2648 63.967 25.5357C64.0629 25.8052 64.1116 26.1361 64.1131 26.5284C64.1131 26.8967 64.0718 27.2255 63.9884 27.5147C63.9064 27.8026 63.7887 28.0474 63.6348 28.2492C63.4813 28.4509 63.2955 28.6048 63.0785 28.7106C62.8609 28.815 62.618 28.8672 62.3503 28.8672C62.0607 28.8672 61.8054 28.8115 61.5839 28.7C61.3624 28.5871 61.1841 28.434 61.0485 28.2407C60.9144 28.046 60.8334 27.8273 60.8051 27.5846H61.7086C61.7439 27.7426 61.8184 27.8654 61.9311 27.9529C62.0439 28.0389 62.1834 28.082 62.3503 28.082C62.6324 28.082 62.847 27.9592 62.9935 27.7137C63.1406 27.4667 63.2146 27.1288 63.216 26.6999H63.1862C63.1212 26.8269 63.0338 26.9362 62.9235 27.0279C62.8137 27.1182 62.6876 27.188 62.545 27.2375C62.404 27.2868 62.2535 27.3115 62.094 27.3115C61.8387 27.3115 61.6107 27.2516 61.4106 27.1316C61.2099 27.0117 61.052 26.8466 60.9362 26.6363C60.8205 26.4261 60.7629 26.1862 60.7629 25.9167C60.7614 25.6261 60.8285 25.3671 60.9636 25.14C61.0992 24.9128 61.2884 24.735 61.5308 24.6066C61.7752 24.4767 62.0588 24.4126 62.3821 24.4139ZM62.3881 25.1336C62.2455 25.1336 62.1189 25.1675 62.0071 25.2352C61.8973 25.3029 61.8099 25.3939 61.7449 25.5082C61.6813 25.6225 61.6505 25.7502 61.6515 25.8913C61.6515 26.0338 61.6828 26.1622 61.7449 26.2765C61.8084 26.3894 61.8944 26.4797 62.0031 26.5475C62.1129 26.6138 62.2386 26.6469 62.3796 26.6469C62.4854 26.6469 62.5838 26.6272 62.6742 26.5877C62.7641 26.5482 62.8425 26.4938 62.9091 26.4247C62.9766 26.3542 63.0298 26.273 63.0675 26.1813C63.1058 26.0896 63.1247 25.9922 63.1247 25.8892C63.1232 25.7523 63.0909 25.6268 63.0273 25.5125C62.9637 25.3981 62.8763 25.3064 62.765 25.2373C62.6533 25.1682 62.5281 25.1336 62.3881 25.1336ZM66.2215 30.0948C65.9295 30.0948 65.6786 30.0546 65.47 29.9742C65.2624 29.8952 65.0975 29.7872 64.9748 29.6503C64.8521 29.5135 64.7722 29.3597 64.7354 29.1889L65.5694 29.0768C65.5947 29.1417 65.6349 29.2023 65.6901 29.2588C65.7452 29.3152 65.8177 29.3604 65.9081 29.3942C66 29.4295 66.1112 29.4471 66.2424 29.4471C66.4386 29.4471 66.6 29.3992 66.7271 29.3032C66.8558 29.2087 66.9198 29.0499 66.9198 28.827V28.2322H66.8816C66.8424 28.3225 66.7828 28.4079 66.7038 28.4883C66.6248 28.5688 66.5235 28.6344 66.3993 28.6852C66.2752 28.736 66.1266 28.7614 65.9548 28.7614C65.7104 28.7614 65.4884 28.7049 65.2877 28.592C65.0891 28.4778 64.9301 28.3035 64.8119 28.0693C64.6947 27.8336 64.6361 27.5359 64.6361 27.1761C64.6361 26.8078 64.6962 26.5002 64.8159 26.2532C64.9361 26.0063 65.0955 25.8215 65.2942 25.6987C65.4949 25.5759 65.7139 25.5146 65.9523 25.5146C66.1346 25.5146 66.2871 25.5456 66.4098 25.6077C66.5324 25.6684 66.6313 25.7446 66.7058 25.8363C66.7823 25.9266 66.8409 26.0155 66.8816 26.103H66.9154V25.5569H67.8109V28.8397C67.8109 29.1162 67.7434 29.3477 67.6078 29.5339C67.4722 29.7202 67.2844 29.8599 67.0445 29.953C66.8061 30.0475 66.5319 30.0948 66.2215 30.0948ZM66.2404 28.0841C66.3859 28.0841 66.5086 28.0481 66.6084 27.9761C66.7102 27.9028 66.7877 27.7983 66.8414 27.6629C66.8965 27.526 66.9238 27.3623 66.9238 27.1719C66.9238 26.9813 66.897 26.8163 66.8434 26.6766C66.7902 26.5355 66.7122 26.4261 66.6109 26.3485C66.5091 26.2709 66.3859 26.2321 66.2404 26.2321C66.0924 26.2321 65.9672 26.2723 65.8659 26.3527C65.7641 26.4317 65.6871 26.5418 65.6349 26.6829C65.5828 26.824 65.5569 26.987 65.5569 27.1719C65.5569 27.3595 65.5828 27.5218 65.6349 27.6587C65.6886 27.7941 65.7655 27.8993 65.8659 27.974C65.9672 28.0474 66.0924 28.0841 66.2404 28.0841Z" fill="#051283" fill-opacity="0.6"/>
<path d="M5.28442 6.68271H7.16817L9.15775 11.5367H9.24244L11.232 6.68271H13.1157V13.9073H11.6341V9.20499H11.5742L9.70456 13.872H8.69563L6.826 9.18736H6.76605V13.9073H5.28442V6.68271ZM16.8154 14.0131C16.258 14.0131 15.7782 13.9002 15.376 13.6744C14.9763 13.4464 14.6682 13.1242 14.4518 12.7079C14.2355 12.2893 14.1273 11.7942 14.1273 11.2228C14.1273 10.6654 14.2355 10.1763 14.4518 9.75527C14.6682 9.33433 14.9727 9.00627 15.3655 8.77109C15.7606 8.5359 16.2238 8.41834 16.7554 8.41834C17.1128 8.41834 17.4456 8.47595 17.7537 8.59119C18.0641 8.70403 18.3346 8.87455 18.565 9.10268C18.7978 9.3308 18.9789 9.61769 19.1083 9.96344C19.2377 10.3067 19.3023 10.7089 19.3023 11.1698V11.5826H14.727V10.6513H17.8877C17.8877 10.4349 17.8407 10.2433 17.7466 10.0763C17.6526 9.90935 17.522 9.77882 17.3551 9.68475C17.1904 9.58834 16.9988 9.54011 16.78 9.54011C16.552 9.54011 16.3497 9.59301 16.1733 9.69885C15.9993 9.80231 15.8629 9.94223 15.7641 10.1187C15.6653 10.2926 15.6148 10.4867 15.6124 10.7007V11.5861C15.6124 11.8542 15.6618 12.0859 15.7606 12.2811C15.8617 12.4762 16.004 12.6268 16.1874 12.7326C16.3709 12.8384 16.5884 12.8913 16.84 12.8913C17.007 12.8913 17.1599 12.8678 17.2986 12.8208C17.4374 12.7738 17.5561 12.7032 17.6549 12.6091C17.7537 12.5151 17.8289 12.3998 17.8806 12.2634L19.2705 12.3551C19.2 12.6891 19.0554 12.9807 18.8367 13.23C18.6203 13.4769 18.3404 13.6698 17.9971 13.8085C17.6561 13.9449 17.2622 14.0131 16.8154 14.0131ZM24.7913 10.034L23.4155 10.1187C23.392 10.001 23.3414 9.89519 23.2638 9.80117C23.1862 9.70471 23.0839 9.62827 22.9569 9.57185C22.8323 9.51304 22.6829 9.48369 22.5089 9.48369C22.2761 9.48369 22.0797 9.53306 21.9198 9.6318C21.7599 9.72826 21.6799 9.85759 21.6799 10.0199C21.6799 10.1492 21.7317 10.2586 21.8351 10.3479C21.9386 10.4373 22.1162 10.509 22.3678 10.5631L23.3485 10.7607C23.8753 10.8689 24.268 11.0429 24.5267 11.2827C24.7854 11.5226 24.9148 11.8377 24.9148 12.2281C24.9148 12.5833 24.8101 12.8948 24.6008 13.163C24.3938 13.4311 24.1093 13.6404 23.7471 13.7909C23.3873 13.939 22.9722 14.0131 22.5018 14.0131C21.7846 14.0131 21.2131 13.8638 20.7874 13.5651C20.3641 13.2641 20.116 12.8549 20.0431 12.3375L21.5212 12.2599C21.5659 12.4786 21.6741 12.6456 21.8457 12.7608C22.0174 12.8737 22.2373 12.9302 22.5054 12.9302C22.7688 12.9302 22.9804 12.8796 23.1403 12.7785C23.3026 12.675 23.385 12.5421 23.3873 12.3798C23.385 12.2434 23.3273 12.1317 23.2144 12.0447C23.1015 11.9554 22.9275 11.8872 22.6923 11.8401L21.754 11.6531C21.2249 11.5473 20.8309 11.3639 20.5723 11.1028C20.3159 10.8418 20.1877 10.509 20.1877 10.1045C20.1877 9.75647 20.2818 9.45662 20.4699 9.20499C20.6604 8.95332 20.9273 8.75931 21.2707 8.62292C21.6164 8.48653 22.0209 8.41834 22.4842 8.41834C23.1686 8.41834 23.7071 8.56297 24.0999 8.85219C24.495 9.14147 24.7254 9.53539 24.7913 10.034ZM29.4336 13.9073H27.7968L30.2908 6.68271H32.2592L34.7497 13.9073H33.113L31.3033 8.33365H31.2468L29.4336 13.9073ZM29.3313 11.0676H33.1976V12.2599H29.3313V11.0676ZM35.5911 15.9392V8.48887H37.0727V9.399H37.1397C37.2056 9.25317 37.3008 9.10501 37.4255 8.95451C37.5525 8.80163 37.7171 8.67468 37.9193 8.57355C38.1239 8.47004 38.3779 8.41834 38.6813 8.41834C39.0764 8.41834 39.4409 8.5218 39.7748 8.72877C40.1088 8.93335 40.3757 9.24259 40.5756 9.65653C40.7755 10.0681 40.8755 10.5843 40.8755 11.2052C40.8755 11.8095 40.7779 12.3199 40.5827 12.7361C40.3898 13.15 40.1264 13.464 39.7925 13.678C39.4609 13.8897 39.0893 13.9955 38.6778 13.9955C38.3861 13.9955 38.138 13.9473 37.9334 13.8509C37.7312 13.7544 37.5654 13.6333 37.436 13.4875C37.3067 13.3393 37.2079 13.19 37.1397 13.0395H37.0939V15.9392H35.5911ZM37.0621 11.1981C37.0621 11.5203 37.1068 11.8013 37.1961 12.0412C37.2855 12.2811 37.4149 12.468 37.5842 12.6021C37.7535 12.7338 37.9593 12.7996 38.2015 12.7996C38.4461 12.7996 38.6531 12.7326 38.8224 12.5986C38.9917 12.4621 39.1199 12.274 39.2069 12.0341C39.2963 11.7919 39.3409 11.5132 39.3409 11.1981C39.3409 10.8853 39.2974 10.6101 39.2104 10.3726C39.1234 10.1351 38.9952 9.94928 38.8259 9.81527C38.6566 9.68122 38.4484 9.61417 38.2015 9.61417C37.957 9.61417 37.75 9.67883 37.5807 9.80822C37.4137 9.93756 37.2855 10.121 37.1961 10.3585C37.1068 10.596 37.0621 10.8759 37.0621 11.1981ZM41.8773 15.9392V8.48887H43.3589V9.399H43.4259C43.4918 9.25317 43.587 9.10501 43.7116 8.95451C43.8386 8.80163 44.0033 8.67468 44.2056 8.57355C44.4101 8.47004 44.6641 8.41834 44.9675 8.41834C45.3626 8.41834 45.7271 8.5218 46.0611 8.72877C46.395 8.93335 46.6619 9.24259 46.8618 9.65653C47.0617 10.0681 47.1617 10.5843 47.1617 11.2052C47.1617 11.8095 47.0641 12.3199 46.8689 12.7361C46.676 13.15 46.4126 13.464 46.0787 13.678C45.7471 13.8897 45.3755 13.9955 44.9639 13.9955C44.6723 13.9955 44.4242 13.9473 44.2197 13.8509C44.0174 13.7544 43.8516 13.6333 43.7222 13.4875C43.5929 13.3393 43.4941 13.19 43.4259 13.0395H43.3801V15.9392H41.8773ZM43.3483 11.1981C43.3483 11.5203 43.393 11.8013 43.4824 12.0412C43.5717 12.2811 43.7011 12.468 43.8704 12.6021C44.0397 12.7338 44.2455 12.7996 44.4877 12.7996C44.7323 12.7996 44.9393 12.7326 45.1086 12.5986C45.2779 12.4621 45.4061 12.274 45.4931 12.0341C45.5825 11.7919 45.6272 11.5132 45.6272 11.1981C45.6272 10.8853 45.5837 10.6101 45.4966 10.3726C45.4096 10.1351 45.2814 9.94928 45.1121 9.81527C44.9428 9.68122 44.7347 9.61417 44.4877 9.61417C44.2431 9.61417 44.0362 9.67883 43.8669 9.80822C43.6999 9.93756 43.5717 10.121 43.4824 10.3585C43.393 10.596 43.3483 10.8759 43.3483 11.1981ZM50.6116 14.0131C50.0638 14.0131 49.5899 13.8967 49.1901 13.6639C48.7926 13.4287 48.4857 13.1018 48.2694 12.6832C48.053 12.2623 47.9448 11.7743 47.9448 11.2193C47.9448 10.6595 48.053 10.1704 48.2694 9.75175C48.4857 9.3308 48.7926 9.00388 49.1901 8.77109C49.5899 8.5359 50.0638 8.41834 50.6116 8.41834C51.1595 8.41834 51.6323 8.5359 52.0297 8.77109C52.4295 9.00388 52.7375 9.3308 52.954 9.75175C53.1706 10.1704 53.2784 10.6595 53.2784 11.2193C53.2784 11.7743 53.1706 12.2623 52.954 12.6832C52.7375 13.1018 52.4295 13.4287 52.0297 13.6639C51.6323 13.8967 51.1595 14.0131 50.6116 14.0131ZM50.6186 12.849C50.8679 12.849 51.076 12.7785 51.2429 12.6374C51.4103 12.4939 51.536 12.2987 51.6204 12.0518C51.7078 11.8048 51.751 11.5238 51.751 11.2087C51.751 10.8935 51.7078 10.6125 51.6204 10.3656C51.536 10.1187 51.4103 9.92345 51.2429 9.77996C51.076 9.63652 50.8679 9.56479 50.6186 9.56479C50.3673 9.56479 50.1557 9.63652 49.9838 9.77996C49.8145 9.92345 49.6863 10.1187 49.5992 10.3656C49.5146 10.6125 49.4722 10.8935 49.4722 11.2087C49.4722 11.5238 49.5146 11.8048 49.5992 12.0518C49.6863 12.2987 49.8145 12.4939 49.9838 12.6374C50.1557 12.7785 50.3673 12.849 50.6186 12.849ZM54.2559 13.9073V8.48887H55.7126V9.43427H55.7693C55.8676 9.09796 56.0335 8.844 56.2664 8.67229C56.4994 8.49825 56.7676 8.41128 57.0706 8.41128C57.1461 8.41128 57.227 8.41595 57.314 8.42539C57.4014 8.43478 57.4774 8.44769 57.5434 8.46418V9.79764C57.4729 9.77643 57.3756 9.75766 57.2509 9.74117C57.1262 9.72473 57.012 9.71648 56.9087 9.71648C56.6876 9.71648 56.49 9.76471 56.3156 9.86112C56.1443 9.95519 56.0077 10.0869 55.9068 10.2562C55.808 10.4256 55.7583 10.6207 55.7583 10.8418V13.9073H54.2559ZM61.4742 8.48887V9.61769H58.211V8.48887H61.4742ZM58.952 7.19072H60.4545V12.2422C60.4545 12.381 60.4759 12.4892 60.5181 12.5668C60.5603 12.6421 60.6194 12.695 60.6944 12.7255C60.7719 12.7561 60.8613 12.7714 60.9626 12.7714C61.0332 12.7714 61.1037 12.7655 61.1742 12.7538C61.2448 12.7396 61.2989 12.729 61.3366 12.722L61.5731 13.8403C61.4976 13.8638 61.3918 13.8909 61.2552 13.9214C61.1191 13.9543 60.9532 13.9743 60.758 13.9814C60.3959 13.9955 60.0785 13.9473 59.8054 13.8368C59.5352 13.7262 59.3246 13.5545 59.1741 13.3217C59.0236 13.0889 58.9496 12.7949 58.952 12.4398V7.19072ZM66.8936 10.034L65.5178 10.1187C65.4939 10.001 65.4438 9.89519 65.3658 9.80117C65.2883 9.70471 65.186 9.62827 65.0588 9.57185C64.9342 9.51304 64.7852 9.48369 64.6108 9.48369C64.3784 9.48369 64.1817 9.53306 64.0217 9.6318C63.8618 9.72826 63.7818 9.85759 63.7818 10.0199C63.7818 10.1492 63.834 10.2586 63.9373 10.3479C64.0406 10.4373 64.2184 10.509 64.4698 10.5631L65.4507 10.7607C65.9772 10.8689 66.3701 11.0429 66.6289 11.2827C66.8876 11.5226 67.0168 11.8377 67.0168 12.2281C67.0168 12.5833 66.9125 12.8948 66.7029 13.163C66.4958 13.4311 66.2116 13.6404 65.8491 13.7909C65.4895 13.939 65.0742 14.0131 64.6039 14.0131C63.8866 14.0131 63.3154 13.8638 62.8898 13.5651C62.4661 13.2641 62.2183 12.8549 62.1453 12.3375L63.6234 12.2599C63.6681 12.4786 63.7764 12.6456 63.9477 12.7608C64.1196 12.8737 64.3396 12.9302 64.6073 12.9302C64.8711 12.9302 65.0827 12.8796 65.2426 12.7785C65.4045 12.675 65.487 12.5421 65.4895 12.3798C65.487 12.2434 65.4294 12.1317 65.3166 12.0447C65.2039 11.9554 65.0295 11.8872 64.7946 11.8401L63.8563 11.6531C63.3269 11.5473 62.933 11.3639 62.6742 11.1028C62.4179 10.8418 62.2898 10.509 62.2898 10.1045C62.2898 9.75647 62.3842 9.45662 62.5719 9.20499C62.7626 8.95332 63.0294 8.75931 63.3731 8.62292C63.7188 8.48653 64.1231 8.41834 64.5865 8.41834C65.2709 8.41834 65.8093 8.56297 66.2022 8.85219C66.5971 9.14147 66.8275 9.53539 66.8936 10.034Z" fill="#2E2E2E" fill-opacity="0.75"/>
</g>
<defs>
<clipPath id="clip0_1206_1086">
<rect width="75" height="75" fill="white"/>
</clipPath>
</defs>
</svg>
