<svg width="331" height="211" viewBox="0 0 331 211" fill="none" xmlns="http://www.w3.org/2000/svg">
<path fill-rule="evenodd" clip-rule="evenodd" d="M328.077 420.713C260.617 418.918 189.606 492.179 135.269 449.736C80.7413 407.146 94.4119 316.422 103.418 245.235C111.083 184.646 136.771 128.459 180.892 89.1242C221.468 52.9495 275.993 55.3839 328.077 44.9444C402.118 30.104 481.144 -27.9373 543.854 16.374C609.069 62.456 613.97 162.161 611.53 245.235C609.175 325.398 596.118 419.837 530.813 460.265C469.122 498.457 399.486 422.614 328.077 420.713Z" fill="#6D4C41" fill-opacity="0.75"/>
<path fill-rule="evenodd" clip-rule="evenodd" d="M233.077 479.713C165.617 477.918 94.6064 551.179 40.2689 508.736C-14.2587 466.146 -0.588135 375.422 8.41803 304.235C16.0835 243.646 41.7709 187.459 85.8918 148.124C126.468 111.949 180.993 114.384 233.077 103.944C307.118 89.104 386.144 31.0627 448.854 75.374C514.069 121.456 518.97 221.161 516.53 304.235C514.175 384.398 501.118 478.837 435.813 519.265C374.122 557.457 304.486 481.614 233.077 479.713Z" fill="#6D4C41"/>
</svg>
