<svg width="390" height="198" viewBox="0 0 390 198" fill="none" xmlns="http://www.w3.org/2000/svg">
<path fill-rule="evenodd" clip-rule="evenodd" d="M154.077 83.7133C86.6167 81.9176 15.6064 155.179 -38.7311 112.736C-93.2587 70.1458 -79.5881 -20.5781 -70.582 -91.7645C-62.9165 -152.354 -37.2291 -208.541 6.89175 -247.876C47.4677 -284.051 101.993 -281.616 154.077 -292.056C228.118 -306.896 307.144 -364.937 369.854 -320.626C435.069 -274.544 439.97 -174.839 437.53 -91.7645C435.175 -11.6023 422.118 82.8365 356.813 123.265C295.122 161.457 225.486 85.6141 154.077 83.7133Z" fill="#6D4C41" fill-opacity="0.75"/>
<path fill-rule="evenodd" clip-rule="evenodd" d="M70.2171 167.62C138.42 161.534 143.674 53.8697 197.876 12.0264C244.749 -24.1593 326.646 -5.04599 358.522 -54.9499C390.05 -104.309 352.547 -168.379 350.498 -226.913C348.138 -294.356 386.076 -371.232 345.566 -425.205C305.331 -478.812 223.845 -474.205 157.538 -484.003C99.2681 -492.613 38.9031 -501.125 -15.5057 -478.559C-67.3831 -457.043 -93.0068 -402.031 -133.624 -363.244C-179.597 -319.342 -269.925 -299.097 -270 -235.53C-270.079 -168.584 -173.243 -147.574 -133.944 -93.3769C-105.345 -53.9348 -102.99 -2.18085 -72.9725 36.1931C-32.2303 88.2773 4.35245 173.497 70.2171 167.62Z" fill="#6D4C41"/>
</svg>
