<svg width="137" height="271" viewBox="-68 0 200 168" fill="none" xmlns="http://www.w3.org/2000/svg">
<path fill-rule="evenodd" clip-rule="evenodd" d="M340.217 -389.711C408.42 -383.626 413.674 -275.961 467.876 -234.118C514.749 -197.932 596.646 -217.046 628.522 -167.142C660.05 -117.782 622.547 -53.7126 620.498 4.82104C618.138 72.2646 656.076 149.14 615.566 203.114C575.331 256.721 493.845 252.114 427.538 261.911C369.268 270.522 308.903 279.034 254.494 256.468C202.617 234.952 176.993 179.939 136.376 141.152C90.4035 97.2505 0.0754995 77.0059 4.8873e-05 13.4385C-0.079412 -53.5075 96.7568 -74.5171 136.056 -128.715C164.655 -168.157 167.01 -219.911 197.028 -258.285C237.77 -310.369 274.352 -395.588 340.217 -389.711Z" fill="#6D4C41"/>
<path fill-rule="evenodd" clip-rule="evenodd" d="M295.077 125.713C227.617 123.918 156.606 197.179 102.269 154.736C47.7413 112.146 61.4119 21.4219 70.418 -49.7645C78.0835 -110.354 103.771 -166.541 147.892 -205.876C188.468 -242.051 242.993 -239.616 295.077 -250.056C369.118 -264.896 448.144 -322.937 510.854 -278.626C576.069 -232.544 580.97 -132.839 578.53 -49.7645C576.175 30.3977 563.118 124.837 497.813 165.265C436.122 203.457 366.486 127.614 295.077 125.713Z" fill="#6D4C41" fill-opacity="0.75"/>
</svg>
