<svg width="265" height="166"  viewBox="30 0 300 166" fill="none" xmlns="http://www.w3.org/2000/svg">
<path fill-rule="evenodd" clip-rule="evenodd" d="M-61.0774 420.713C6.3833 418.918 77.3936 492.179 131.731 449.736C186.259 407.146 172.588 316.422 163.582 245.235C155.917 184.646 130.229 128.459 86.1082 89.1242C45.5323 52.9495 -8.99307 55.3839 -61.0774 44.9444C-135.118 30.104 -214.144 -27.9373 -276.854 16.374C-342.069 62.456 -346.97 162.161 -344.53 245.235C-342.175 325.398 -329.118 419.837 -263.813 460.265C-202.122 498.457 -132.486 422.614 -61.0774 420.713Z" fill="#6D4C41" fill-opacity="0.75"/>
<path fill-rule="evenodd" clip-rule="evenodd" d="M31.9226 466.713C99.3833 464.918 170.394 538.179 224.731 495.736C279.259 453.146 265.588 362.422 256.582 291.235C248.917 230.646 223.229 174.459 179.108 135.124C138.532 98.9495 84.0069 101.384 31.9226 90.9444C-42.1185 76.104 -121.144 18.0627 -183.854 62.374C-249.069 108.456 -253.97 208.161 -251.53 291.235C-249.175 371.398 -236.118 465.837 -170.813 506.265C-109.122 544.457 -39.4857 468.614 31.9226 466.713Z" fill="#6D4C41"/>
</svg>
