<svg width="69" height="93" viewBox="0 0 69 93" fill="none" xmlns="http://www.w3.org/2000/svg">
<path d="M14.4062 92.25V50.0834C10.434 49.2431 7.05381 47.2379 4.26562 44.0677C1.47743 40.8976 0.0833282 37.0973 0.0833282 32.6667V0.583374H6.95833V32.6667H14.4062V0.583374H21.2812V32.6667H28.7292V0.583374H35.6042V32.6667C35.6042 37.0973 34.2101 40.8976 31.4219 44.0677C28.6337 47.2379 25.2535 49.2431 21.2812 50.0834V92.25H14.4062ZM61.9583 92.25V55.5834H48.7812V20.6355C48.7812 14.6007 50.6146 9.75004 54.2812 6.08337C57.9479 2.41671 62.7986 0.583374 68.8333 0.583374V92.25H61.9583Z" fill="#6D4C41"/>
</svg>
