<svg width="40" height="40" viewBox="0 0 40 40" fill="none" xmlns="http://www.w3.org/2000/svg">
<path d="M15.3125 0.3125C14.7937 0.3125 14.375 0.73125 14.375 1.25C14.375 1.76875 14.7937 2.1875 15.3125 2.1875H24.6875C25.2062 2.1875 25.625 1.76875 25.625 1.25C25.625 0.73125 25.2062 0.3125 24.6875 0.3125H15.3125ZM7.5 4.6875C5.25937 4.6875 3.4375 6.50938 3.4375 8.75C3.4375 10.9906 5.25937 12.8125 7.5 12.8125H31.5625V32.5C31.5625 35.4281 29.1781 37.8125 26.25 37.8125H13.75C10.8219 37.8125 8.4375 35.4281 8.4375 32.5V16.25C8.4375 15.7312 8.01875 15.3125 7.5 15.3125C6.98125 15.3125 6.5625 15.7312 6.5625 16.25V32.5C6.5625 36.4625 9.7875 39.6875 13.75 39.6875H26.25C30.2125 39.6875 33.4375 36.4625 33.4375 32.5V12.7002C35.225 12.2752 36.5625 10.6687 36.5625 8.75C36.5625 6.50938 34.7406 4.6875 32.5 4.6875H7.5ZM7.5 6.5625H32.5C33.7062 6.5625 34.6875 7.54375 34.6875 8.75C34.6875 9.95625 33.7062 10.9375 32.5 10.9375H7.5C6.29375 10.9375 5.3125 9.95625 5.3125 8.75C5.3125 7.54375 6.29375 6.5625 7.5 6.5625ZM15.625 17.1875C15.1062 17.1875 14.6875 17.6063 14.6875 18.125V32.5C14.6875 33.0187 15.1062 33.4375 15.625 33.4375C16.1438 33.4375 16.5625 33.0187 16.5625 32.5V18.125C16.5625 17.6063 16.1438 17.1875 15.625 17.1875ZM24.375 17.1875C23.8563 17.1875 23.4375 17.6063 23.4375 18.125V32.5C23.4375 33.0187 23.8563 33.4375 24.375 33.4375C24.8937 33.4375 25.3125 33.0187 25.3125 32.5V18.125C25.3125 17.6063 24.8937 17.1875 24.375 17.1875Z" fill="#FF0000"/>
</svg>
