<svg width="40" height="40" viewBox="0 0 40 40" fill="none" xmlns="http://www.w3.org/2000/svg">
<path d="M20 0C25.5241 0 30.5241 2.23958 34.1406 5.85938C37.7604 9.47917 40 14.4792 40 20C40 25.5241 37.7604 30.5241 34.1406 34.1406C30.5208 37.7604 25.5208 40 20 40C14.4792 40 9.47591 37.7604 5.85938 34.1406C2.23958 30.5241 0 25.5241 0 20C0 14.4759 2.23958 9.47591 5.85938 5.85938C9.47591 2.23958 14.4759 0 20 0ZM25.0814 11.7708C24.8861 11.5885 24.6647 11.4941 24.4141 11.5072C24.1634 11.5072 23.9421 11.6048 23.7598 11.8001L22.2852 13.3301L26.416 17.3177L27.9036 15.7617C28.0859 15.5827 28.1543 15.3451 28.1543 15.0944C28.1543 14.8438 28.0566 14.6094 27.8776 14.4401L25.0814 11.7708ZM17.3535 26.7285C16.8099 26.9108 16.2565 27.0768 15.7129 27.2559C15.1693 27.4382 14.6289 27.6172 14.0723 27.7995C12.7799 28.2161 12.0703 28.4538 11.9173 28.4961C11.7643 28.5384 11.862 27.9395 12.181 26.6895L13.2096 22.7539L13.2943 22.666L17.3535 26.7285ZM14.7949 21.1035L21.1719 14.4857L25.2995 18.4603L18.8542 25.1628L14.7949 21.1035ZM32.9036 7.09635C29.5996 3.79557 25.0391 1.75456 20 1.75456C14.9609 1.75456 10.4004 3.79557 7.09635 7.09635C3.79557 10.4004 1.75456 14.9609 1.75456 20C1.75456 25.0391 3.79557 29.5996 7.09961 32.9036C10.4004 36.2044 14.9642 38.2487 20.0033 38.2487C25.0423 38.2487 29.6029 36.2077 32.9069 32.9036C36.2077 29.6029 38.252 25.0391 38.252 20C38.2454 14.9609 36.2044 10.4004 32.9036 7.09635Z" fill="#6D4C41"/>
</svg>
