<svg width="150" height="216" viewBox="-25 20 150 200" fill="none" xmlns="http://www.w3.org/2000/svg">
<path fill-rule="evenodd" clip-rule="evenodd" d="M340.217 -444.711C408.42 -438.626 413.674 -330.961 467.876 -289.118C514.749 -252.932 596.646 -272.046 628.522 -222.142C660.05 -172.782 622.547 -108.713 620.498 -50.179C618.138 17.2646 656.076 94.1403 615.566 148.114C575.331 201.721 493.845 197.114 427.538 206.911C369.268 215.522 308.903 224.034 254.494 201.468C202.617 179.952 176.993 124.939 136.376 86.152C90.4035 42.2505 0.0754995 22.0059 4.8873e-05 -41.5615C-0.079412 -108.508 96.7568 -129.517 136.056 -183.715C164.655 -223.157 167.01 -274.911 197.028 -313.285C237.77 -365.369 274.352 -450.588 340.217 -444.711Z" fill="#6D4C41"/>
<path fill-rule="evenodd" clip-rule="evenodd" d="M295.077 70.7133C227.617 68.9176 156.606 142.179 102.269 99.7364C47.7413 57.1458 61.4119 -33.5781 70.418 -104.765C78.0835 -165.354 103.771 -221.541 147.892 -260.876C188.468 -297.051 242.993 -294.616 295.077 -305.056C369.118 -319.896 448.144 -377.937 510.854 -333.626C576.069 -287.544 580.97 -187.839 578.53 -104.765C576.175 -24.6023 563.118 69.8365 497.813 110.265C436.122 148.457 366.486 72.6141 295.077 70.7133Z" fill="#6D4C41" fill-opacity="0.75"/>
</svg>
