<svg width="25" height="25" viewBox="0 0 25 25" fill="none" xmlns="http://www.w3.org/2000/svg">
<path d="M12.5 2.08337C6.73956 2.08337 2.08331 6.73962 2.08331 12.5C2.08331 18.2605 6.73956 22.9167 12.5 22.9167C18.2604 22.9167 22.9166 18.2605 22.9166 12.5C22.9166 6.73962 18.2604 2.08337 12.5 2.08337ZM17.4031 15.9302C17.8104 16.3375 17.8104 16.9959 17.4031 17.4032C17.2 17.6063 16.9333 17.7084 16.6666 17.7084C16.4 17.7084 16.1333 17.6063 15.9302 17.4032L12.5 13.973L9.06977 17.4032C8.86665 17.6063 8.59998 17.7084 8.33331 17.7084C8.06665 17.7084 7.79998 17.6063 7.59685 17.4032C7.18956 16.9959 7.18956 16.3375 7.59685 15.9302L11.0271 12.5L7.59685 9.06983C7.18956 8.66254 7.18956 8.00421 7.59685 7.59692C8.00415 7.18962 8.66248 7.18962 9.06977 7.59692L12.5 11.0271L15.9302 7.59692C16.3375 7.18962 16.9958 7.18962 17.4031 7.59692C17.8104 8.00421 17.8104 8.66254 17.4031 9.06983L13.9729 12.5L17.4031 15.9302Z" fill="#E63E11"/>
</svg>
