<svg width="22" height="23" viewBox="0 0 22 23" fill="none" xmlns="http://www.w3.org/2000/svg">
<path fill-rule="evenodd" clip-rule="evenodd" d="M22 2.22286V4.11994C22 4.35212 21.7822 4.54291 21.5158 4.54291H14.0121C13.5009 5.60844 12.412 6.3446 11.1503 6.3446C9.89037 6.3446 8.80144 5.60844 8.29027 4.54291H0.484169C0.219586 4.54291 0 4.35212 0 4.11994V2.22286C0 1.99067 0.217786 1.79989 0.484169 1.79989H8.29027C8.80144 0.734353 9.89037 0 11.1503 0C12.4102 0 13.4991 0.736153 14.0103 1.79989H21.514C21.7822 1.79989 22 1.99067 22 2.22286ZM8.92203 20.3171C8.41086 21.3826 7.32193 22.117 6.06021 22.117C4.80029 22.117 3.71136 21.3826 3.2002 20.3171H0.484169C0.217786 20.3171 0 20.1263 0 19.8941V17.9971C0 17.7649 0.217786 17.5741 0.484169 17.5741H3.2002C3.71136 16.5085 4.80029 15.7724 6.06021 15.7724C7.32013 15.7724 8.40907 16.5085 8.92023 17.5741H21.514C21.7804 17.5741 21.9982 17.7649 21.9982 17.9971V19.8941C21.9982 20.1263 21.7786 20.3171 21.514 20.3171H8.92203ZM18.7404 12.5506C18.2292 13.6161 17.1403 14.3523 15.8804 14.3523C14.6205 14.3523 13.5315 13.6161 13.0186 12.5506H0.484169C0.219586 12.5506 0 12.3598 0 12.1276V10.2323C0 10.0002 0.217786 9.80937 0.484169 9.80937H13.0186C13.5297 8.74384 14.6187 8.00949 15.8786 8.00949C17.1385 8.00949 18.2274 8.74564 18.7386 9.80937H21.514C21.7804 9.80937 21.9982 10.0002 21.9982 10.2323V12.1276C21.9982 12.3598 21.7804 12.5506 21.514 12.5506H18.7404Z" fill="#6D4C41"/>
</svg>
