<svg width="279" height="124" viewBox="0 0 279 124" fill="none" xmlns="http://www.w3.org/2000/svg">
    <path fill-rule="evenodd" clip-rule="evenodd" d="M340.217 -536.711C408.42 -530.626 413.674 -422.961 467.876 -381.118C514.749 -344.932 596.646 -364.046 628.522 -314.142C660.05 -264.782 622.547 -200.713 620.498 -142.179C618.138 -74.7354 656.076 2.14032 615.566 56.1139C575.331 109.721 493.845 105.114 427.538 114.911C369.268 123.522 308.903 132.034 254.494 109.468C202.617 87.9517 176.993 32.9393 136.376 -5.84802C90.4035 -49.7495 0.0754995 -69.9941 4.8873e-05 -133.561C-0.079412 -200.508 96.7568 -221.517 136.056 -275.715C164.655 -315.157 167.01 -366.911 197.028 -405.285C237.77 -457.369 274.352 -542.588 340.217 -536.711Z" fill="#6D4C41"/>
    <path fill-rule="evenodd" clip-rule="evenodd" d="M269.077 9.71329C201.617 7.91756 130.606 81.1785 76.2689 38.7364C21.7413 -3.85423 35.4119 -94.5781 44.418 -165.765C52.0835 -226.354 77.7709 -282.541 121.892 -321.876C162.468 -358.051 216.993 -355.616 269.077 -366.056C343.118 -380.896 422.144 -438.937 484.854 -394.626C550.069 -348.544 554.97 -248.839 552.53 -165.765C550.175 -85.6023 537.118 8.83653 471.813 49.2653C410.122 87.4567 340.486 11.6141 269.077 9.71329Z" fill="#6D4C41" fill-opacity="0.75"/>
</svg>
