<svg width="40" height="40" viewBox="0 0 40 40" fill="none" xmlns="http://www.w3.org/2000/svg">
<path d="M22.1667 24.625C22.5278 24.625 22.8333 24.5 23.0833 24.25C23.3333 24 23.4583 23.6944 23.4583 23.3333C23.4583 23 23.3333 22.7083 23.0833 22.4583C22.8333 22.2083 22.5278 22.0833 22.1667 22.0833C21.8333 22.0833 21.5347 22.2083 21.2708 22.4583C21.0069 22.7083 20.875 23 20.875 23.3333C20.875 23.6944 21.0069 24 21.2708 24.25C21.5347 24.5 21.8333 24.625 22.1667 24.625ZM21.5 19.9583H22.7917C22.8194 19.2361 22.9306 18.7014 23.125 18.3542C23.3194 18.0069 23.7778 17.5 24.5 16.8333C25.1667 16.2222 25.6389 15.6667 25.9167 15.1667C26.1944 14.6667 26.3333 14.0833 26.3333 13.4167C26.3333 12.2778 25.9375 11.3264 25.1458 10.5625C24.3542 9.79861 23.3472 9.41667 22.125 9.41667C21.2361 9.41667 20.4306 9.65278 19.7083 10.125C18.9861 10.5972 18.4306 11.25 18.0417 12.0833L19.2083 12.625C19.5694 11.9861 19.9792 11.5 20.4375 11.1667C20.8958 10.8333 21.4583 10.6667 22.125 10.6667C22.9861 10.6667 23.7014 10.9236 24.2708 11.4375C24.8403 11.9514 25.125 12.5972 25.125 13.375C25.125 13.9028 24.9931 14.3819 24.7292 14.8125C24.4653 15.2431 24 15.7222 23.3333 16.25C22.6389 16.8611 22.1597 17.4236 21.8958 17.9375C21.6319 18.4514 21.5 19.125 21.5 19.9583ZM12.375 29.0833C11.7361 29.0833 11.1944 28.8611 10.75 28.4167C10.3056 27.9722 10.0833 27.4306 10.0833 26.7917V7.29167C10.0833 6.65278 10.3056 6.11111 10.75 5.66667C11.1944 5.22222 11.7361 5 12.375 5H31.875C32.5139 5 33.0556 5.22222 33.5 5.66667C33.9444 6.11111 34.1667 6.65278 34.1667 7.29167V26.7917C34.1667 27.4306 33.9444 27.9722 33.5 28.4167C33.0556 28.8611 32.5139 29.0833 31.875 29.0833H12.375ZM12.375 27.8333H31.875C32.125 27.8333 32.3542 27.7222 32.5625 27.5C32.7708 27.2778 32.875 27.0417 32.875 26.7917V7.29167C32.875 7.04167 32.7708 6.8125 32.5625 6.60417C32.3542 6.39583 32.125 6.29167 31.875 6.29167H12.375C12.125 6.29167 11.8889 6.39583 11.6667 6.60417C11.4444 6.8125 11.3333 7.04167 11.3333 7.29167V26.7917C11.3333 27.0417 11.4444 27.2778 11.6667 27.5C11.8889 27.7222 12.125 27.8333 12.375 27.8333ZM8.125 33.3333C7.48611 33.3333 6.94445 33.1111 6.5 32.6667C6.05556 32.2222 5.83334 31.6806 5.83334 31.0417V10.25H7.125V31.0417C7.125 31.2917 7.22917 31.5208 7.4375 31.7292C7.64584 31.9375 7.875 32.0417 8.125 32.0417H28.9167V33.3333H8.125Z" fill="#EFECCA"/>
</svg>
