<svg width="40" height="40" viewBox="0 0 40 40" fill="none" xmlns="http://www.w3.org/2000/svg">
<path d="M2.75 33.9166V27.9583H3.66667V32.9999H8.70833V33.9166H2.75ZM31.2917 33.9166V32.9999H36.3333V27.9583H37.25V33.9166H31.2917ZM6.58333 30.1249V9.87492H9.91667V30.1249H6.58333ZM11.5833 30.1249V9.87492H13.2917V30.1249H11.5833ZM16.625 30.1249V9.87492H20V30.1249H16.625ZM21.6667 30.1249V9.87492H26.7083V30.1249H21.6667ZM28.375 30.1249V9.87492H30.0833V30.1249H28.375ZM31.75 30.1249V9.87492H33.4167V30.1249H31.75ZM2.75 12.0416V6.08325H8.70833V6.99992H3.66667V12.0416H2.75ZM36.3333 12.0416V6.99992H31.2917V6.08325H37.25V12.0416H36.3333Z" fill="#EFECCA"/>
</svg>
