<svg width="45" height="45" viewBox="0 0 45 45" fill="none" xmlns="http://www.w3.org/2000/svg">
<g clip-path="url(#clip0_317_590)">
<path d="M30.2606 36.5678C21.9544 39.1499 12.5383 35.1213 8.57361 27.1231C8.13482 25.6606 4.70703 18.7981 7.84573 19.9927C11.733 24.9802 15.1608 31.441 22.4964 30.2302C20.2405 29.3249 15.7647 27.8785 16.6991 24.6856C16.9985 23.8285 18.1291 24.3588 18.6918 24.6588C23.8128 25.7142 28.0769 28.157 32.785 29.9088C43.8014 25.1356 42.1133 7.16239 33.7348 1.08203C44.3228 2.5606 49.8774 31.2642 30.2606 36.5731V36.5678Z" fill="#EFECCA"/>
<path d="M43.3626 29.0679C39.8212 42.5679 23.0333 49.1089 11.4697 42.2357C-5.36984 33.3964 -3.20683 5.29286 14.9388 0C-16.1901 21.4768 23.0127 60.2732 43.3626 29.0679Z" fill="#EFECCA"/>
<path d="M34.6124 4.91795C36.6567 9.48224 36.2902 15.9055 32.594 19.4894C26.6676 24.043 21.1232 25.2376 27.54 16.4733C27.9066 15.6055 32.3358 12.1876 30.4103 12.584C24.5046 15.1769 22.5222 28.0501 22.3106 18.4715C22.863 11.068 32.4494 10.9287 34.6124 4.9126V4.91795Z" fill="#84CF3D"/>
<path d="M20.7464 21.884C19.6262 18.0804 15.7235 14.1911 14.2987 14.4643C17.1379 16.4518 18.9706 19.125 19.9411 22.6232C16.8127 22.0661 13.6275 20.6357 12.0634 17.6679C10.6489 15.1286 10.9741 11.6893 11.7949 9.01074C14.309 13.4518 24.1071 15.0161 20.7412 21.8893L20.7464 21.884Z" fill="#84CF3D"/>
</g>
<defs>
<clipPath id="clip0_317_590">
<rect width="45" height="45" fill="white"/>
</clipPath>
</defs>
</svg>
