<svg width="40" height="40" viewBox="0 0 40 40" fill="none" xmlns="http://www.w3.org/2000/svg">
<path d="M19.375 27.5001H20.625V20.6251H27.5V19.3751H20.625V12.5001H19.375V19.3751H12.5V20.6251H19.375V27.5001ZM8.95834 33.3334C8.31945 33.3334 7.77778 33.1112 7.33334 32.6667C6.88889 32.2223 6.66667 31.6806 6.66667 31.0417V8.95841C6.66667 8.31953 6.88889 7.77786 7.33334 7.33341C7.77778 6.88897 8.31945 6.66675 8.95834 6.66675H31.0417C31.6806 6.66675 32.2222 6.88897 32.6667 7.33341C33.1111 7.77786 33.3333 8.31953 33.3333 8.95841V31.0417C33.3333 31.6806 33.1111 32.2223 32.6667 32.6667C32.2222 33.1112 31.6806 33.3334 31.0417 33.3334H8.95834ZM8.95834 32.0417H31.0417C31.2917 32.0417 31.5208 31.9376 31.7292 31.7292C31.9375 31.5209 32.0417 31.2917 32.0417 31.0417V8.95841C32.0417 8.70841 31.9375 8.47925 31.7292 8.27091C31.5208 8.06258 31.2917 7.95841 31.0417 7.95841H8.95834C8.70834 7.95841 8.47917 8.06258 8.27084 8.27091C8.06251 8.47925 7.95834 8.70841 7.95834 8.95841V31.0417C7.95834 31.2917 8.06251 31.5209 8.27084 31.7292C8.47917 31.9376 8.70834 32.0417 8.95834 32.0417Z" fill="#EFECCA"/>
</svg>
