<svg width="40" height="40" viewBox="0 0 40 40" fill="none" xmlns="http://www.w3.org/2000/svg">
<path d="M23.125 15.7917V14.625C24.0417 14.1806 25.0069 13.8403 26.0208 13.6042C27.0347 13.3681 28.0833 13.25 29.1667 13.25C29.7778 13.25 30.3681 13.2917 30.9375 13.375C31.5069 13.4583 32.0972 13.5694 32.7083 13.7083V14.8333C32.125 14.6667 31.5556 14.5486 31 14.4792C30.4444 14.4097 29.8333 14.375 29.1667 14.375C28.0833 14.375 27.0278 14.4931 26 14.7292C24.9722 14.9653 24.0139 15.3194 23.125 15.7917ZM23.125 24.9167V23.6667C23.9861 23.2222 24.9444 22.8819 26 22.6458C27.0556 22.4097 28.1111 22.2917 29.1667 22.2917C29.7778 22.2917 30.3681 22.3333 30.9375 22.4167C31.5069 22.5 32.0972 22.6111 32.7083 22.75V23.875C32.125 23.7083 31.5556 23.5903 31 23.5208C30.4444 23.4514 29.8333 23.4167 29.1667 23.4167C28.0833 23.4167 27.0278 23.5417 26 23.7917C24.9722 24.0417 24.0139 24.4167 23.125 24.9167ZM23.125 20.375V19.1667C24.0417 18.6944 25.0069 18.3472 26.0208 18.125C27.0347 17.9028 28.0833 17.7917 29.1667 17.7917C29.7778 17.7917 30.3681 17.8333 30.9375 17.9167C31.5069 18 32.0972 18.1111 32.7083 18.25V19.375C32.125 19.1806 31.5556 19.0486 31 18.9792C30.4444 18.9097 29.8333 18.875 29.1667 18.875C28.0833 18.875 27.0278 19.0069 26 19.2708C24.9722 19.5347 24.0139 19.9028 23.125 20.375ZM10.5833 27.125C12.1389 27.125 13.6458 27.3056 15.1042 27.6667C16.5625 28.0278 18 28.5972 19.4167 29.375V12.4167C18.1667 11.4722 16.7708 10.7569 15.2292 10.2708C13.6875 9.78472 12.1389 9.54167 10.5833 9.54167C9.55556 9.54167 8.65972 9.61806 7.89583 9.77083C7.13195 9.92361 6.27778 10.1528 5.33333 10.4583C5.05556 10.5694 4.86806 10.7014 4.77083 10.8542C4.67361 11.0069 4.625 11.1806 4.625 11.375V27.1667C4.625 27.4444 4.72917 27.6528 4.9375 27.7917C5.14583 27.9306 5.375 27.9583 5.625 27.875C6.20833 27.625 6.92361 27.4375 7.77083 27.3125C8.61806 27.1875 9.55556 27.125 10.5833 27.125ZM20.7083 29.375C22.0972 28.5972 23.5069 28.0278 24.9375 27.6667C26.3681 27.3056 27.8611 27.125 29.4167 27.125C30.4444 27.125 31.3958 27.1875 32.2708 27.3125C33.1458 27.4375 33.8472 27.5833 34.375 27.75C34.625 27.8611 34.8542 27.8472 35.0625 27.7083C35.2708 27.5694 35.375 27.3472 35.375 27.0417V11.375C35.375 11.1806 35.3264 11.0069 35.2292 10.8542C35.1319 10.7014 34.9444 10.5694 34.6667 10.4583C33.75 10.125 32.9028 9.88889 32.125 9.75C31.3472 9.61111 30.4444 9.54167 29.4167 9.54167C27.8611 9.54167 26.3264 9.78472 24.8125 10.2708C23.2986 10.7569 21.9306 11.4722 20.7083 12.4167V29.375ZM20.0417 31.2917C18.625 30.3472 17.1181 29.6319 15.5208 29.1458C13.9236 28.6597 12.2778 28.4167 10.5833 28.4167C9.80556 28.4167 9.03472 28.4792 8.27083 28.6042C7.50695 28.7292 6.73611 28.9028 5.95833 29.125C5.31945 29.375 4.72222 29.2917 4.16667 28.875C3.61111 28.4583 3.33333 27.8889 3.33333 27.1667V11.4167C3.33333 10.9722 3.45139 10.5556 3.6875 10.1667C3.92361 9.77778 4.26389 9.5 4.70833 9.33333C5.625 8.97222 6.58333 8.70139 7.58333 8.52083C8.58333 8.34028 9.58333 8.25 10.5833 8.25C12.3056 8.25 13.9653 8.5 15.5625 9C17.1597 9.5 18.6528 10.2361 20.0417 11.2083C21.4306 10.2361 22.9167 9.5 24.5 9C26.0833 8.5 27.7222 8.25 29.4167 8.25C30.4167 8.25 31.4167 8.34028 32.4167 8.52083C33.4167 8.70139 34.375 8.97222 35.2917 9.33333C35.7361 9.5 36.0764 9.77778 36.3125 10.1667C36.5486 10.5556 36.6667 10.9722 36.6667 11.4167V27.1667C36.6667 27.8889 36.3611 28.4583 35.75 28.875C35.1389 29.2917 34.5 29.3472 33.8333 29.0417C33.1111 28.8472 32.375 28.6944 31.625 28.5833C30.875 28.4722 30.1389 28.4167 29.4167 28.4167C27.7222 28.4167 26.0833 28.6667 24.5 29.1667C22.9167 29.6667 21.4306 30.375 20.0417 31.2917Z" fill="#EFECCA"/>
</svg>
