<svg width="123" height="123" viewBox="0 0 123 123" fill="none" xmlns="http://www.w3.org/2000/svg">
<g clip-path="url(#clip0_121_546)">
<path d="M61.44 0C78.41 0 93.77 6.88 104.88 18C116 29.12 122.88 44.48 122.88 61.44C122.88 78.41 116 93.77 104.88 104.88C93.76 116 78.4 122.88 61.44 122.88C44.48 122.88 29.11 116 18 104.88C6.88 93.77 0 78.41 0 61.44C0 44.47 6.88 29.11 18 18C29.11 6.88 44.47 0 61.44 0ZM46.49 87.03C52.49 99.54 70.68 99.98 76.43 87.1C74.86 85.51 73.7 83.82 72.55 82.13C72.36 81.85 72.17 81.58 71.98 81.3C69.21 83.5 65.84 84.9 61.45 84.89C56.72 84.88 53.16 83.07 50.24 80.4C50.07 80.24 49.89 80.08 49.72 79.91C49.3 81.07 48.77 82.46 48.2 83.76C47.65 85.01 47.06 86.18 46.49 87.03ZM92.66 107.83L94.02 93.35C88.99 92.37 83.6 91.31 78.03 88.1C73.86 101.99 51.45 103.64 45.14 88.46C40.14 90.98 35.05 92.42 29.25 93.31L31.22 108.48C39.93 114.09 50.31 117.35 61.45 117.35C73 117.35 83.74 113.84 92.66 107.83ZM16.56 94.79L16.8 94.65C22.76 91.33 38.27 90.23 44.71 85.74C45.18 85.03 45.69 84 46.18 82.88C46.92 81.19 47.59 79.35 48.02 78.09C46.22 75.97 44.68 73.58 43.2 71.22L38.32 63.46C36.54 60.8 35.61 58.37 35.55 56.37C35.52 55.43 35.68 54.58 36.03 53.83C36.39 53.04 36.95 52.39 37.71 51.88C38.06 51.64 38.46 51.44 38.89 51.28C38.57 47.07 38.46 41.77 38.66 37.33C38.76 36.28 38.97 35.22 39.26 34.17C40.51 29.72 43.63 26.13 47.5 23.67C49.63 22.31 51.97 21.29 54.41 20.6C55.96 20.16 53.09 15.21 54.69 15.04C62.44 14.24 74.97 21.32 80.38 27.17C83.09 30.1 84.79 33.99 85.16 39.13L84.86 51.79C86.21 52.2 87.08 53.06 87.43 54.45C87.82 55.99 87.4 58.16 86.09 61.11C86.07 61.16 86.04 61.22 86.01 61.27L80.45 70.43C78.41 73.79 76.33 77.17 73.63 79.83C73.87 80.18 74.12 80.53 74.36 80.89C75.46 82.5 76.57 84.12 77.99 85.56C78.04 85.61 78.08 85.66 78.11 85.71C84.51 90.23 100.09 91.33 106.07 94.66L106.31 94.8C113.24 85.49 117.34 73.95 117.34 61.45C117.34 46.01 111.08 32.03 100.96 21.92C90.86 11.79 76.88 5.53 61.44 5.53C46 5.53 32.02 11.79 21.91 21.91C11.79 32.02 5.53 46 5.53 61.44C5.53 73.94 9.63 85.48 16.56 94.79ZM41.71 53.54C40.63 53.58 39.81 53.81 39.25 54.18C38.93 54.39 38.7 54.67 38.55 54.99C38.38 55.35 38.31 55.79 38.32 56.3C38.36 57.78 39.14 59.72 40.64 61.96L40.66 61.99L45.54 69.75C47.5 72.86 49.55 76.03 52.1 78.36C54.55 80.6 57.52 82.12 61.46 82.13C65.72 82.14 68.83 80.56 71.36 78.2C73.99 75.74 76.06 72.37 78.11 69L83.61 59.95C84.63 57.61 85.01 56.05 84.77 55.13C84.63 54.58 84.03 54.32 83 54.26C82.78 54.25 82.56 54.25 82.33 54.25C82.09 54.26 81.83 54.27 81.56 54.3C81.41 54.31 81.27 54.3 81.14 54.27C80.65 54.3 80.15 54.26 79.63 54.19L81.51 45.86C67.55 48.06 57.1 37.69 42.34 43.79L43.4 53.61C42.79 53.64 42.23 53.62 41.71 53.54Z" fill="black"/>
</g>
<defs>
<clipPath id="clip0_121_546">
<rect width="122.88" height="122.88" fill="white"/>
</clipPath>
</defs>
</svg>
