<svg width="239" height="143" viewBox="0 0 239 143" fill="none" xmlns="http://www.w3.org/2000/svg">
<path fill-rule="evenodd" clip-rule="evenodd" d="M328.077 -277.713C260.617 -275.918 189.606 -349.179 135.269 -306.736C80.7413 -264.146 94.4119 -173.422 103.418 -102.235C111.083 -41.6461 136.771 14.5406 180.892 53.8758C221.468 90.0505 275.993 87.6161 328.077 98.0556C402.118 112.896 481.144 170.937 543.854 126.626C609.069 80.544 613.97 -19.1611 611.53 -102.235C609.175 -182.398 596.118 -276.837 530.813 -317.265C469.122 -355.457 399.486 -279.614 328.077 -277.713Z" fill="#6D4C41" fill-opacity="0.75"/>
<path fill-rule="evenodd" clip-rule="evenodd" d="M233.077 -336.713C165.617 -334.918 94.6064 -408.179 40.2689 -365.736C-14.2587 -323.146 -0.588135 -232.422 8.41803 -161.235C16.0835 -100.646 41.7709 -44.4594 85.8918 -5.12418C126.468 31.0505 180.993 28.6161 233.077 39.0556C307.118 53.896 386.144 111.937 448.854 67.626C514.069 21.544 518.97 -78.1611 516.53 -161.235C514.175 -241.398 501.118 -335.837 435.813 -376.265C374.122 -414.457 304.486 -338.614 233.077 -336.713Z" fill="#6D4C41"/>
</svg>