<svg width="48" height="48" viewBox="0 0 48 48" fill="none" xmlns="http://www.w3.org/2000/svg">
<circle cx="24" cy="24" r="22" fill="#E3DEBE" stroke="#E3DEBE" stroke-width="4"/>
<path d="M24 4C29.5241 4 34.5241 6.23958 38.1406 9.85938C41.7604 13.4792 44 18.4792 44 24C44 29.5241 41.7604 34.5241 38.1406 38.1406C34.5208 41.7604 29.5208 44 24 44C18.4792 44 13.4759 41.7604 9.85938 38.1406C6.23958 34.5241 4 29.5241 4 24C4 18.4759 6.23958 13.4759 9.85938 9.85938C13.4759 6.23958 18.4759 4 24 4ZM29.0814 15.7708C28.8861 15.5885 28.6647 15.4941 28.4141 15.5072C28.1634 15.5072 27.9421 15.6048 27.7598 15.8001L26.2852 17.3301L30.416 21.3177L31.9036 19.7617C32.0859 19.5827 32.1543 19.3451 32.1543 19.0944C32.1543 18.8438 32.0566 18.6094 31.8776 18.4401L29.0814 15.7708ZM21.3535 30.7285C20.8099 30.9108 20.2565 31.0768 19.7129 31.2559C19.1693 31.4382 18.6289 31.6172 18.0723 31.7995C16.7799 32.2161 16.0703 32.4538 15.9173 32.4961C15.7643 32.5384 15.862 31.9395 16.181 30.6895L17.2096 26.7539L17.2943 26.666L21.3535 30.7285ZM18.7949 25.1035L25.1719 18.4857L29.2995 22.4603L22.8542 29.1628L18.7949 25.1035ZM36.9036 11.0964C33.5996 7.79557 29.0391 5.75456 24 5.75456C18.9609 5.75456 14.4004 7.79557 11.0964 11.0964C7.79557 14.4004 5.75456 18.9609 5.75456 24C5.75456 29.0391 7.79557 33.5996 11.0996 36.9036C14.4004 40.2044 18.9642 42.2487 24.0033 42.2487C29.0423 42.2487 33.6029 40.2077 36.9069 36.9036C40.2077 33.6029 42.252 29.0391 42.252 24C42.2454 18.9609 40.2044 14.4004 36.9036 11.0964Z" fill="#6D4C41"/>
</svg>
