<svg width="40" height="40" viewBox="0 0 40 40" fill="none" xmlns="http://www.w3.org/2000/svg">
<path d="M7.5 31.2083V29.9167H10.9167V16.9167C10.9167 14.6945 11.6111 12.7361 13 11.0417C14.3889 9.34723 16.1944 8.30557 18.4167 7.91668V6.70834C18.4167 6.2639 18.5625 5.90279 18.8542 5.62501C19.1458 5.34723 19.5278 5.20834 20 5.20834C20.4722 5.20834 20.8542 5.34723 21.1458 5.62501C21.4375 5.90279 21.5833 6.2639 21.5833 6.70834V7.91668C23.8056 8.30557 25.6181 9.34723 27.0208 11.0417C28.4236 12.7361 29.125 14.6945 29.125 16.9167V29.9167H32.5V31.2083H7.5ZM20 36.0417C19.2778 36.0417 18.6458 35.7847 18.1042 35.2708C17.5625 34.757 17.2917 34.1111 17.2917 33.3333H22.7083C22.7083 34.1111 22.4514 34.757 21.9375 35.2708C21.4236 35.7847 20.7778 36.0417 20 36.0417ZM12.1667 29.9167H27.8333V16.9167C27.8333 14.75 27.0764 12.9028 25.5625 11.375C24.0486 9.84723 22.1944 9.08334 20 9.08334C17.8333 9.08334 15.9861 9.84723 14.4583 11.375C12.9306 12.9028 12.1667 14.75 12.1667 16.9167V29.9167Z" fill="black"/>
<circle cx="27" cy="13" r="4" fill="#E63E11"/>
</svg>
