<svg width="40" height="40" viewBox="0 0 40 40" fill="none" xmlns="http://www.w3.org/2000/svg">
<path d="M17.2083 35L16.5417 30.25C15.9306 30.0556 15.2569 29.75 14.5208 29.3333C13.7847 28.9167 13.1667 28.4722 12.6667 28L8.25 30L5.5 25.0833L9.41667 22.1667C9.36111 21.8333 9.3125 21.4792 9.27083 21.1042C9.22917 20.7292 9.20833 20.375 9.20833 20.0417C9.20833 19.7083 9.22917 19.3611 9.27083 19C9.3125 18.6389 9.36111 18.25 9.41667 17.8333L5.5 14.9167L8.25 10.0417L12.625 12C13.2083 11.5278 13.8472 11.0903 14.5417 10.6875C15.2361 10.2847 15.8889 9.98611 16.5 9.79167L17.2083 5H22.7917L23.4583 9.79167C24.1528 10.0694 24.8125 10.3819 25.4375 10.7292C26.0625 11.0764 26.6667 11.5 27.25 12L31.75 10.0417L34.5 14.9167L30.4583 17.875C30.5694 18.2639 30.6389 18.6319 30.6667 18.9792C30.6944 19.3264 30.7083 19.6667 30.7083 20C30.7083 20.3056 30.6875 20.6319 30.6458 20.9792C30.6042 21.3264 30.5417 21.7083 30.4583 22.125L34.5 25.0833L31.7083 30L27.25 28C26.6389 28.5 26.0208 28.9444 25.3958 29.3333C24.7708 29.7222 24.125 30.0139 23.4583 30.2083L22.7917 35H17.2083ZM19.9167 23.9583C21.0278 23.9583 21.9653 23.5764 22.7292 22.8125C23.4931 22.0486 23.875 21.1111 23.875 20C23.875 18.8889 23.4931 17.9514 22.7292 17.1875C21.9653 16.4236 21.0278 16.0417 19.9167 16.0417C18.8056 16.0417 17.8611 16.4236 17.0833 17.1875C16.3056 17.9514 15.9167 18.8889 15.9167 20C15.9167 21.1111 16.3056 22.0486 17.0833 22.8125C17.8611 23.5764 18.8056 23.9583 19.9167 23.9583ZM19.9167 22.7083C19.1667 22.7083 18.5278 22.4444 18 21.9167C17.4722 21.3889 17.2083 20.75 17.2083 20C17.2083 19.25 17.4722 18.6111 18 18.0833C18.5278 17.5556 19.1667 17.2917 19.9167 17.2917C20.6667 17.2917 21.2986 17.5556 21.8125 18.0833C22.3264 18.6111 22.5833 19.25 22.5833 20C22.5833 20.75 22.3264 21.3889 21.8125 21.9167C21.2986 22.4444 20.6667 22.7083 19.9167 22.7083ZM18.25 33.7083H21.7083L22.3333 29.0833C23.1667 28.8611 23.9444 28.5486 24.6667 28.1458C25.3889 27.7431 26.1111 27.1944 26.8333 26.5L31.125 28.3333L32.7917 25.4583L29 22.625C29.1111 22.125 29.1944 21.6667 29.25 21.25C29.3056 20.8333 29.3333 20.4167 29.3333 20C29.3333 19.5556 29.3056 19.1319 29.25 18.7292C29.1944 18.3264 29.1111 17.8889 29 17.4167L32.8333 14.5417L31.1667 11.6667L26.7917 13.5C26.2639 12.9167 25.5764 12.3611 24.7292 11.8333C23.8819 11.3056 23.0694 11 22.2917 10.9167L21.75 6.29167H18.25L17.75 10.875C16.8333 11.0417 16.0139 11.3403 15.2917 11.7708C14.5694 12.2014 13.8472 12.7639 13.125 13.4583L8.83333 11.6667L7.16667 14.5417L10.9167 17.3333C10.8056 17.75 10.7153 18.1806 10.6458 18.625C10.5764 19.0694 10.5417 19.5417 10.5417 20.0417C10.5417 20.4861 10.5764 20.9236 10.6458 21.3542C10.7153 21.7847 10.8056 22.2083 10.9167 22.625L7.16667 25.4583L8.83333 28.3333L13.0833 26.5417C13.75 27.2083 14.4583 27.75 15.2083 28.1667C15.9583 28.5833 16.7917 28.9028 17.7083 29.125L18.25 33.7083Z" fill="black"/>
</svg>
