<svg width="216" height="238" viewBox="-30 -30 216 238" fill="none" xmlns="http://www.w3.org/2000/svg">
<path fill-rule="evenodd" clip-rule="evenodd" d="M340.217 -511.711C408.42 -505.626 413.674 -397.961 467.876 -356.118C514.749 -319.932 596.646 -339.046 628.522 -289.142C660.05 -239.782 622.547 -175.713 620.498 -117.179C618.138 -49.7354 656.076 27.1403 615.566 81.1139C575.331 134.721 493.845 130.114 427.538 139.911C369.268 148.522 308.903 157.034 254.494 134.468C202.617 112.952 176.993 57.9393 136.376 19.152C90.4035 -24.7495 0.0754995 -44.9941 4.8873e-05 -108.561C-0.079412 -175.508 96.7568 -196.517 136.056 -250.715C164.655 -290.157 167.01 -341.911 197.028 -380.285C237.77 -432.369 274.352 -517.588 340.217 -511.711Z" fill="#6D4C41"/>
<path fill-rule="evenodd" clip-rule="evenodd" d="M266.077 11.7133C198.617 9.91756 127.606 83.1785 73.2689 40.7364C18.7413 -1.85423 32.4119 -92.5781 41.418 -163.765C49.0835 -224.354 74.7709 -280.541 118.892 -319.876C159.468 -356.051 213.993 -353.616 266.077 -364.056C340.118 -378.896 419.144 -436.937 481.854 -392.626C547.069 -346.544 551.97 -246.839 549.53 -163.765C547.175 -83.6023 534.118 10.8365 468.813 51.2653C407.122 89.4567 337.486 13.6141 266.077 11.7133Z" fill="#6D4C41" fill-opacity="0.75"/>
</svg>
